<?xml version="1.0" encoding="UTF-8" standalone="no"?>
<!-- Creator: CorelDRAW 2021 (64-Bit) -->

<svg
   xml:space="preserve"
   width="360.004mm"
   height="310.00122mm"
   version="1.1"
   style="clip-rule:evenodd;fill-rule:evenodd;image-rendering:optimizeQuality;shape-rendering:geometricPrecision;text-rendering:geometricPrecision"
   viewBox="0 0 36000.4 31000.122"
   id="svg1139"
   sodipodi:docname="plateau A.svg"
   inkscape:version="1.2 (dc2aeda, 2022-05-15)"
   xmlns:inkscape="http://www.inkscape.org/namespaces/inkscape"
   xmlns:sodipodi="http://sodipodi.sourceforge.net/DTD/sodipodi-0.dtd"
   xmlns="http://www.w3.org/2000/svg"
   xmlns:svg="http://www.w3.org/2000/svg"><sodipodi:namedview
   id="namedview1141"
   pagecolor="#ffffff"
   bordercolor="#666666"
   borderopacity="1.0"
   inkscape:showpageshadow="2"
   inkscape:pageopacity="0.0"
   inkscape:pagecheckerboard="0"
   inkscape:deskcolor="#d1d1d1"
   inkscape:document-units="mm"
   showgrid="false"
   inkscape:zoom="0.2102413"
   inkscape:cx="140.31496"
   inkscape:cy="730.11345"
   inkscape:current-layer="_0" />
 <defs
   id="defs1133">
  <style
   type="text/css"
   id="style1131">
   <![CDATA[
    .str0 {stroke:blue;stroke-width:7.62;stroke-linejoin:bevel;stroke-miterlimit:22.9256}
    .fil0 {fill:none}
   ]]>
  </style>
 </defs>
 <g
   id="_0"
   inkscape:label="_0"
   inkscape:groupmode="layer"
   transform="translate(-22774.376,-32321.973)">
  <metadata
   id="CorelCorpID_0Corel-Layer" />
  
 <path
   class="fil0 str0"
   d="m 22778.186,62318.283 h 23517.16 c 77.98,-0.29 148.1,-47.52 177.68,-119.67 29.58,-72.15 13.78,-154.01 -41.56,-208.95 l -146.22,-146.21 c -88.13,-87.49 -114.89,-219.45 -67.79,-334.35 47.09,-114.9 161.04,-190.13 285.22,-190.59 l 1273.6,-0.04 3277.42,0.04 c 124.18,-0.46 236.41,73.93 284.36,188.49 47.94,114.55 20.55,248.31 -66.93,336.45 l -975.5,975.5 c -83.48,84.09 -108.08,210.18 -62.34,319.48 45.75,109.3 150.68,180.28 269.17,179.85 h 5551.47 c 118.48,-0.43 225.04,-72.2 269.98,-181.83 44.94,-109.63 20.94,-234.02 -63.15,-317.5 l -975.51,-975.5 c -88.13,-87.49 -114.89,-219.45 -67.79,-334.35 47.09,-114.9 161.04,-190.13 285.22,-190.59 l 1266.08,-0.04 -6.08,-2732.13 c 0,-123.98 74.56,-235.8 189.02,-283.46 114.45,-47.66 247.94,-20.21 335.92,67.14 l 983.94,983.99 c 84.08,83.48 210.18,108.08 319.48,62.34 109.3,-45.74 180.28,-150.67 179.85,-269.16 l 0.08,-5642.82 c -0.43,-118.49 -72.2,-225.05 -181.83,-269.99 -109.63,-44.94 -234.03,-20.94 -317.5,63.15 l -983.96,983.96 c -87.35,87.99 -219.04,114.81 -333.84,68 -114.8,-46.82 -190.19,-160.34 -191.09,-284.32 l -0.07,-4478.84 c 0,-123.98 74.57,-235.8 189.02,-283.45 114.46,-47.66 247.94,-20.2 335.92,67.14 l 983.94,983.99 c 84.08,83.48 210.18,108.08 319.48,62.34 109.3,-45.74 180.28,-150.67 179.85,-269.16 l 0.08,-5642.82 c -0.43,-118.49 -72.2,-225.05 -181.83,-269.99 -109.63,-44.94 -234.03,-20.94 -317.5,63.15 l -983.96,983.96 c -87.35,87.99 -219.04,114.81 -333.84,68 -114.8,-46.82 -190.19,-160.34 -191.09,-284.32 l -0.07,-4478.84 c 0,-123.98 74.57,-235.8 189.02,-283.45 114.46,-47.66 247.94,-20.2 335.92,67.14 l 983.94,983.99 c 84.08,83.48 210.18,108.08 319.48,62.34 109.3,-45.74 180.28,-150.67 179.85,-269.16 l 0.08,-5642.82 c -0.43,-118.49 -72.2,-225.05 -181.83,-269.99 -109.63,-44.94 -234.03,-20.94 -317.5,63.15 l -983.96,983.96 c -87.34,87.99 -219.04,114.81 -333.84,68 -114.8,-46.81 -190.19,-160.33 -191.09,-284.3 l -13.71,-3739.41 h -33970.85 z"
   id="path3586"
   style="clip-rule:evenodd;display:inline;fill:none;fill-rule:evenodd;stroke:#0000ff;stroke-width:7.62;stroke-linejoin:bevel;stroke-miterlimit:22.9256;image-rendering:optimizeQuality;shape-rendering:geometricPrecision;text-rendering:geometricPrecision" /><g
   aria-label="MACHINES"
   transform="rotate(-90)"
   id="text6687-0"
   style="font-size:2411.54px;line-height:1.25;font-family:'Bakso Sapi';-inkscape-font-specification:'Bakso Sapi, Normal';display:inline;stroke-width:426.539"><path
     d="m -51925.265,28051.413 c -270.093,0 -516.07,598.062 -622.177,598.062 -45.82,0 -81.993,-62.7 -110.931,-94.05 -113.343,-122.989 -349.674,-303.854 -520.893,-303.854 -48.231,0 -96.462,14.469 -132.635,48.231 -115.754,108.519 -176.042,1087.604 -176.042,1285.35 0,132.635 62.7,200.158 197.746,200.158 137.458,0 192.923,-65.111 192.923,-197.746 0,-250.8 16.881,-496.777 43.408,-747.577 2.412,-26.527 9.646,-151.927 43.408,-151.927 65.111,0 284.562,368.965 470.25,368.965 221.862,0 371.377,-332.792 402.727,-332.792 12.058,0 12.058,19.292 12.058,26.527 7.235,120.577 4.823,243.565 9.646,364.142 7.235,171.219 -16.881,448.547 229.096,448.547 81.993,0 209.804,-57.877 209.804,-154.339 0,-43.408 -33.761,-84.404 -43.407,-127.812 -14.469,-65.111 -12.058,-135.046 -14.469,-202.569 -12.058,-279.739 -7.235,-561.889 -7.235,-841.627 0,-118.166 -62.7,-185.689 -183.277,-185.689 z"
     id="path5309" /><path
     d="m -50852.132,28188.871 c -48.231,0 -96.462,12.057 -137.458,38.584 -77.169,50.643 -81.992,180.866 -106.108,262.858 -36.173,122.989 -74.757,248.389 -110.93,371.377 -65.112,217.039 -144.693,448.547 -144.693,677.643 0,101.285 103.696,137.458 188.1,137.458 226.685,0 180.866,-176.043 212.216,-318.323 9.646,-43.408 19.292,-84.404 28.938,-127.812 4.823,-16.881 9.647,-26.527 28.939,-26.527 12.058,0 24.115,2.412 38.584,2.412 101.285,0 204.981,-2.412 306.266,-2.412 21.704,0 24.115,14.469 28.939,31.35 12.057,36.173 21.703,74.758 31.35,113.342 36.173,151.927 28.938,301.443 233.919,301.443 101.285,0 192.923,-55.465 192.923,-163.985 0,-31.35 -9.646,-62.7 -19.292,-91.638 -120.577,-335.204 -197.746,-829.57 -470.25,-1077.959 -77.17,-72.346 -195.335,-127.811 -301.443,-127.811 z m 110.931,458.192 c 9.646,0 14.469,12.058 19.292,19.293 19.292,33.761 96.462,204.981 96.462,233.919 0,21.704 -16.881,36.173 -38.585,36.173 h -122.988 c -21.704,0 -40.997,-14.469 -40.997,-38.585 0,-7.234 57.877,-204.98 65.112,-226.684 2.412,-9.646 9.646,-24.116 21.704,-24.116 z"
     id="path5311" /><path
     d="m -48934.961,29515.218 c -38.584,0 -74.757,7.234 -113.342,7.234 -229.096,0 -284.562,-221.861 -284.562,-409.961 0,-178.454 65.112,-494.366 207.393,-619.766 12.057,-12.058 43.407,-4.823 60.288,-4.823 72.346,0 173.631,-50.643 173.631,-135.047 0,-115.753 -159.162,-151.927 -250.8,-151.927 -412.374,0 -593.239,573.947 -593.239,906.739 0,448.547 272.504,687.289 706.581,687.289 98.873,0 286.973,-2.411 286.973,-144.692 0,-96.462 -113.342,-135.046 -192.923,-135.046 z"
     id="path5313" /><path
     d="m -47808.775,28808.637 c -43.408,0 -132.635,0 -132.635,-62.701 0,-94.05 4.823,-188.1 4.823,-282.15 0,-147.104 -19.292,-289.385 -202.569,-289.385 -101.285,0 -195.335,45.82 -195.335,159.162 0,69.935 7.235,139.869 7.235,209.804 0,214.627 -19.293,429.254 -36.173,641.47 -4.824,65.111 -16.881,130.223 -16.881,197.746 0,135.046 60.288,212.216 200.158,212.216 86.815,0 180.865,-28.939 195.334,-125.401 19.293,-118.165 14.47,-245.977 14.47,-366.554 0,-21.703 16.88,-24.115 33.761,-24.115 60.289,0 120.577,7.235 180.866,7.235 28.938,0 45.819,4.823 45.819,38.584 v 407.551 c 0,122.988 79.581,176.042 195.335,176.042 113.342,0 197.746,-55.465 197.746,-176.042 v -1188.89 c 0,-118.165 -86.816,-168.808 -195.335,-168.808 -84.404,0 -197.746,36.174 -197.746,137.458 v 443.724 c 0,55.465 -60.289,53.054 -98.873,53.054 z"
     id="path5315" /><path
     d="m -46952.68,29512.806 c 0,161.573 -16.88,323.147 200.158,323.147 86.816,0 195.335,-40.997 195.335,-142.281 v -610.12 c 0,-144.692 7.235,-204.981 7.235,-349.673 0,-156.75 -4.823,-282.15 -200.158,-282.15 -84.404,0 -192.923,38.584 -192.923,139.869 v 523.304 c 0,132.635 -9.647,265.269 -9.647,397.904 z m 221.862,-1625.378 c -320.735,0 -260.446,342.439 -9.646,342.439 315.912,0 258.035,-342.439 9.646,-342.439 z"
     id="path5317" /><path
     d="m -44654.485,28200.928 c 0,-120.577 -79.581,-173.63 -192.923,-173.63 -24.115,0 -48.231,2.411 -72.346,9.646 -122.989,36.173 -120.577,127.811 -125.4,236.331 -12.058,214.627 -21.704,530.538 -69.935,733.108 -2.411,9.646 -7.235,24.115 -21.704,24.115 -9.646,0 -16.881,-7.234 -24.115,-14.469 -147.104,-159.162 -431.666,-508.835 -660.762,-508.835 -86.816,0 -156.75,40.996 -183.277,127.812 -72.346,245.977 -110.931,518.481 -142.281,774.104 -7.235,67.523 -24.115,137.458 -24.115,204.981 0,14.469 0,28.938 2.411,43.408 12.058,89.227 118.166,115.754 192.923,115.754 16.881,0 33.762,-2.412 50.643,-4.824 161.573,-33.761 139.869,-200.157 154.338,-327.969 14.469,-142.281 36.173,-320.735 69.935,-458.193 2.411,-12.057 7.234,-28.938 21.704,-28.938 12.057,0 19.292,7.235 26.527,14.469 149.515,142.281 277.327,327.97 426.842,477.485 53.054,53.054 130.223,86.816 207.393,86.816 72.346,0 127.811,-31.351 159.161,-98.874 156.75,-330.381 163.985,-706.581 188.1,-1063.489 4.824,-57.877 16.881,-113.342 16.881,-168.808 z"
     id="path5319" /><path
     d="m -43373.959,29657.499 c 0,-96.462 -120.577,-135.047 -200.158,-135.047 -98.873,0 -176.042,84.404 -277.327,84.404 -26.527,0 -43.407,-21.704 -43.407,-48.231 0,-79.58 0,-161.573 7.234,-241.154 2.412,-31.35 28.939,-57.877 60.289,-65.111 94.05,-24.116 308.677,-103.696 308.677,-221.862 0,-89.227 -115.754,-139.869 -190.512,-139.869 -43.408,0 -84.404,24.115 -120.577,24.115 -19.292,0 -21.704,-16.881 -21.704,-33.761 0,-50.643 9.646,-103.697 14.469,-154.339 7.235,-72.346 9.647,-144.692 14.47,-217.038 2.411,-33.762 0,-65.112 0,-98.874 0,-40.996 28.938,-26.527 55.465,-26.527 101.285,0 400.316,-31.35 400.316,-171.219 0,-91.638 -113.343,-139.869 -190.512,-139.869 -31.35,0 -74.758,4.823 -101.285,19.292 h -14.469 c -67.523,0 -135.046,16.881 -204.981,16.881 -96.461,0 -224.273,19.292 -294.208,91.638 -31.35,31.35 -36.173,72.347 -38.584,115.754 -12.058,417.197 -79.581,834.393 -79.581,1251.59 0,207.392 -26.527,354.496 236.331,354.496 120.577,0 491.954,-67.523 595.65,-132.635 43.408,-28.938 84.404,-77.169 84.404,-132.634 z"
     id="path5321" /><path
     d="m -42500.985,28490.313 c 0,-81.992 173.631,-62.7 231.508,-81.992 55.465,-19.292 113.342,-67.523 113.342,-130.223 0,-101.285 -118.165,-127.812 -197.746,-127.812 -224.273,0 -528.127,72.346 -528.127,352.085 0,274.915 277.327,610.12 277.327,834.393 0,166.396 -236.331,89.227 -335.204,159.161 -36.173,26.527 -65.112,67.524 -65.112,113.343 0,96.461 118.166,122.988 195.335,122.988 265.269,0 590.827,-94.05 590.827,-414.785 0,-279.738 -282.15,-658.35 -282.15,-827.158 z"
     id="path5323" /></g><rect
   style="clip-rule:evenodd;display:inline;fill:none;fill-rule:evenodd;stroke:#f60000;stroke-width:5.64691;stroke-linecap:square;stroke-linejoin:round;stroke-miterlimit:10;stroke-opacity:1;paint-order:markers fill stroke;image-rendering:optimizeQuality;shape-rendering:geometricPrecision;text-rendering:geometricPrecision"
   id="rect6519"
   width="6494.353"
   height="9994.3535"
   x="32298.521"
   y="36876.078"
   rx="400"
   ry="400" /><rect
   style="clip-rule:evenodd;display:inline;fill:none;fill-rule:evenodd;stroke:#f60000;stroke-width:5.64691;stroke-linecap:square;stroke-linejoin:round;stroke-miterlimit:10;stroke-opacity:1;paint-order:markers fill stroke;image-rendering:optimizeQuality;shape-rendering:geometricPrecision;text-rendering:geometricPrecision"
   id="rect6521"
   width="6494.353"
   height="9994.3535"
   x="39706.852"
   y="36876.078"
   rx="400"
   ry="400" /><rect
   style="clip-rule:evenodd;display:inline;fill:none;fill-rule:evenodd;stroke:#f60000;stroke-width:5.64691;stroke-linecap:square;stroke-linejoin:round;stroke-miterlimit:10;stroke-opacity:1;paint-order:markers fill stroke;image-rendering:optimizeQuality;shape-rendering:geometricPrecision;text-rendering:geometricPrecision"
   id="rect6523"
   width="6494.353"
   height="9994.3535"
   x="47115.18"
   y="36876.078"
   rx="400"
   ry="400" /><rect
   style="clip-rule:evenodd;display:inline;fill:none;fill-rule:evenodd;stroke:#f60000;stroke-width:5.64691;stroke-linecap:square;stroke-linejoin:round;stroke-miterlimit:10;stroke-opacity:1;paint-order:markers fill stroke;image-rendering:optimizeQuality;shape-rendering:geometricPrecision;text-rendering:geometricPrecision"
   id="rect6535"
   width="6494.353"
   height="9994.3535"
   x="32298.521"
   y="47988.605"
   rx="400"
   ry="400" /><rect
   style="clip-rule:evenodd;display:inline;fill:none;fill-rule:evenodd;stroke:#f60000;stroke-width:5.64691;stroke-linecap:square;stroke-linejoin:round;stroke-miterlimit:10;stroke-opacity:1;paint-order:markers fill stroke;image-rendering:optimizeQuality;shape-rendering:geometricPrecision;text-rendering:geometricPrecision"
   id="rect6537"
   width="6494.353"
   height="9994.3535"
   x="39706.852"
   y="47988.605"
   rx="400"
   ry="400" /><rect
   style="clip-rule:evenodd;display:inline;fill:none;fill-rule:evenodd;stroke:#f60000;stroke-width:5.64691;stroke-linecap:square;stroke-linejoin:round;stroke-miterlimit:10;stroke-opacity:1;paint-order:markers fill stroke;image-rendering:optimizeQuality;shape-rendering:geometricPrecision;text-rendering:geometricPrecision"
   id="rect6539"
   width="6494.353"
   height="9994.3535"
   x="47115.18"
   y="47988.605"
   rx="400"
   ry="400" /><path
   id="rect6525"
   style="clip-rule:evenodd;display:inline;fill:none;fill-rule:evenodd;stroke:#f60000;stroke-width:5.64691;stroke-linecap:square;stroke-linejoin:round;stroke-miterlimit:10;stroke-opacity:1;paint-order:markers fill stroke;image-rendering:optimizeQuality;shape-rendering:geometricPrecision;text-rendering:geometricPrecision"
   d="m 58770.991,36876.062 h -3847.466 c -221.599,0 -400.027,178.428 -400.027,400.027 v 9194.323 c 0,221.6 178.428,400.027 400.027,400.027 h 3847.466"
   sodipodi:nodetypes="cssssc" /><path
   id="rect6541"
   style="clip-rule:evenodd;display:inline;fill:none;fill-rule:evenodd;stroke:#f60000;stroke-width:5.64691;stroke-linecap:square;stroke-linejoin:round;stroke-miterlimit:10;stroke-opacity:1;paint-order:markers fill stroke;image-rendering:optimizeQuality;shape-rendering:geometricPrecision;text-rendering:geometricPrecision"
   d="m 58770.784,47988.614 h -3847.259 c -221.599,0 -400.027,178.376 -400.027,399.976 v 9194.374 c 0,221.6 178.428,399.975 400.027,399.975 h 3844.779"
   sodipodi:nodetypes="cssssc" /></g>
</svg>
