<?xml version="1.0" encoding="UTF-8" standalone="no"?>
<!-- Creator: CorelDRAW 2021 (64-Bit) -->

<svg
   xml:space="preserve"
   width="360.2178mm"
   height="310.00122mm"
   version="1.1"
   style="clip-rule:evenodd;fill-rule:evenodd;image-rendering:optimizeQuality;shape-rendering:geometricPrecision;text-rendering:geometricPrecision"
   viewBox="0 0 36021.78 31000.122"
   id="svg1365"
   sodipodi:docname="plateau B.svg"
   inkscape:version="1.2 (dc2aeda, 2022-05-15)"
   xmlns:inkscape="http://www.inkscape.org/namespaces/inkscape"
   xmlns:sodipodi="http://sodipodi.sourceforge.net/DTD/sodipodi-0.dtd"
   xmlns="http://www.w3.org/2000/svg"
   xmlns:svg="http://www.w3.org/2000/svg"><sodipodi:namedview
   id="namedview1367"
   pagecolor="#ffffff"
   bordercolor="#666666"
   borderopacity="1.0"
   inkscape:showpageshadow="2"
   inkscape:pageopacity="0.0"
   inkscape:pagecheckerboard="0"
   inkscape:deskcolor="#d1d1d1"
   inkscape:document-units="mm"
   showgrid="false"
   inkscape:zoom="0.2102413"
   inkscape:cx="211.66155"
   inkscape:cy="901.34526"
   inkscape:current-layer="_0" />
 <defs
   id="defs1359">
  <style
   type="text/css"
   id="style1357">
   <![CDATA[
    .str0 {stroke:blue;stroke-width:7.62;stroke-linejoin:bevel;stroke-miterlimit:22.9256}
    .fil0 {fill:none}
   ]]>
  </style>
 </defs>
 <g
   id="_0"
   inkscape:label="_0"
   inkscape:groupmode="layer"
   transform="translate(-33586.568,-40250.364)">
  <metadata
   id="CorelCorpID_0Corel-Layer" />
  
 <g
   style="clip-rule:evenodd;display:inline;fill-rule:evenodd;image-rendering:optimizeQuality;shape-rendering:geometricPrecision;text-rendering:geometricPrecision"
   id="g3803"
   transform="rotate(180,38408.019,41240.257)"><g
     id="_0-6">
  <metadata
   id="CorelCorpID_0Corel-Layer-2" />
  <path
   class="fil0 str0"
   d="m 30669.27,12708.67 146.21,-146.21 c 54.94,-55.34 71.13,-138.33 41.02,-210.26 -30.1,-71.93 -99.16,-118.65 -177.14,-118.36 H 7211.5 v 29992.5 h 36014.16 l -13.71,-3739.35 c -0.86,-118.29 -72.78,-224.45 -182.31,-269.12 -109.53,-44.67 -233.68,-20.58 -317.02,63.36 l -983.96,983.96 c -87.48,88.14 -219.44,114.9 -334.35,67.8 -114.9,-47.1 -190.12,-161.05 -190.58,-285.24 l 0.07,-5642.82 c -0.45,-124.18 73.94,-236.41 188.49,-284.36 114.56,-47.95 248.32,-20.55 336.46,66.93 l 983.93,983.99 c 83.94,83.34 209.77,108.02 318.97,62.56 109.21,-45.45 180.35,-150 180.36,-268.29 l -0.06,-4478.78 c -0.87,-118.29 -72.79,-224.44 -182.32,-269.11 -109.52,-44.67 -233.67,-20.58 -317.01,63.36 l -983.96,983.96 c -87.48,88.14 -219.44,114.9 -334.35,67.8 -114.9,-47.1 -190.12,-161.05 -190.58,-285.24 l 0.07,-5642.82 c -0.45,-124.18 73.94,-236.41 188.49,-284.36 114.56,-47.95 248.32,-20.55 336.46,66.93 l 983.93,983.99 c 83.94,83.34 209.77,108.02 318.97,62.56 109.21,-45.45 180.35,-150 180.36,-268.29 l -0.06,-4478.78 c -0.87,-118.29 -72.79,-224.44 -182.32,-269.11 -109.52,-44.67 -233.67,-20.58 -317.01,63.36 l -983.96,983.96 c -87.48,88.14 -219.44,114.9 -334.35,67.8 -114.9,-47.1 -190.12,-161.05 -190.58,-285.24 l 0.07,-5642.82 c -0.45,-124.18 73.94,-236.41 188.49,-284.36 114.56,-47.95 248.32,-20.55 336.46,66.93 l 983.93,983.99 c 83.94,83.34 209.76,108.02 318.97,62.56 109.2,-45.45 180.34,-150 180.36,-268.28 l -6.07,-2732.12 -3269.94,-0.04 c -124.18,0.46 -236.41,-73.93 -284.36,-188.49 -47.95,-114.55 -20.56,-248.31 66.93,-336.45 l 975.5,-975.5 c 83.47,-84.09 108.07,-210.18 62.33,-319.48 -45.74,-109.3 -150.68,-180.28 -269.16,-179.85 h -5600.77 c -118.49,0.43 -225.04,72.2 -269.98,181.83 -44.95,109.63 -20.94,234.02 63.15,317.5 l 975.5,975.5 c 88.14,87.49 114.9,219.45 67.8,334.35 -47.1,114.9 -161.05,190.13 -285.23,190.59 l -1273.59,0.04 -3277.42,-0.04 c -124.18,0.46 -236.41,-73.93 -284.36,-188.49 -47.95,-114.55 -20.56,-248.31 66.93,-336.45 z"
   id="path3792"
   style="fill:none;stroke:#0000ff;stroke-width:7.62;stroke-linejoin:bevel;stroke-miterlimit:22.9256" />
 </g></g><path
   id="path938"
   style="clip-rule:evenodd;display:inline;fill:none;fill-rule:evenodd;stroke:#f60000;stroke-width:5.64691;stroke-linecap:square;stroke-linejoin:round;stroke-miterlimit:10;stroke-opacity:1;paint-order:markers fill stroke;image-rendering:optimizeQuality;shape-rendering:geometricPrecision;text-rendering:geometricPrecision"
   d="m 35612.329,54798.827 h 1846.864 c 221.6,0 400.027,-178.427 400.027,-400.027 v -9194.323 c 0,-221.599 -178.427,-400.027 -400.027,-400.027 h -1846.864"
   sodipodi:nodetypes="cssssc" /><rect
   style="clip-rule:evenodd;display:inline;fill:none;fill-rule:evenodd;stroke:#f60000;stroke-width:5.64691;stroke-linecap:square;stroke-linejoin:round;stroke-miterlimit:10;stroke-opacity:1;paint-order:markers fill stroke;image-rendering:optimizeQuality;shape-rendering:geometricPrecision;text-rendering:geometricPrecision"
   id="rect6527"
   width="6494.353"
   height="9994.3535"
   x="38773.18"
   y="44804.465"
   rx="400"
   ry="400" /><rect
   style="clip-rule:evenodd;display:inline;fill:none;fill-rule:evenodd;stroke:#f60000;stroke-width:5.64691;stroke-linecap:square;stroke-linejoin:round;stroke-miterlimit:10;stroke-opacity:1;paint-order:markers fill stroke;image-rendering:optimizeQuality;shape-rendering:geometricPrecision;text-rendering:geometricPrecision"
   id="rect6529"
   width="6494.353"
   height="9994.3535"
   x="46181.512"
   y="44804.465"
   rx="400"
   ry="400" /><rect
   style="clip-rule:evenodd;display:inline;fill:none;fill-rule:evenodd;stroke:#f60000;stroke-width:5.64691;stroke-linecap:square;stroke-linejoin:round;stroke-miterlimit:10;stroke-opacity:1;paint-order:markers fill stroke;image-rendering:optimizeQuality;shape-rendering:geometricPrecision;text-rendering:geometricPrecision"
   id="rect6531"
   width="6494.353"
   height="9994.3535"
   x="53589.844"
   y="44804.465"
   rx="400"
   ry="400" /><path
   id="path1040"
   style="clip-rule:evenodd;display:inline;fill:none;fill-rule:evenodd;stroke:#f60000;stroke-width:5.64691;stroke-linecap:square;stroke-linejoin:round;stroke-miterlimit:10;stroke-opacity:1;paint-order:markers fill stroke;image-rendering:optimizeQuality;shape-rendering:geometricPrecision;text-rendering:geometricPrecision"
   d="m 35609.642,65911.327 h 1849.551 c 221.6,0 400.027,-178.375 400.027,-399.975 v -9194.374 c 0,-221.6 -178.427,-399.976 -400.027,-399.976 h -1847.071"
   sodipodi:nodetypes="cssssc" /><rect
   style="clip-rule:evenodd;display:inline;fill:none;fill-rule:evenodd;stroke:#f60000;stroke-width:5.64691;stroke-linecap:square;stroke-linejoin:round;stroke-miterlimit:10;stroke-opacity:1;paint-order:markers fill stroke;image-rendering:optimizeQuality;shape-rendering:geometricPrecision;text-rendering:geometricPrecision"
   id="rect6543"
   width="6494.353"
   height="9994.3535"
   x="38773.18"
   y="55916.992"
   rx="400"
   ry="400" /><rect
   style="clip-rule:evenodd;display:inline;fill:none;fill-rule:evenodd;stroke:#f60000;stroke-width:5.64691;stroke-linecap:square;stroke-linejoin:round;stroke-miterlimit:10;stroke-opacity:1;paint-order:markers fill stroke;image-rendering:optimizeQuality;shape-rendering:geometricPrecision;text-rendering:geometricPrecision"
   id="rect6545"
   width="6494.353"
   height="9994.3535"
   x="46181.512"
   y="55916.992"
   rx="400"
   ry="400" /><rect
   style="clip-rule:evenodd;display:inline;fill:none;fill-rule:evenodd;stroke:#f60000;stroke-width:5.64691;stroke-linecap:square;stroke-linejoin:round;stroke-miterlimit:10;stroke-opacity:1;paint-order:markers fill stroke;image-rendering:optimizeQuality;shape-rendering:geometricPrecision;text-rendering:geometricPrecision"
   id="rect6547"
   width="6494.353"
   height="9994.3535"
   x="53589.844"
   y="55916.992"
   rx="400"
   ry="400" /></g>
</svg>
