<?xml version="1.0" encoding="UTF-8" standalone="no"?>
<!-- Creator: CorelDRAW 2021 (64-Bit) -->

<svg
   xml:space="preserve"
   width="350.0762mm"
   height="310.00122mm"
   version="1.1"
   style="clip-rule:evenodd;fill-rule:evenodd;image-rendering:optimizeQuality;shape-rendering:geometricPrecision;text-rendering:geometricPrecision"
   viewBox="0 0 35007.62 31000.122"
   id="svg1887"
   sodipodi:docname="plateau D.svg"
   inkscape:version="1.2 (dc2aeda, 2022-05-15)"
   xmlns:inkscape="http://www.inkscape.org/namespaces/inkscape"
   xmlns:sodipodi="http://sodipodi.sourceforge.net/DTD/sodipodi-0.dtd"
   xmlns="http://www.w3.org/2000/svg"
   xmlns:svg="http://www.w3.org/2000/svg"><sodipodi:namedview
   id="namedview1889"
   pagecolor="#ffffff"
   bordercolor="#666666"
   borderopacity="1.0"
   inkscape:showpageshadow="2"
   inkscape:pageopacity="0.0"
   inkscape:pagecheckerboard="0"
   inkscape:deskcolor="#d1d1d1"
   inkscape:document-units="mm"
   showgrid="false"
   inkscape:zoom="0.2102413"
   inkscape:cx="-558.88163"
   inkscape:cy="587.42026"
   inkscape:current-layer="_0" />
 <defs
   id="defs1881">
  <style
   type="text/css"
   id="style1879">
   <![CDATA[
    .str0 {stroke:blue;stroke-width:7.62;stroke-linejoin:bevel;stroke-miterlimit:22.9256}
    .fil0 {fill:none}
   ]]>
  </style>
 </defs>
 <g
   id="_0"
   inkscape:label="_0"
   inkscape:groupmode="layer"
   transform="translate(23229.869,587.13694)">
  <metadata
   id="CorelCorpID_0Corel-Layer" />
  
 <g
   style="clip-rule:evenodd;display:inline;fill-rule:evenodd;image-rendering:optimizeQuality;shape-rendering:geometricPrecision;text-rendering:geometricPrecision"
   id="g3907"
   transform="translate(-30367.449,-17599.665)"><g
     id="_0-41">
  <metadata
   id="CorelCorpID_0Corel-Layer-8" />
  <path
   class="fil0 str0"
   d="m 35148.22,18491.4 975.73,-975.73 c 83.48,-84.09 108.08,-210.18 62.34,-319.48 -45.75,-109.3 -150.68,-180.28 -269.16,-179.85 h -4551.48 c -118.48,0.43 -225.04,72.2 -269.98,181.83 -44.94,109.63 -20.93,234.02 63.16,317.5 l 975.73,975.73 c 88.14,87.49 114.89,219.45 67.8,334.35 -47.1,114.91 -161.05,190.13 -285.23,190.59 h -5551.48 c -124.18,0.46 -236.41,-73.93 -284.36,-188.48 -47.94,-114.55 -20.56,-248.32 66.93,-336.46 l 975.73,-975.73 c 83.48,-84.09 108.08,-210.18 62.34,-319.48 -45.75,-109.3 -150.68,-180.28 -269.16,-179.85 h -4551.48 c -118.48,0.43 -225.04,72.2 -269.98,181.83 -44.94,109.63 -20.93,234.02 63.16,317.5 l 975.73,975.73 c 88.14,87.49 114.89,219.45 67.8,334.35 -47.1,114.91 -161.05,190.13 -285.23,190.59 h -5551.48 c -124.18,0.46 -236.41,-73.93 -284.36,-188.48 -47.94,-114.55 -20.56,-248.32 66.93,-336.46 l 975.73,-975.73 c 83.48,-84.09 108.08,-210.18 62.34,-319.48 -45.75,-109.3 -150.68,-180.28 -269.16,-179.85 h -4551.48 c -118.48,0.43 -225.04,72.2 -269.98,181.83 -44.94,109.63 -20.93,234.02 63.16,317.5 l 975.73,975.73 c 88.14,87.49 114.89,219.45 67.8,334.35 -47.1,114.91 -161.05,190.13 -285.23,190.59 H 7141.39 v 28992.5 h 35000 v -28992.5 h -6775.74 c -124.18,0.46 -236.41,-73.93 -284.36,-188.48 -47.94,-114.55 -20.56,-248.32 66.93,-336.46 z"
   id="path3896"
   style="fill:none;stroke:#0000ff;stroke-width:7.62;stroke-linejoin:bevel;stroke-miterlimit:22.9256" />
 </g></g><path
   style="clip-rule:evenodd;display:inline;fill:#000000;fill-rule:evenodd;stroke-width:6.2566;image-rendering:optimizeQuality;shape-rendering:geometricPrecision;text-rendering:geometricPrecision"
   d="m -13480.663,20181.828 c 0,-2806.251 0.711,-3954.263 1.58,-2551.137 0.868,1403.125 0.868,3699.149 0,5102.274 -0.869,1403.126 -1.58,255.114 -1.58,-2551.137 z m 595.959,4889.217 c -2.581,-2.685 -4.693,-16.954 -4.693,-31.709 0,-14.755 -6.616,-45.055 -14.703,-67.334 -46.612,-128.414 -155.778,-210.328 -280.303,-210.328 -20.668,0 -37.777,-3.107 -40.389,-7.334 -2.493,-4.034 -12.216,-1467.379 -21.606,-3251.879 -9.39,-1784.499 -18.773,-3533.13 -20.85,-3885.848 -12.77,-2168.893 -12.716,-2104.744 -1.78,-2113.82 8.652,-7.181 14.237,-6.477 37.334,4.705 51.233,24.801 111.18,12.353 155.909,-32.376 33.998,-33.998 50.977,-75.001 54.81,-132.365 3.141,-46.981 4.185,-49.858 19.595,-53.956 8.952,-2.38 431.274,-6.109 938.493,-8.286 507.219,-2.178 991.648,-5.673 1076.51,-7.767 l 154.293,-3.808 -3.513,-96.257 c -3.441,-94.286 -3.248,-96.258 9.431,-96.258 7.119,0 16.717,-1.447 21.328,-3.217 6.383,-2.45 7.887,3.152 6.297,23.462 -1.148,14.674 0.63,70.63 3.952,124.347 5.54,89.601 7.82,102.037 27.604,150.561 51.105,125.353 140.427,218.201 253.909,263.934 44.875,18.085 53.393,19.393 126.327,19.393 72.934,0 81.453,-1.308 126.328,-19.393 113.481,-45.733 202.803,-138.581 253.909,-263.934 19.784,-48.524 22.063,-60.96 27.604,-150.561 3.322,-53.717 5.1,-109.673 3.952,-124.347 -1.59,-20.31 -0.09,-25.912 6.296,-23.462 4.612,1.77 14.21,3.217 21.329,3.217 12.679,0 12.872,1.972 9.431,96.258 l -3.514,96.257 154.294,3.808 c 84.862,2.094 569.2906,5.589 1076.5096,7.767 507.2186,2.177 929.5396,5.906 938.4926,8.286 15.41,4.098 16.454,6.975 19.594,53.956 3.834,57.364 20.813,98.367 54.811,132.365 44.729,44.729 104.675,57.177 155.909,32.376 23.097,-11.182 28.682,-11.886 37.334,-4.705 10.935,9.076 10.99,-55.073 -1.781,2113.82 -2.077,352.718 -11.459,2101.349 -20.849,3885.848 -9.39,1784.5 -19.113,3247.845 -21.606,3251.879 -2.613,4.227 -19.721,7.334 -40.389,7.334 -45.518,0 -102.453,14.743 -138.499,35.864 -83.99,49.211 -146.315,143.745 -155.792,236.299 l -3.844,37.54 -541.1966,0.06 c -297.659,0 -774.849,-1.381 -1060.4216,-3.129 l -519.224,-3.177 -4.237,-29.635 c -11.063,-77.367 -61.149,-164.553 -125.115,-217.785 -66.561,-55.407 -177.531,-99.836 -249.325,-99.836 -69.75,0 -176.816,42.142 -245.352,96.573 -64.154,50.951 -119.676,145.277 -128.282,217.937 -1.952,16.484 -5.259,30.99 -7.349,32.238 -7.874,4.701 -2112.49,11.082 -2116.972,6.419 z m 128.726,-76.311 c -16.334,-176.86 -130.252,-329.937 -274.193,-368.444 -38.614,-10.33 -103.097,-10.936 -135.355,-1.271 l -24.189,7.247 v 45.272 45.271 l 48.816,2.227 c 134.561,6.138 259.356,129.421 292.005,288.467 3.47,16.904 4.345,17.206 49.885,17.206 h 46.354 z m 1958.834,-3.049 c 14.049,-50.533 46.405,-111.672 81.991,-154.931 22.683,-27.574 26.11,-34.649 17.248,-35.605 -24.678,-2.662 -2067.199,-15.695 -2069.688,-13.206 -1.479,1.48 5.477,22.218 15.459,46.085 20.59,49.232 37.922,126.136 37.922,168.262 v 28.419 h 953.109 953.109 z m 2737.8572,10.605 c 0,-42.126 17.333,-119.03 37.923,-168.262 9.982,-23.867 16.938,-44.605 15.458,-46.085 -2.489,-2.489 -2045.0082,10.544 -2069.6862,13.206 -8.863,0.956 -5.436,8.031 17.248,35.605 35.586,43.259 67.942,104.398 81.991,154.931 l 10.849,39.024 h 953.1086 953.1086 z m 134.683,11.213 c 24.204,-117.908 94.394,-212.698 193.925,-261.891 41.944,-20.731 56.518,-24.68 98.08,-26.576 l 48.816,-2.227 v -45.271 -45.272 l -24.188,-7.247 c -13.304,-3.986 -42.163,-7.214 -64.131,-7.172 -78.239,0.144 -144.279,28.027 -208.354,87.966 -78.5,73.433 -126.509,174.631 -137.064,288.921 l -3.323,35.975 h 46.353 c 45.54,0 46.416,-0.3 49.886,-17.206 z m -2825.0652,-317.349 -65.658,-65.521 -932.237,-6.384 c -512.73,-3.51 -963.91,-6.404 -1002.623,-6.43 l -70.387,-0.05 v 52.212 c 0,43.105 2.046,54.063 11.731,62.828 10.843,9.812 85.137,11.238 980.726,18.811 532.946,4.507 1008.394,8.613 1056.55,9.123 l 87.556,0.928 z m 1983.0146,52.679 c 718.4926,-5.586 792.1316,-7.09 802.4116,-16.394 9.199,-8.324 11.319,-20.026 11.319,-62.455 v -52.212 l -70.387,0.06 c -38.713,0 -489.8936,2.919 -1002.6236,6.43 l -932.2356,6.383 -65.642,65.504 -65.641,65.504 265.853,-3.328 c 146.219,-1.831 621.8446,-6.097 1056.9456,-9.48 z m -1824.4186,-15.355 30.299,-17.47 -145.621,-145.719 -145.621,-145.72 -37.965,-3.314 c -20.881,-1.821 -463.806,-5.056 -984.279,-7.187 l -946.314,-3.874 v 18.292 18.293 l 601.671,4.161 c 330.919,2.288 756.782,4.16 946.363,4.16 h 344.691 l 149.711,149.808 c 82.341,82.395 151.298,148.961 153.238,147.924 1.941,-1.037 17.163,-9.746 33.827,-19.354 z m 1090.212,-278.378 c 189.527,0 615.3476,-1.872 946.2666,-4.16 l 601.6706,-4.161 v -18.293 -18.292 l -946.3136,3.874 c -520.4726,2.131 -963.3976,5.366 -984.2786,7.187 l -37.966,3.314 -145.674,145.773 -145.673,145.772 33.48,19.44 33.48,19.44 150.206,-149.947 150.206,-149.947 z m -953.032,228.836 67.144,-15.172 66.973,15.134 66.974,15.133 156.7,-159.717 156.702,-159.716 991.2246,-6.118 c 545.174,-3.364 991.8886,-6.788 992.6996,-7.609 0.811,-0.821 3.54,-179.49 6.064,-397.043 l 4.589,-395.55 177.065,-176.36 c 97.386,-96.997 180.058,-178.208 183.715,-180.469 4.645,-2.87 11.559,-913.346 22.925,-3018.566 l 16.274,-3014.457 -207.168,-207.508 -207.169,-207.509 v -385.128 -385.128 l -154.851,-4.117 c -85.168,-2.264 -533.7086,-4.123 -996.7556,-4.13 l -841.9036,-0.01 -158.098,-150.88 -158.097,-150.879 -58.932,8.091 c -48.194,6.616 -69.667,6.616 -117.862,0 l -58.931,-8.091 -158.097,150.879 -158.098,150.88 -841.905,0.01 c -463.047,0 -911.587,1.866 -996.755,4.13 l -154.851,4.117 v 385.128 385.128 l -207.169,207.509 -207.168,207.509 16.274,3014.456 c 11.366,2105.22 18.28,3015.696 22.924,3018.567 3.658,2.26 86.33,83.471 183.716,180.469 l 177.065,176.36 4.589,395.55 c 2.524,217.553 5.252,396.222 6.064,397.043 0.811,0.82 447.526,4.241 992.7,7.601 l 991.225,6.109 156.415,159.671 c 86.029,87.819 156.467,159.713 156.53,159.764 0.06,0.06 30.33,-6.736 67.259,-15.08 z m -1131.869,-500.862 c -8.188,-5.987 -8.496,-12.649 -2.191,-47.348 12.809,-70.491 -0.358,-161.914 -33.105,-229.867 -60.818,-126.202 -287.304,-229.416 -730.269,-332.797 -280.049,-65.359 -312.665,-74.35 -372.446,-102.669 -58.865,-27.884 -103.894,-62.518 -118.264,-90.962 -6.533,-12.929 -9.004,-222.788 -12.513,-1062.572 -4.211,-1007.466 -3.951,-1046.597 6.98,-1050.116 6.245,-2.01 17.653,-6.671 25.352,-10.358 20.364,-9.753 55.852,2.693 99.6,34.933 40.696,29.99 90.419,82.735 109.893,116.571 9.073,15.765 22.593,26.52 46.729,37.172 40.422,17.839 116.665,86.859 147.853,133.846 56.393,84.959 110.112,215.046 135.034,327 25.443,114.293 71.592,476.304 74.926,587.742 4.087,136.638 45.654,279.839 104.389,359.625 28.59,38.837 76.635,80.486 116.028,100.583 43.149,22.013 132.812,43.972 255.292,62.525 155.673,23.581 200.974,36.143 295.383,81.907 179.584,87.052 270.137,175.571 346.046,338.276 50.453,108.138 77.635,220.939 90.902,377.231 11.436,134.727 3.163,347.171 -14.168,363.815 -10.554,10.135 -557.905,15.369 -571.451,5.463 z m 542.068,-45.213 c 1.721,-1.607 3.026,-82.218 2.901,-179.134 -0.199,-153.923 -1.972,-185.794 -14.016,-251.947 -20.266,-111.308 -41.189,-177.985 -82.263,-262.157 -74.411,-152.487 -150.109,-225.804 -316.43,-306.478 -99.377,-48.203 -128.352,-55.825 -331.601,-87.227 -109.021,-16.845 -168.71,-32.959 -222.435,-60.05 -96.597,-48.71 -163.667,-134.638 -204.965,-262.595 -20.568,-63.726 -30.757,-130.335 -41.632,-272.163 -19.273,-251.337 -48.818,-462.299 -81.591,-582.598 -31.449,-115.438 -88.069,-234.804 -143.112,-301.707 -24.835,-30.186 -79.348,-77.782 -83.887,-73.244 -1.212,1.213 3.326,20.107 10.084,41.989 32.571,105.452 58.959,296.468 67.78,490.647 3.67,80.785 3.078,88.487 -7.104,92.393 -18.613,7.143 -28.291,-7.387 -28.291,-42.471 0,-39.328 -15.552,-210.135 -28.519,-313.238 -13.119,-104.306 -47.142,-232.728 -78.591,-296.647 -19.589,-39.816 -37.513,-64.384 -73.577,-100.853 -43.231,-43.715 -88.134,-74.874 -107.903,-74.874 -5.87,0 -6.602,228.002 -3.303,1028.897 2.331,565.893 5.965,1033.398 8.075,1038.899 5.732,14.935 72.551,58.193 120.038,77.711 48.625,19.986 111.976,37.536 216.961,60.101 495.55,106.515 777.305,220.906 863.33,350.508 40.186,60.543 54.771,116.797 55.646,214.625 l 0.747,83.524 250.265,-4.495 c 137.646,-2.472 251.673,-5.809 253.393,-7.416 z m -880.932,-666.302 c -4.129,-4.129 -7.557,-18.91 -7.617,-32.847 -0.202,-47.197 -18.268,-112.694 -47.315,-171.542 -60.643,-122.856 -175.523,-210.326 -308.304,-234.745 l -41.567,-7.645 -1.614,-34.07 c -3.203,-67.633 -27.444,-266.967 -45.47,-373.901 -37.36,-221.636 -65.902,-294.453 -146.369,-373.425 -28.051,-27.529 -60.515,-55.413 -72.144,-61.965 l -21.143,-11.912 3.994,394.849 c 3.551,351.023 2.923,395.921 -5.659,404.503 -7.266,7.266 -12.642,8.055 -21.733,3.189 -11.454,-6.13 -12.078,-14.803 -12.078,-167.891 0,-88.784 -1.855,-275.266 -4.123,-414.404 -3.825,-234.751 -3.342,-253.758 6.704,-263.803 5.954,-5.955 14.208,-10.826 18.342,-10.826 19.125,0 93.155,51.679 138.919,96.977 58.289,57.697 92.526,117.176 117.953,204.918 26.227,90.505 63.576,337.936 77.551,513.758 l 4.409,55.473 43.797,11.216 c 196.625,50.349 335.846,214.432 356.905,420.638 3.063,29.998 2.065,44.986 -3.439,51.617 -9.372,11.294 -19.899,11.939 -29.999,1.838 z m 2400.429,716.074 c -175.733,-1.319 -230.764,-3.571 -235.81,-9.651 -16.667,-20.083 -24.474,-233.106 -13.347,-364.186 13.267,-156.292 40.449,-269.093 90.901,-377.231 75.91,-162.705 166.463,-251.224 346.046,-338.276 94.41,-45.764 139.7096,-58.326 295.3826,-81.907 122.481,-18.553 212.144,-40.512 255.292,-62.525 39.394,-20.097 87.438,-61.746 116.029,-100.583 58.734,-79.786 100.302,-222.987 104.389,-359.625 3.334,-111.438 49.483,-473.449 74.926,-587.742 24.922,-111.954 78.641,-242.041 135.034,-327 31.187,-46.987 107.4306,-116.007 147.8526,-133.846 24.136,-10.652 37.656,-21.407 46.729,-37.172 19.474,-33.836 69.196,-86.581 109.893,-116.571 43.748,-32.24 79.235,-44.686 99.6,-34.933 7.699,3.687 19.107,8.348 25.351,10.358 10.932,3.519 11.192,42.65 6.982,1050.116 -3.511,839.784 -5.982,1049.643 -12.514,1062.572 -14.37,28.444 -59.399,63.078 -118.263,90.962 -59.782,28.319 -92.398,37.31 -372.4466,102.669 -280.508,65.466 -456.2,124.738 -585.182,197.421 -123.585,69.642 -168.907,139.11 -181.331,277.937 -2.516,28.118 -1.258,63.108 3.139,87.306 9.497,52.267 3.952,57.186 -62.1306,55.111 -26.012,-0.816 -150.446,-2.258 -276.522,-3.204 z m 298.799,-122.025 c 0.875,-97.135 15.5546,-153.586 55.6456,-213.985 54.5,-82.109 196.252,-162.766 409.725,-233.138 85.341,-28.132 315.488,-87.682 453.605,-117.37 104.9846,-22.565 168.3356,-40.115 216.9606,-60.101 47.487,-19.518 114.306,-62.776 120.037,-77.711 2.111,-5.501 5.745,-473.006 8.076,-1038.899 3.298,-800.895 2.567,-1028.897 -3.303,-1028.897 -19.769,0 -64.673,31.159 -107.902,74.874 -99.806,100.925 -139.53,234.48 -171.15,575.422 -5.246,56.563 -9.538,117.456 -9.538,135.316 0,35.084 -9.678,49.614 -28.291,42.471 -10.1816,-3.906 -10.7736,-11.608 -7.1036,-92.393 8.8206,-194.179 35.2076,-385.195 67.7796,-490.647 6.758,-21.882 11.296,-40.776 10.083,-41.989 -4.538,-4.538 -59.051,43.058 -83.8856,73.244 -55.043,66.903 -111.663,186.269 -143.112,301.707 -32.773,120.299 -62.318,331.261 -81.591,582.598 -10.876,141.828 -21.065,208.437 -41.632,272.163 -41.298,127.957 -108.368,213.885 -204.965,262.595 -53.724,27.091 -113.414,43.205 -222.435,60.05 -203.25,31.402 -232.224,39.024 -331.6006,87.227 -166.321,80.674 -242.019,153.991 -316.43,306.478 -69.629,142.688 -93.434,260.779 -98.008,486.189 -1.725,85.004 -1.225,167.303 1.111,182.884 l 4.249,28.331 135.717,1.814 c 74.644,0.997 187.802,2.452 251.463,3.232 l 115.748,1.418 z m 346.5276,-595.887 c -16.093,-19.389 5.124,-136.09 37.87,-208.312 59.189,-130.538 175.943,-228.183 315.596,-263.943 l 43.796,-11.216 4.409,-55.473 c 13.975,-175.822 51.325,-423.253 77.553,-513.758 25.427,-87.742 59.663,-147.221 117.9516,-204.918 45.764,-45.298 119.793,-96.977 138.919,-96.977 4.133,0 12.388,4.871 18.342,10.826 10.046,10.045 10.529,29.052 6.704,263.803 -2.268,139.138 -4.123,325.62 -4.123,414.404 0,153.088 -0.626,161.761 -12.079,167.891 -9.091,4.866 -14.467,4.077 -21.733,-3.189 -8.582,-8.582 -9.21,-53.48 -5.658,-404.503 l 3.994,-394.849 -21.143,11.912 c -11.629,6.552 -44.094,34.436 -72.144,61.965 -80.4666,78.972 -109.0086,151.789 -146.3696,373.425 -18.025,106.934 -42.266,306.268 -45.469,373.901 l -1.614,34.07 -41.567,7.645 c -132.781,24.419 -247.661,111.889 -308.304,234.745 -29.047,58.848 -47.113,124.345 -47.315,171.542 -0.157,36.091 -19.895,52.363 -37.616,31.009 z m -1614.2406,-1288.144 c 0,-15.704 9.196,-21.097 61.271,-35.922 23.064,-6.566 28.27,-6.238 36.832,2.324 15.618,15.619 5.745,27.735 -31.394,38.532 -50.196,14.593 -66.709,13.371 -66.709,-4.934 z m 146.471,-24.984 c -7.522,-19.604 2.874,-26.717 67.164,-45.953 90.975,-27.223 96.547,-28.144 105.437,-17.434 14.244,17.164 1.123,26.859 -63.539,46.948 -85.641,26.606 -104.092,29.387 -109.062,16.439 z m -176.56,-43.033 c -30.631,-82.345 -35.527,-104.431 -25.393,-114.564 16.837,-16.838 28.217,-3.443 48.33,56.893 24.471,73.406 25.317,90.518 4.473,90.518 -12.604,0 -17.273,-5.596 -27.41,-32.847 z m 59.201,3.58 c -20.132,-69.523 -123.705,-466.204 -122.044,-467.427 3.232,-2.38 452.509,-121.825 453.664,-120.61 2.666,2.804 127.654,475.043 126.036,476.2 -1.034,0.74 -100.422,27.583 -220.862,59.651 -120.44,32.068 -222.246,59.493 -226.237,60.946 -3.991,1.453 -8.741,-2.488 -10.557,-8.76 z m 340.029,-23.914 c -12.693,-15.294 2.555,-26.624 58.998,-43.841 59.392,-18.115 71.446,-19.082 76.415,-6.133 6.026,15.704 -8.808,26.557 -59.26,43.36 -55.699,18.549 -65.539,19.403 -76.153,6.614 z m 154.194,-80.202 c -11.402,-8.695 -36.272,-94.604 -31.208,-107.803 1.917,-4.993 10.022,-9.079 18.013,-9.079 12.292,0 16.152,5.537 25.077,35.976 16.283,55.53 18.422,80.388 7.287,84.661 -5.211,2 -13.837,0.306 -19.169,-3.755 z m -604.852,-79.68 c -5.236,-9.784 -24.366,-65.936 -24.778,-72.731 -0.392,-6.465 21.146,-19.45 27.939,-16.843 10.781,4.137 37.134,80.436 32.212,93.262 -5.171,13.473 -27.431,11.152 -35.373,-3.688 z m 552.402,-101.332 c -9.561,-12.159 -34.756,-122.277 -30.51,-133.343 2.266,-5.904 9.392,-9.068 17.728,-7.87 11.939,1.715 16.419,10.987 31.201,64.569 9.493,34.411 15.713,67.493 13.821,73.515 -3.983,12.681 -23.258,14.552 -32.24,3.129 z m -600.71,-50.053 c -9.618,-12.085 -34.403,-101.483 -31.834,-114.823 1.496,-7.77 7.533,-11.874 17.466,-11.874 13.736,0 16.823,5.522 32.476,58.105 9.513,31.959 15.717,62.225 13.784,67.259 -4.298,11.201 -23.402,12 -31.892,1.333 z m 550.206,-137.779 c -8.91,-10.736 -26,-82.409 -26.122,-109.554 -0.106,-23.027 14.738,-33.487 27.566,-19.429 9.598,10.517 31.025,104.351 27.733,121.446 -2.863,14.864 -19.525,19.167 -29.177,7.537 z m -545.514,-44.963 c 0,-13.71 4.913,-16.797 45.361,-28.492 24.948,-7.214 52.874,-15.554 62.058,-18.533 22.786,-7.391 42.725,6.539 32.72,22.859 -7.814,12.746 -88.805,39.454 -119.804,39.508 -17.435,0 -20.335,-2.157 -20.335,-15.342 z m 177.523,-31.353 c -18.712,-13.682 -4.909,-27.049 42.687,-41.339 65.822,-19.763 97.612,-22.617 102.751,-9.224 5.945,15.492 -7.882,25.196 -53.926,37.845 -72.056,19.796 -80.272,20.938 -91.512,12.718 z m 193.881,-56.504 c -7.199,-18.76 3.775,-26.298 54.125,-37.177 46.055,-9.95 52.298,-10.105 60.886,-1.518 16.587,16.587 4.574,27.631 -41.439,38.097 -54.566,12.41 -68.995,12.527 -73.572,0.601 z m -293.785,-143.182 c -2.167,-5.646 -0.454,-14.464 3.805,-19.595 14.547,-17.529 207.593,-71.265 227.952,-63.453 6.559,2.517 9.827,9.337 8.587,17.918 -1.765,12.204 -13.556,17.074 -98.981,40.885 -127.589,35.564 -136.437,37.082 -141.363,24.245 z m -80.364,-18.029 c -14.245,-21.738 -28.482,-66.279 -24.502,-76.651 4.337,-11.3 23.512,-12.182 31.644,-1.454 14.969,19.747 31.411,71.91 25.816,81.907 -8.127,14.522 -22.001,12.922 -32.958,-3.802 z m -195.72,-785.232 -257.903,-724.075 -144.282,-540.479 c -79.355,-297.263 -143.49,-541.258 -142.521,-542.212 3.161,-3.111 448.131,-121.709 456.559,-121.686 5.572,0.01 55.692,177.634 156.684,555.275 l 148.492,555.253 137.748,736.86 c 75.763,405.273 137.75,739.133 137.75,741.911 0,4.573 -213.545,63.879 -228.367,63.422 -3.441,-0.107 -122.313,-326.027 -264.16,-724.269 z m 131.343,628.92 c -11.618,-14.926 -64.267,-167.37 -64.267,-186.087 0,-15.618 2.518,-18.818 14.807,-18.818 12.9,0 17.411,7.046 35.045,54.746 42.609,115.252 49.995,138.862 46.385,148.27 -4.476,11.663 -23.486,12.786 -31.97,1.889 z m 412.961,0 c -6.867,-8.858 -28.518,-127.746 -29.34,-161.109 -0.438,-17.858 1.754,-21.898 11.89,-21.898 7.492,0 15.821,7.078 20.971,17.822 10.148,21.174 32.429,152.862 27.871,164.737 -4.016,10.466 -23.409,10.743 -31.392,0.451 z m -57.777,-250.266 c -8.124,-19.954 -40.26,-209.276 -40.623,-239.315 -0.256,-21.295 1.796,-25.325 13.766,-27.025 10.043,-1.426 15.665,2.205 19.653,12.695 8.82,23.199 45.414,250.025 41.84,259.34 -5.217,13.594 -28.33,9.794 -34.636,-5.695 z m -468.739,-75.079 c -26.346,-61.972 -52.069,-142.567 -48.483,-151.91 2.344,-6.11 9.38,-9.287 17.877,-8.072 11.682,1.67 18.969,14.991 43.824,80.113 34.832,91.259 36.824,106.46 13.95,106.46 -12.719,0 -18.105,-5.271 -27.168,-26.591 z m 403.994,-253.035 c -5.515,-8.98 -54.388,-222.766 -54.388,-237.913 0,-17.884 16.465,-25.517 28.684,-13.298 10.086,10.086 60.483,219.534 57.628,239.5 -1.85,12.936 -25.779,21.714 -31.924,11.711 z m -482.493,-28.513 c -17.427,-26.664 -60.576,-137.645 -58.681,-150.929 1.301,-9.121 6.381,-13.307 16.147,-13.307 12.299,0 18.982,11.027 48.843,80.591 19.028,44.326 33.116,84.446 31.309,89.156 -5.121,13.346 -27.43,10.078 -37.618,-5.511 z m 898.171,-113.987 c -35.756,-8.648 -50.496,-21.434 -34.821,-30.207 5.075,-2.84 14.777,-3.402 21.561,-1.249 6.784,2.153 19.323,5.182 27.865,6.731 28.647,5.194 47.142,14.757 47.142,24.374 0,11.465 -15.433,11.553 -61.747,0.35 z m 83.151,-11.741 c -3.253,-8.478 -1.371,-23.76 6.902,-56.027 6.23,-24.305 25.117,-20.279 24.216,5.162 -1.27,35.877 -9.879,59.282 -21.805,59.282 -3.346,0 -7.537,-3.788 -9.313,-8.417 z m -190.996,-19.358 c -1.511,-1.512 -9.722,-4.02 -18.248,-5.576 -39.604,-7.226 -67.712,-17.665 -71.061,-26.392 -5.791,-15.09 10.5,-16.964 49.332,-5.675 19.749,5.741 39.083,10.922 42.966,11.514 3.883,0.588 10.578,3.273 14.88,5.96 4.302,2.687 7.864,2.608 7.916,-0.175 0.119,-6.2 12.188,11.825 12.322,18.4 0.1,4.947 -33.395,6.657 -38.107,1.945 z m -8.722,-46.015 c -79.146,-18.955 -144.626,-34.995 -145.511,-35.648 -1.41,-1.039 62.946,-271.854 70.778,-297.835 2.611,-8.658 22.211,-5.316 148.362,25.301 142.95,34.694 145.317,35.532 143.171,50.645 -3.377,23.784 -63.206,270.614 -68.341,281.943 -4.027,8.887 -21.278,6.051 -148.459,-24.406 z m -158.292,-5.537 c -44.867,-15.872 -24.812,-33.863 23.304,-20.906 18.826,5.069 25.497,10.076 25.497,19.137 0,14.643 -11.253,15.05 -48.801,1.769 z m 386.681,-42.651 c -5.423,-6.535 -4.51,-18.154 3.781,-48.117 11.631,-42.033 19.229,-52.074 31.624,-41.788 5.621,4.665 5.98,10.884 1.334,23.105 -3.497,9.196 -6.239,18.128 -6.094,19.849 0.144,1.72 -1.397,13.512 -3.426,26.204 -4.028,25.189 -15.975,34.295 -27.219,20.747 z m -403.757,-1.687 c -6.852,-4.891 -6.933,-14.695 -0.45,-54.649 6.413,-39.539 10.31,-47.793 21.505,-45.545 11.03,2.216 11.889,11.369 5.845,62.26 -4.767,40.139 -11.166,49.164 -26.897,37.934 z m -708.49,-46.828 c -12.211,-15.075 -64.561,-150.674 -61.375,-158.977 4.055,-10.567 25.044,-10.923 33.468,-0.569 12.516,15.384 64.722,150.185 61.458,158.689 -4.146,10.804 -25.06,11.337 -33.551,0.855 z m 519.486,-24.758 c -8.879,-10.893 -52.947,-202.566 -50.503,-219.656 2.002,-13.992 21.177,-22 30.395,-12.695 7.63,7.703 50.968,206.196 48.617,222.671 -2.288,16.032 -18.769,21.628 -28.509,9.68 z m 622.11,-46.498 c -6.66,-6.66 -5.252,-21.957 5.282,-57.433 7.609,-25.618 12.366,-32.419 22.681,-32.419 11.445,0 12.518,2.504 8.715,20.334 -2.387,11.183 -5.701,27.372 -7.366,35.975 -3.462,17.885 -22.818,40.036 -29.312,33.543 z m -404.344,-14.379 c -13.13,-8.308 -1.626,-64.388 13.653,-66.556 13.013,-1.846 15.444,15.372 7.579,53.649 -1.061,5.161 -2.144,11.496 -2.408,14.077 -0.635,6.232 -7.834,5.785 -18.824,-1.17 z m 375.323,-107.521 c -34.756,-12.053 -47.787,-23.124 -38.338,-32.573 7.09,-7.09 76.111,15.063 80.209,25.743 6.223,16.217 -8.078,18.549 -41.871,6.83 z m -356.227,1.36 c -7.656,-4.848 -6.449,-36.665 2.692,-70.982 0.688,-2.581 1.602,-7.508 2.032,-10.949 0.432,-3.442 6.677,-6.257 13.882,-6.257 12.25,0 12.829,2.312 8.933,35.666 -3.481,29.806 -12.148,58.474 -17.561,58.088 -0.738,-0.06 -5.23,-2.557 -9.978,-5.566 z m 225.899,-41.317 c -35.869,-8.754 -51.464,-18.486 -51.464,-32.115 0,-8.877 15.596,-7.341 48.489,4.775 7.742,2.852 14.077,3.503 14.077,1.446 0,-2.057 4.223,-0.238 9.385,4.049 5.162,4.284 9.385,5.972 9.385,3.751 0,-2.222 7.014,0.557 15.588,6.175 16.609,10.882 15.615,21.81 -1.88,20.666 -5.819,-0.382 -25.43,-4.317 -43.58,-8.747 z m -1079.898,-28.886 c -5.123,-7.314 -19.877,-45.409 -32.787,-84.656 -21.553,-65.525 -22.651,-72.18 -13.424,-81.407 5.527,-5.527 14.026,-8.522 18.887,-6.657 10.29,3.948 69.65,170.754 64.012,179.877 -6.584,10.653 -27.004,6.67 -36.688,-7.157 z m 952.787,-11.005 c -43.918,-14.145 -49.745,-17.796 -45.607,-28.578 3.815,-9.94 19.044,-8.182 67,7.732 19.641,6.518 32.356,14.392 32.356,20.037 0,13.396 -14.014,13.607 -53.749,0.809 z m -393.41,-46.084 c -3.19,-7.743 -14.504,-57.292 -25.144,-110.111 -19.708,-97.835 -19.209,-113.563 3.602,-113.563 13.206,0 18.898,16.208 36.254,103.234 18.229,91.398 20.945,115.816 14.109,126.876 -7.542,12.203 -22.521,8.859 -28.821,-6.436 z m 584.804,-42.397 c -73.431,-19.983 -111.564,-33.884 -114.075,-41.585 -3.846,-11.794 23.769,-12.564 60.894,-1.699 18.927,5.539 36.523,10.543 39.104,11.119 2.581,0.575 5.396,1.256 6.257,1.512 0.86,0.256 8.314,1.709 16.566,3.23 25.137,4.633 47.296,17.702 49.51,29.2 2.584,13.417 -3.056,13.245 -58.256,-1.777 z m 111.879,-40.177 c -5.754,-14.995 31.302,-112.522 43.684,-114.968 15.628,-3.088 12.33,32.242 -7.445,79.754 -17.141,41.182 -29.384,53.079 -36.239,35.214 z m -157.156,-20.623 c -58.584,-14.388 -63.79,-16.861 -61.043,-28.999 1.651,-7.299 35.512,-222.834 75.245,-478.967 l 72.242,-465.697 84.275,-350.792 c 46.352,-192.936 85.42,-353.923 86.817,-357.751 4.035,-11.05 297.532,60.61 297.561,72.653 0,5.162 -37.955,166.762 -84.371,359.112 l -84.393,349.727 -148.481,458.941 c -133.157,411.575 -149.788,458.867 -161.143,458.221 -6.964,-0.396 -41.483,-7.798 -76.709,-16.448 z m -108.099,-11.093 c -7.118,-8.578 -5.458,-45.294 2.641,-58.399 2.258,-3.653 8.359,-5.01 13.559,-3.015 7.021,2.695 8.982,11.46 7.62,34.068 -1.903,31.613 -11.313,42.415 -23.82,27.346 z m -1062.131,-48.382 c -9.685,-11.867 -45.202,-129.982 -45.202,-150.326 0,-15.533 2.103,-17.611 16.077,-15.89 14.627,1.801 18.284,8.749 40.566,77.059 13.468,41.294 22.937,80.007 21.041,86.028 -3.995,12.688 -23.172,14.535 -32.482,3.129 z m 1067.736,-68.823 c -1.035,-10.921 -1.061,-10.539 3.169,-45.361 9.031,-74.323 14.53,-91.991 27.825,-89.411 11.444,2.22 11.86,7.806 5.026,67.513 -7.708,67.344 -10.104,75.08 -23.263,75.08 -6.609,0 -12.35,-3.52 -12.757,-7.821 z m 303.665,-6.924 c -3.341,-8.707 44.077,-159.573 52.941,-168.438 9.502,-9.502 26.39,2.504 22.18,15.768 -2.191,6.901 -4.665,15.718 -5.499,19.594 -0.833,3.876 -3.12,11.27 -5.08,16.432 -1.961,5.161 -12.626,35.428 -23.7,67.258 -19.095,54.888 -32.508,71.106 -40.842,49.386 z m -795.761,-80.669 c -9.478,-11.669 -57.746,-169.315 -57.746,-188.603 0,-19.44 15.895,-28.26 28.101,-15.592 11.291,11.717 65.906,191.812 61.584,203.074 -4.23,11.025 -23.349,11.696 -31.939,1.121 z m -638.694,-80.881 c -11.999,-32.442 -33.676,-142.439 -29.971,-152.092 2.451,-6.388 9.369,-9.582 18.077,-8.345 12.506,1.775 16.154,10.454 32.185,76.56 18.596,76.685 17.859,91.96 -4.655,96.391 -6.15,1.21 -12.414,-3.803 -15.636,-12.514 z m 1170.286,-35.547 c -8.037,-5.097 -7.598,-21.147 2.499,-91.472 4.291,-29.891 6.79,-34.544 18.553,-34.544 7.521,0 11.313,9.217 10.296,25.027 -1.75,27.222 -8.884,87.073 -11.371,95.413 -3.614,12.119 -7.813,13.291 -19.977,5.576 z m 331.679,-14.605 c -4.479,-4.479 -3.832,-14.013 2.089,-30.794 4.717,-13.369 7.417,-24.307 6.002,-24.307 -1.415,0 1.57,-11.742 6.633,-26.093 5.064,-14.35 10.678,-34.447 12.477,-44.658 4.532,-25.725 14.744,-43.111 23.546,-40.089 13.3,4.567 7.514,49.983 -14.532,114.057 -7.086,20.598 -12.794,38.155 -12.684,39.015 1.889,14.685 -13.37,23.03 -23.531,12.869 z m -3123.347,-155.124 c -5.162,-2.99 -14.495,-7.029 -20.739,-8.976 -10.932,-3.407 -11.191,-42.507 -6.981,-1049.999 3.509,-839.784 5.981,-1049.643 12.513,-1062.573 14.37,-28.443 59.399,-63.077 118.264,-90.961 59.782,-28.319 92.398,-37.31 372.446,-102.669 280.509,-65.467 456.2,-124.739 585.182,-197.421 123.585,-69.642 168.907,-139.11 181.331,-277.937 2.5,-27.934 1.263,-63.084 -3.056,-86.855 -5.352,-29.446 -5.419,-41.766 -0.256,-46.924 10.031,-10.025 563.287,-5.653 573.815,4.533 17.333,16.772 25.603,229.161 14.168,363.869 -13.268,156.292 -40.449,269.093 -90.902,377.232 -75.909,162.705 -166.461,251.223 -346.046,338.276 -94.409,45.764 -139.709,58.326 -295.382,81.906 -122.481,18.553 -212.144,40.513 -255.292,62.526 -136.171,69.469 -209.663,229.886 -222.3,485.234 -6.835,138.112 -46.263,442.414 -72.724,561.28 -25.129,112.881 -78.669,243.036 -134.695,327.443 -37.81,56.964 -125.745,133.017 -166.382,143.902 -8.575,2.296 -23.633,18.184 -36.496,38.505 -27.872,44.033 -97.581,109.004 -139.215,129.751 -33.29,16.59 -51.123,19.204 -67.253,9.858 z m 51.866,-50.953 c 14.488,-7.331 47.797,-35.026 74.021,-61.544 99.805,-100.925 139.529,-234.481 171.149,-575.423 5.246,-56.563 9.538,-117.455 9.538,-135.315 0,-35.084 9.679,-49.614 28.292,-42.472 10.181,3.907 10.774,11.608 7.103,92.393 -8.821,194.18 -35.209,385.195 -67.779,490.648 -6.759,21.881 -11.297,40.776 -10.085,41.989 4.54,4.538 59.052,-43.058 83.887,-73.244 55.043,-66.903 111.663,-186.269 143.112,-301.707 32.94,-120.912 61.096,-322.814 81.682,-585.726 10.91,-139.334 21.209,-206.038 41.541,-269.035 41.298,-127.957 108.368,-213.885 204.965,-262.595 53.725,-27.091 113.415,-43.206 222.435,-60.05 203.249,-31.403 232.224,-39.025 331.601,-87.227 166.322,-80.674 242.019,-153.991 316.43,-306.478 41.074,-84.173 61.997,-150.849 82.263,-262.158 12.044,-66.152 13.817,-98.024 14.016,-251.945 0.125,-96.918 -1.18,-177.528 -2.901,-179.135 -1.72,-1.607 -115.747,-4.944 -253.392,-7.417 l -250.265,-4.495 -0.747,83.524 c -0.875,97.829 -15.46,154.083 -55.646,214.626 -54.501,82.108 -196.253,162.766 -409.726,233.137 -85.341,28.133 -315.488,87.683 -453.605,117.371 -104.984,22.565 -168.336,40.114 -216.961,60.1 -47.487,19.519 -114.306,62.777 -120.037,77.712 -2.111,5.501 -5.745,473.005 -8.076,1038.899 -3.298,800.895 -2.566,1028.897 3.303,1028.897 4.147,0 19.394,-5.998 33.882,-13.33 z m 125.9,-817.113 c -10.045,-10.046 -10.529,-29.052 -6.703,-263.803 2.267,-139.138 4.122,-325.62 4.122,-414.405 0,-153.087 0.624,-161.76 12.079,-167.89 9.091,-4.866 14.467,-4.077 21.732,3.189 8.583,8.582 9.211,53.48 5.66,404.503 l -3.995,394.849 21.143,-11.912 c 11.629,-6.552 44.094,-34.437 72.144,-61.966 80.467,-78.971 109.009,-151.789 146.37,-373.425 18.025,-106.933 42.266,-306.268 45.469,-373.9 l 1.614,-34.071 41.567,-7.644 c 89.938,-16.54 167.073,-58.799 232.821,-127.555 70.336,-73.553 111.222,-161.897 121.371,-262.245 5.153,-50.961 16.458,-66.761 36.101,-50.459 19.95,16.557 0.777,132.528 -34.928,211.275 -59.189,130.537 -175.943,228.183 -315.596,263.943 l -43.796,11.215 -4.409,55.474 c -13.975,175.822 -51.325,423.253 -77.552,513.757 -25.427,87.743 -59.664,147.223 -117.953,204.918 -45.764,45.299 -119.794,96.978 -138.919,96.978 -4.134,0 -12.387,-4.872 -18.342,-10.826 z m 4635.1422,858.208 c -41.632,-20.747 -111.342,-85.718 -139.213,-129.751 -12.864,-20.321 -27.921,-36.209 -36.496,-38.505 -40.638,-10.885 -128.5726,-86.938 -166.3826,-143.902 -55.735,-83.969 -109.569,-214.574 -134.375,-326.007 -25.442,-114.294 -71.592,-476.304 -74.925,-587.743 -4.088,-136.637 -45.655,-279.838 -104.39,-359.624 -28.591,-38.837 -76.634,-80.486 -116.029,-100.583 -43.148,-22.013 -132.811,-43.973 -255.292,-62.526 -155.672,-23.58 -200.9726,-36.142 -295.3816,-81.906 -179.584,-87.053 -270.137,-175.571 -346.046,-338.276 -50.453,-108.139 -77.634,-220.94 -90.901,-377.232 -11.436,-134.708 -3.166,-347.097 14.168,-363.869 10.527,-10.186 563.7826,-14.558 573.8146,-4.533 5.162,5.158 5.095,17.478 -0.257,46.924 -12.722,70.021 0.532,161.654 33.188,229.416 60.817,126.202 287.304,229.416 730.269,332.797 280.0476,65.359 312.6646,74.35 372.4456,102.669 58.865,27.884 103.894,62.518 118.264,90.961 6.532,12.93 9.003,222.789 12.513,1062.573 4.21,1007.491 3.951,1046.593 -6.981,1050.005 -6.244,1.949 -16.243,6.154 -22.218,9.344 -17.157,9.159 -31.266,6.965 -65.775,-10.232 z m 52.573,-1056.662 c -2.331,-565.894 -5.965,-1033.398 -8.075,-1038.899 -5.732,-14.935 -72.55,-58.193 -120.037,-77.712 -48.625,-19.986 -111.977,-37.535 -216.9616,-60.1 -495.55,-106.515 -777.305,-220.906 -863.33,-350.508 -40.186,-60.543 -54.7706,-116.797 -55.6456,-214.626 l -0.747,-83.524 -250.265,4.495 c -137.645,2.473 -251.672,5.81 -253.393,7.417 -1.721,1.607 -3.026,82.217 -2.901,179.135 0.201,153.921 1.972,185.793 14.017,251.945 20.265,111.309 41.188,177.985 82.262,262.158 74.412,152.487 150.109,225.804 316.431,306.478 99.377,48.202 128.3506,55.824 331.5996,87.227 109.021,16.844 168.711,32.959 222.435,60.05 96.597,48.71 163.667,134.638 204.965,262.595 20.332,62.997 30.632,129.701 41.542,269.035 20.585,262.912 48.741,464.814 81.681,585.726 31.449,115.438 88.07,234.804 143.112,301.707 24.8346,30.186 79.3476,77.782 83.8866,73.244 1.212,-1.213 -3.325,-20.108 -10.084,-41.989 -32.571,-105.453 -58.9576,-296.468 -67.7796,-490.648 -3.67,-80.785 -3.078,-88.486 7.104,-92.393 18.6126,-7.142 28.2906,7.388 28.2906,42.472 0,39.328 15.552,210.134 28.519,313.237 13.12,104.307 47.142,232.73 78.59,296.648 37.789,76.804 137.726,174.125 180.167,175.451 7.617,0.238 8.263,-143.497 4.617,-1028.621 z m -229.361,185.817 c -22.23,-12.904 -63.173,-45.985 -90.9846,-73.515 -58.289,-57.695 -92.525,-117.175 -117.952,-204.918 -26.228,-90.504 -63.577,-337.935 -77.552,-513.757 l -4.409,-55.474 -43.796,-11.215 c -197.311,-50.525 -337.278,-216.169 -356.918,-422.399 -3.532,-37.09 -2.524,-45.417 6.393,-52.819 19.644,-16.302 30.948,-0.502 36.102,50.459 10.148,100.348 51.035,188.692 121.371,262.245 65.748,68.756 142.882,111.015 232.82,127.555 l 41.567,7.644 1.614,34.071 c 3.203,67.632 27.444,266.967 45.469,373.9 37.361,221.636 65.903,294.454 146.3696,373.425 28.051,27.529 60.516,55.414 72.144,61.966 l 21.144,11.912 -3.995,-394.849 c -3.551,-351.023 -2.923,-395.921 5.659,-404.503 7.266,-7.266 12.641,-8.055 21.732,-3.189 11.456,6.13 12.08,14.803 12.08,167.89 0,88.785 1.854,275.267 4.122,414.405 3.825,234.751 3.342,253.757 -6.704,263.803 -15.027,15.027 -20.378,14.007 -66.276,-12.637 z m -2463.0062,854.298 c -3.391,-4.449 -16.707,-47.205 -29.59,-95.012 -20.027,-74.321 -22.158,-88.188 -14.702,-95.644 13.866,-13.866 28.309,-3.263 38.495,28.261 18.146,56.158 35.673,134.157 33.787,150.362 -2.083,17.904 -18.224,24.843 -27.99,12.033 z m 661.558,1.69 c -6.228,-3.942 -8.515,-15.445 -7.498,-37.723 3.364,-73.726 11.455,-98.44 27.103,-82.792 6.782,6.782 7.107,22.185 1.744,82.581 -0.763,8.603 -1.752,21.976 -2.196,29.719 -0.871,15.21 -5.178,17.057 -19.153,8.215 z m -1263.765,-21.696 c -10.197,-12.286 -31.779,-90.223 -31.779,-114.76 0,-17.381 2.22,-20.354 15.198,-20.354 12.957,0 16.597,4.842 24.689,32.847 20.553,71.127 24.605,90.758 20.787,100.706 -4.857,12.657 -19.05,13.424 -28.895,1.561 z m 1621.005,-11.862 c -5.401,-6.508 -5.78,-13.797 -1.325,-25.513 3.43,-9.022 5.023,-16.403 3.54,-16.403 -1.483,0 1.422,-11.669 6.453,-25.931 5.032,-14.263 10.279,-31.859 11.661,-39.104 4.166,-21.855 15.535,-47.584 21.025,-47.584 14.853,0 18.879,14.618 10.537,38.26 -4.717,13.368 -6.948,24.306 -4.959,24.306 1.99,0 0.113,4.223 -4.171,9.385 -4.284,5.162 -6.162,9.385 -4.172,9.385 1.989,0 -0.269,11.007 -5.014,24.461 -4.747,13.453 -7.63,25.461 -6.407,26.684 1.223,1.222 -2.689,8.735 -8.692,16.694 -9.357,12.406 -11.994,13.171 -18.476,5.36 z m -335.279,-178.03 c -1.917,-6.041 -2.247,-17.414 -0.733,-25.275 1.514,-7.861 3.38,-29.801 4.147,-48.756 1.488,-36.774 4.719,-42.422 20.756,-36.268 8.726,3.349 9.568,11.434 6.032,57.894 -2.26,29.701 -5.329,56.113 -6.819,58.694 -5.048,8.743 -19.878,4.754 -23.383,-6.289 z m 388.985,-5.185 c -2.01,-2.009 1.593,-18.902 8.005,-37.54 6.412,-18.637 10.058,-33.886 8.101,-33.886 -1.956,0 -0.649,-3.519 2.906,-7.821 3.554,-4.301 8.417,-18.279 10.805,-31.06 5.013,-26.829 18.732,-41.773 28.959,-31.547 5.899,5.9 5.32,12.816 -4.456,53.222 -0.625,2.581 -1.696,5.397 -2.382,6.257 -0.686,0.86 -2.363,7.472 -3.726,14.694 -8.359,44.262 -34.68,81.213 -48.212,67.681 z m -1736.252,-10.424 c -8.631,-10.768 -39.06,-119.07 -39.06,-139.019 0,-18.943 16.102,-27.678 27.878,-15.124 10.648,11.352 48.754,142.635 44.568,153.545 -4.065,10.593 -25.074,10.969 -33.386,0.598 z m 600.822,-24.258 c -10.265,-10.265 -48.118,-171.065 -43.254,-183.741 2.433,-6.339 9.372,-9.526 18.057,-8.293 12.47,1.77 16.441,11.068 34.257,80.21 11.084,43.015 19.531,86.632 18.77,96.927 -1.481,20.046 -15.29,27.437 -27.83,14.897 z m 774.875,-129.991 c -6.801,-4.307 -7.557,-14.544 -3.576,-48.393 4.875,-41.448 5.729,-46.835 9.03,-57.008 0.838,-2.581 1.29,-6.502 1.006,-8.714 -0.281,-2.211 4.832,-5.419 11.368,-7.129 13.645,-3.568 19.609,7.206 15.541,28.074 -1.539,7.898 -4.218,23.51 -5.952,34.694 -1.733,11.184 -4.687,30.188 -6.563,42.232 -3.569,22.902 -6.607,25.268 -20.854,16.244 z m 433.075,-41.617 c -4.15,-10.814 7.986,-94.143 17.819,-122.348 3.466,-9.943 8.743,-18.079 11.726,-18.079 5.988,0 19.308,21.966 15.626,25.768 -1.271,1.312 -4.212,13.648 -6.535,27.413 -2.324,13.764 -4.947,27.842 -5.831,31.283 -0.883,3.441 -3.794,19.63 -6.467,35.975 -4.896,29.93 -18.547,40.29 -26.338,19.988 z m -1883.058,-41.886 c -13.69,-26.46 -27.172,-77.508 -27.266,-103.234 -0.06,-17.453 2.107,-20.334 15.326,-20.334 12.824,0 16.598,4.448 22.56,26.591 3.937,14.625 12.371,43.34 18.742,63.812 8.43,27.088 9.745,39.438 4.829,45.361 -11.206,13.503 -23.088,9.265 -34.191,-12.196 z m 602.128,-47.39 c -5.506,-8.91 -47.603,-176.338 -47.603,-189.329 0,-17.594 17.671,-22.265 30.869,-8.158 12.437,13.295 53.647,179.076 48.105,193.52 -3.738,9.742 -26.057,12.564 -31.371,3.967 z m 872.548,-22.482 c -6.242,-7.52 -6.357,-18.543 -0.551,-52.945 8.864,-52.551 19.041,-69.922 33.792,-57.679 5.496,4.561 7.992,11.493 5.545,15.405 -5.103,8.16 -6.319,14.149 -11.602,57.165 -4.603,37.473 -15.269,52.407 -27.181,38.054 z m 452.927,-91.642 c -3.263,-5.278 -0.145,-32.447 6.411,-55.903 0.482,-1.721 4.452,-19.479 8.824,-39.463 6.171,-28.205 10.284,-35.89 18.381,-34.348 13.646,2.6 16.63,26.376 7.242,57.71 -4.139,13.814 -8.768,31.97 -10.287,40.347 -5.719,31.536 -20.919,47.276 -30.571,31.657 z m -1911.081,-15.155 c -4.248,-5.118 -6.184,-13.315 -4.304,-18.215 3.767,-9.817 155.982,-60.073 181.946,-60.073 18.38,0 22.677,18.158 7.315,30.907 -7.531,6.251 -161.504,56.591 -173.308,56.662 -2.16,0.01 -7.401,-4.164 -11.649,-9.281 z m 1491.832,-47.499 c -3.846,-6.224 1.818,-34.588 17.082,-85.534 4.303,-14.361 9.866,-20.335 18.939,-20.335 11.433,0 12.377,2.583 8.577,23.463 -4.857,26.689 -8.489,42.232 -9.867,42.232 -0.519,0 -2.198,6.818 -3.732,15.151 -4.802,26.099 -21.836,39.849 -30.999,25.023 z m -1214.531,-40.659 c -2.083,-5.428 0.117,-13.577 4.889,-18.108 10.573,-10.04 166.369,-47.419 178.398,-42.803 10.804,4.146 11.171,23.312 0.614,32.074 -9.035,7.498 -142.165,38.707 -165.116,38.707 -8.248,0 -16.702,-4.441 -18.785,-9.87 z m 1675.747,-63.114 c -5.505,-9.836 16.099,-108.921 25.881,-118.703 8.596,-8.596 23.338,4.14 20.749,17.926 -10.216,54.404 -28.274,111.195 -35.358,111.195 -2.992,0 -8.066,-4.688 -11.272,-10.418 z m -410.976,-58.597 c -9.021,-14.596 10.151,-93.657 22.71,-93.657 11.205,0 15.791,20.973 10.038,45.9 -11.617,50.333 -21.894,65.32 -32.748,47.757 z m 449.641,-132.761 c 3.683,-28.142 20.806,-96.426 26.481,-105.609 5.178,-8.378 19.672,-6.456 23.336,3.095 1.803,4.697 -3.211,31.533 -11.141,59.636 -17.148,60.767 -15.824,55.479 -15.824,63.212 0,3.441 -5.925,6.256 -13.166,6.256 -11.866,0 -12.823,-2.628 -9.686,-26.59 z m -423.404,-7.231 c -1.986,-5.175 -2.351,-15.872 -0.811,-23.77 1.54,-7.897 4.589,-24.214 6.775,-36.258 5.336,-29.386 13.38,-43.796 24.448,-43.796 8.115,0 11.779,7.173 10.095,19.766 -2.156,16.116 -7.906,42.836 -12.939,60.121 -3.275,11.248 -5.988,22.51 -6.028,25.027 -0.144,9.027 -18.005,8.123 -21.54,-1.09 z m 29.18,-151.128 c -3.061,-7.978 -0.457,-33.835 6.269,-62.187 3.982,-16.79 15.099,-28.354 23.981,-24.945 9.428,3.618 8.631,17.33 -4.179,71.87 -1.212,5.161 -2.42,11.195 -2.683,13.408 -1.102,9.264 -19.97,10.761 -23.388,1.854 z m 320.099,-28.001 c -27.529,-10.152 -50.757,-18.478 -51.617,-18.502 -0.86,-0.02 -1.564,-3.965 -1.564,-8.758 0,-9.84 15.304,-17.691 21.808,-11.187 2.344,2.343 6.842,4.613 9.996,5.043 3.154,0.43 7.143,1.486 8.864,2.346 1.72,0.86 5.943,2.268 9.385,3.129 3.441,0.86 6.96,2.125 7.821,2.811 0.859,0.686 8.557,2.528 17.105,4.094 23.204,4.252 59.732,23.49 58.168,30.634 -2.633,12.03 -30.309,8.704 -79.966,-9.61 z m -193.627,-53.694 c -52.845,-14.193 -69.232,-23.419 -62.099,-34.96 3.672,-5.942 19.798,-3.386 86.57,13.72 54.539,13.973 68.28,22.092 53.356,31.528 -11.87,7.504 -11.306,7.579 -77.827,-10.288 z m -3206.847,6006.057 v -535.979 l -164.236,-160.888 -164.236,-160.888 -1.927,31.565 -1.927,31.565 143.926,144.438 143.926,144.438 -3.366,503.658 -3.368,503.658 24.04,16.974 c 13.222,9.335 24.744,17.078 25.604,17.206 0.86,0.125 1.564,-240.959 1.564,-535.747 z m 5003.1142,-2.091 -3.397,-503.658 143.926,-144.438 143.926,-144.438 -1.926,-31.565 -1.927,-31.565 -164.236,160.888 -164.237,160.888 v 536.384 536.385 l 25.634,-17.612 25.633,-17.611 z m -5094.8632,179.877 c 2.278,-162.593 4.146,-380.151 4.15,-483.462 v -187.836 l -51.944,-51.674 c -28.569,-28.421 -53.908,-49.71 -56.309,-47.308 -2.401,2.401 -4.366,236.12 -4.366,519.375 v 515.009 l 17.206,3.692 c 9.463,2.031 31.283,8.808 48.489,15.061 17.205,6.254 32.935,11.685 34.954,12.07 2.019,0.381 5.535,-132.333 7.814,-294.927 z m 5187.7662,279.844 c 13.765,-4.511 32.769,-9.898 42.232,-11.97 l 17.206,-3.77 v -515.009 c 0,-283.255 -1.964,-516.974 -4.366,-519.375 -2.401,-2.402 -27.74,18.887 -56.31,47.308 l -51.943,51.674 v 187.836 c 0,103.311 1.873,320.993 4.153,483.739 3.736,266.699 5.125,295.5 14.07,291.835 5.458,-2.237 21.186,-7.757 34.951,-12.268 z m -5372.3862,-12.82 30.357,-4.028 4.13,-225.588 c 2.272,-124.074 4.131,-367.664 4.131,-541.313 v -315.726 l -47.515,-47.699 -47.516,-47.7 3.719,359.222 c 2.046,197.572 3.719,466.047 3.719,596.612 0,207.58 1.169,236.942 9.309,233.818 5.12,-1.964 22.969,-5.383 39.666,-7.598 z m 2262.453,-9.927 c -10.107,-10.867 -30.179,-31.983 -44.604,-46.925 l -26.228,-27.165 h -935.728 -935.727 v 40.668 c 0,22.367 0.704,41.163 1.564,41.77 2.282,1.607 1065.621,8.542 1546.556,10.087 l 412.543,1.324 z m 2836.2062,9.622 89.157,-3.677 v -40.018 -40.017 h -935.7276 -935.7266 l -26.228,27.165 c -14.426,14.942 -34.674,36.319 -44.998,47.505 l -18.77,20.339 891.5686,-3.811 c 490.362,-2.095 931.6886,-5.465 980.7246,-7.486 z m 458.298,-226.584 c 0,-130.197 1.673,-398.371 3.718,-595.943 l 3.719,-359.222 -47.515,47.7 -47.515,47.699 v 315.726 c 0,173.649 1.857,417.154 4.127,541.124 l 4.127,225.4 34.976,6.21 c 19.238,3.416 37.089,6.619 39.67,7.118 2.581,0.501 4.693,-105.616 4.693,-235.812 z m -5274.6282,-8142.877 0.297,-543.181 -27.154,22.251 -27.153,22.25 -4.115,145.533 c -2.264,80.043 -4.122,309.584 -4.129,510.092 l -0.01,364.559 -45.361,41.788 c -74.356,68.5 -123.57,120.692 -123.57,131.045 0,6.06 -3.525,8.373 -9.353,6.137 -6.023,-2.311 -30.37,15.83 -68.377,50.948 l -59.023,54.537 -0.447,55.669 -0.445,55.669 184.272,-187.058 184.273,-187.058 0.298,-543.181 z m 5255.1952,754.78 c -36.109,-34.687 -61.76,-54.63 -69.06,-53.694 -6.387,0.82 -11.614,-2.269 -11.614,-6.863 0,-7.756 -5.797,-16.027 -32.042,-45.717 -5.58,-6.312 -38.523,-36.815 -73.207,-67.786 l -63.063,-56.309 -0.325,-366.013 c -0.176,-201.307 -2.175,-431.502 -4.438,-511.545 l -4.115,-145.533 -27.154,-22.25 -27.153,-22.251 0.3,543.181 0.3,543.181 182.703,185.527 182.704,185.528 1.801,-52.137 1.802,-52.136 -57.447,-55.183 z m -5518.2382,-104.445 21.336,-22.224 -3.731,-513.919 c -2.051,-282.655 -4.614,-514.722 -5.694,-515.704 -1.08,-0.982 -29.446,-0.307 -63.035,1.499 l -61.071,3.284 1.202,510.623 c 0.661,280.843 2.296,538.19 3.633,571.883 l 2.43,61.261 41.797,-37.239 c 22.988,-20.482 51.398,-47.24 63.133,-59.464 z m 5580.4972,-536.441 1.107,-510.623 -61.07,-3.284 c -33.589,-1.806 -61.96,-2.475 -63.048,-1.486 -1.087,0.988 -3.643,233.714 -5.68,517.169 l -3.704,515.371 61.99,57.843 61.99,57.842 3.654,-61.104 c 2.009,-33.608 4.152,-290.885 4.761,-571.728 z m -5466.5032,429.53 46.019,-43.554 2.316,-480.439 c 1.273,-264.241 1.265,-480.438 -0.02,-480.438 -1.284,0 -24.829,9.779 -52.323,21.731 l -49.988,21.73 -1.602,504.36 c -0.934,294.196 0.728,503.485 3.988,502.261 3.074,-1.154 26.297,-21.697 51.608,-45.651 z m 5297.0172,-457.144 -1.601,-503.826 -49.989,-21.73 c -27.494,-11.952 -51.039,-21.731 -52.322,-21.731 -1.283,0 -1.292,216.123 0,480.274 l 2.314,480.274 46.88,45.084 c 25.783,24.795 49.007,45.172 51.609,45.281 2.601,0.11 4.009,-226.522 3.128,-503.626 z m -3122.5262,-353.615 c 7.502,-5.318 74.511,-68.387 148.907,-140.155 l 135.267,-130.486 -32.596,-17.825 c -17.927,-9.804 -35.159,-17.825 -38.292,-17.825 -3.134,0 -59.698,48.126 -125.697,106.946 -66,58.821 -126.518,109.499 -134.485,112.62 -8.439,3.304 -415.181,5.672 -974.469,5.672 h -959.983 v 47.325 47.324 l 983.853,-1.964 c 875.218,-1.747 985.36,-3.031 997.495,-11.632 z m 2873.7882,-34.128 v -46.925 h -959.9836 c -559.2866,0 -966.0286,-2.368 -974.4676,-5.672 -7.967,-3.121 -68.485,-53.799 -134.485,-112.62 -65.999,-58.82 -122.563,-106.946 -125.697,-106.946 -3.133,0 -20.365,8.021 -38.293,17.825 l -32.596,17.825 135.267,130.486 c 74.397,71.768 140.337,134.038 146.534,138.378 16.163,11.321 50.635,11.748 1068.6906,13.236 l 915.0306,1.337 z m -3246.2482,-90.721 h 311.697 l 20.432,-19.012 20.433,-19.011 -897.825,3.475 c -493.804,1.912 -935.13,5.125 -980.725,7.14 l -82.9,3.663 v 16.033 16.034 l 648.596,-4.161 c 356.728,-2.289 788.86,-4.161 960.292,-4.161 z m 3246.2482,-8.744 c 0,-14.891 -0.607,-15.027 -82.9,-18.664 -45.595,-2.015 -486.9206,-5.339 -980.7246,-7.386 l -897.8246,-3.723 17.346,17.694 17.346,17.695 533.237,3.197 c 293.2796,1.759 726.7996,3.871 963.3786,4.693 l 430.1416,1.494 z m -5146.0692,-51.238 c 20.646,-4.87 64.279,-21.989 96.961,-38.043 78.611,-38.615 154.79,-112.261 189.837,-183.523 28.539,-58.028 43.841,-127.507 38.138,-173.157 l -4.162,-33.312 h -95.366 -95.365 l -4.031,38.567 c -13.001,124.391 -133.22,222.832 -237.099,194.15 l -23.431,-6.47 v 29.797 c 0,16.388 1.833,63.884 4.073,105.547 3.782,70.331 5.013,75.935 17.206,78.334 18.868,3.713 69.726,-1.627 113.239,-11.89 z m 5563.1082,7.807 c 0.538,-0.554 3.018,-48.041 5.517,-105.528 l 4.543,-104.522 -24.255,6.697 c -104.706,28.911 -224.869,-69.03 -237.923,-193.922 l -4.031,-38.567 h -95.365 -95.366 l -4.162,33.312 c -5.704,45.65 9.599,115.129 38.137,173.157 32.281,65.638 110.927,143.802 180.436,179.33 58.89,30.1 99.149,43.926 150.383,51.646 29.914,4.507 77.064,3.586 82.086,-1.603 z m -3735.0182,-26.842 476.661,-3.824 68.795,-60.25 c 37.838,-33.137 68.991,-62.642 69.23,-65.566 0.239,-2.925 -95.996,-3.643 -213.855,-1.597 -117.859,2.046 -455.013,5.151 -749.231,6.899 -294.217,1.749 -682.049,4.963 -861.849,7.143 l -326.908,3.964 v 62.369 62.37 l 530.248,-3.841 c 291.637,-2.113 744.746,-5.563 1006.909,-7.667 z m 3317.9792,-51.519 v -61.712 l -326.9076,-3.964 c -179.8,-2.18 -567.632,-5.394 -861.85,-7.143 -294.2166,-1.748 -631.3706,-4.853 -749.2296,-6.899 -117.859,-2.046 -214.094,-1.328 -213.855,1.597 0.238,2.924 31.773,32.768 70.077,66.319 l 69.642,61.002 169.239,0.896 c 93.082,0.493 435.302,2.75 760.4896,5.015 325.188,2.266 701.758,4.678 836.8226,5.361 l 245.572,1.241 z m -3289.3232,-117.597 c 514.669,-3.887 548.616,-4.812 541.197,-14.75 -4.352,-5.832 -18.404,-24.382 -31.224,-41.225 -30.896,-40.588 -62.641,-102.102 -79.819,-154.667 l -13.957,-42.711 -723.535,3.718 c -397.944,2.046 -827.707,5.384 -955.029,7.419 l -231.495,3.701 2.036,49.231 c 2.491,60.226 -6.029,103.753 -30.394,155.273 -10.212,21.592 -18.567,40.866 -18.567,42.831 0,1.964 223.127,1.716 495.837,-0.551 272.711,-2.266 742.938,-5.987 1044.95,-8.269 z m 3264.2972,7.815 c 0,-1.412 -8.355,-20.234 -18.567,-41.826 -24.365,-51.52 -32.885,-95.047 -30.394,-155.273 l 2.036,-49.231 -231.495,-3.701 c -127.3216,-2.035 -557.0856,-5.373 -955.0286,-7.419 l -723.5346,-3.718 -13.957,42.711 c -17.178,52.565 -48.923,114.079 -79.819,154.667 -12.821,16.843 -27.173,35.847 -31.894,42.233 -8.326,11.262 0,11.636 278.42,12.501 157.851,0.49 491.125,2.751 740.6076,5.024 598.684,5.454 1063.6256,7.216 1063.6256,4.032 z"
   id="path6639" /><rect
   style="clip-rule:evenodd;display:inline;fill:none;fill-rule:evenodd;stroke:#f60000;stroke-width:5.64691;stroke-linecap:square;stroke-linejoin:round;stroke-miterlimit:10;stroke-opacity:1;paint-order:markers fill stroke;image-rendering:optimizeQuality;shape-rendering:geometricPrecision;text-rendering:geometricPrecision"
   id="rect6533-0"
   width="6494.353"
   height="9994.3535"
   x="-13735.737"
   y="15075.494"
   rx="400"
   ry="400" /><rect
   style="clip-rule:evenodd;display:inline;fill:none;fill-rule:evenodd;stroke:#f60000;stroke-width:5.64691;stroke-linecap:square;stroke-linejoin:round;stroke-miterlimit:10;stroke-opacity:1;paint-order:markers fill stroke;image-rendering:optimizeQuality;shape-rendering:geometricPrecision;text-rendering:geometricPrecision"
   id="rect6683"
   width="6494.353"
   height="9994.3535"
   x="-4210.7339"
   y="15075.494"
   rx="400"
   ry="400" /><g
   aria-label="DÉFAUSSE"
   id="text6687"
   style="font-size:1058.33px;line-height:1.25;font-family:'Bakso Sapi';-inkscape-font-specification:'Bakso Sapi, Normal';display:inline;stroke-width:79.1803"><path
     d="m -3099.6946,19630.892 c -23.2832,0 -46.5665,2.117 -69.8498,2.117 -12.6999,0 -24.3415,-2.117 -37.0415,-2.117 -32.8082,0 -74.0831,17.992 -80.4331,52.916 -8.4666,44.45 -3.175,104.775 -5.2916,151.342 -2.1167,60.324 -4.2334,121.708 -4.2334,182.032 0,86.783 0,192.616 21.1666,276.225 13.7583,53.974 42.3332,67.733 96.3081,67.733 139.6995,0 270.9324,-124.883 328.0823,-244.475 27.5165,-57.149 42.3332,-123.824 42.3332,-186.266 0,-117.474 -50.7999,-219.074 -159.8079,-270.932 -37.0415,-17.992 -89.958,-28.575 -131.2329,-28.575 z m -24.3416,520.698 c -9.5249,-133.349 3.175,-255.057 3.175,-376.765 0,-5.292 -1.0583,-24.342 7.4083,-24.342 99.483,0 137.5829,91.017 137.5829,177.8 0,96.308 -46.5665,206.374 -123.8246,266.699 -26.4582,16.933 -24.3416,-32.808 -24.3416,-43.392 z"
     id="path8751" /><path
     d="m -2283.7242,19662.642 c 0,-24.342 -19.0499,-43.392 -40.2165,-51.858 -28.5749,-11.642 -58.2081,-10.584 -87.8414,-10.584 -87.8414,0 -104.7746,-1.058 -170.3911,2.117 -57.1498,3.175 -59.2665,46.567 -60.3248,97.366 -1.0583,110.067 -7.4083,219.075 -7.4083,329.141 0,79.375 5.2916,157.691 14.8166,236.008 3.175,24.341 2.1167,58.208 16.9333,78.316 28.5749,38.1 118.5329,38.1 162.9828,38.1 44.4498,0 156.6328,-2.117 156.6328,-66.675 0,-44.45 -51.8581,-60.325 -87.8414,-60.325 -23.2832,0 -47.6248,6.35 -70.9081,6.35 -16.9332,0 -12.6999,-13.758 -13.7583,-25.4 -6.3499,-61.383 -11.6416,-121.708 -11.6416,-183.091 0,-10.583 6.35,-21.166 16.9333,-24.341 46.5665,-13.759 180.9744,-44.45 180.9744,-104.775 0,-41.275 -46.5665,-60.325 -81.4914,-60.325 -41.2749,0 -87.8414,32.808 -100.5413,32.808 -9.525,0 -12.7,-8.466 -12.7,-16.933 0,-24.341 2.1167,-49.741 3.175,-74.083 1.0583,-21.167 0,-42.333 2.1167,-63.5 1.0583,-14.816 9.5249,-22.225 24.3415,-22.225 27.5166,0 53.9749,2.117 81.4914,2.117 33.8666,0 84.6664,-16.933 84.6664,-58.208 z m -87.8413,-241.299 c -46.5666,-32.809 -92.0747,9.525 -131.233,31.75 -26.4582,14.816 -113.2413,56.091 -60.3248,93.133 46.5666,33.866 92.0747,-9.525 131.233,-31.75 26.4582,-14.817 113.2413,-55.033 60.3248,-93.133 z"
     id="path8753" /><path
     d="m -2124.9763,20289.173 c 0,53.975 35.9832,77.258 86.783,77.258 49.7415,0 84.6664,-23.283 84.6664,-76.199 0,-11.642 -1.0583,-23.284 -1.0583,-34.925 v -254 c 0,-7.408 0,-14.816 9.525,-14.816 5.2916,0 10.5833,1.058 16.9332,1.058 33.8666,0 66.6748,2.117 100.5414,2.117 39.1582,0 104.7747,-11.642 104.7747,-63.5 0,-9.525 -3.175,-19.05 -9.525,-27.517 -23.2833,-31.749 -66.6748,-31.749 -101.5997,-31.749 h -100.5413 c -10.5833,0 -20.1083,-8.467 -20.1083,-19.05 v -153.458 c 0,-15.875 14.8166,-14.817 25.3999,-14.817 16.9333,0 34.9249,-2.117 51.8582,-3.175 43.3915,-2.117 85.7247,-3.175 128.0579,-9.525 28.5749,-4.233 70.9081,-23.283 70.9081,-57.15 0,-8.466 -2.1166,-15.875 -6.35,-23.283 -16.9332,-32.808 -56.0915,-38.1 -89.958,-38.1 -78.3164,0 -156.6328,13.759 -234.9493,14.817 -31.7499,1.058 -83.608,16.933 -103.7163,43.391 -12.7,16.934 -10.5833,38.1 -10.5833,58.209 0,208.491 -1.0583,415.923 -1.0583,624.414 z"
     id="path8755" /><path
     d="m -1342.8717,19637.242 c -21.1666,0 -42.3332,5.292 -60.3248,16.933 -33.8666,22.225 -35.9832,79.375 -46.5665,115.358 -15.875,53.975 -32.8083,109.008 -48.6832,162.983 -28.5749,95.25 -63.4998,196.849 -63.4998,297.391 0,44.45 45.5082,60.325 82.5497,60.325 99.483,0 79.3748,-77.259 93.1331,-139.7 4.2333,-19.05 8.4666,-37.042 12.6999,-56.092 2.1167,-7.408 4.2333,-11.641 12.7,-11.641 5.2916,0 10.5833,1.058 16.9333,1.058 44.4498,0 89.958,-1.058 134.4079,-1.058 9.5249,0 10.5833,6.35 12.6999,13.758 5.2917,15.875 9.525,32.808 13.7583,49.742 15.875,66.674 12.7,132.291 102.658,132.291 44.4499,0 84.66642,-24.342 84.66642,-71.967 0,-13.758 -4.23332,-27.516 -8.46662,-40.216 -52.9165,-147.108 -86.7831,-364.066 -206.3744,-473.074 -33.8665,-31.749 -85.7247,-56.091 -132.2912,-56.091 z m 48.6832,201.083 c 4.2333,0 6.35,5.291 8.4666,8.466 8.4667,14.817 42.3332,89.958 42.3332,102.658 0,9.525 -7.4083,15.875 -16.9333,15.875 h -53.9748 c -9.525,0 -17.9916,-6.35 -17.9916,-16.933 0,-3.175 25.3999,-89.958 28.5749,-99.483 1.0583,-4.233 4.2333,-10.583 9.525,-10.583 z"
     id="path8757" /><path
     d="m -400.95933,20216.148 c 9.52497,0 37.04155,55.034 102.65801,55.034 34.92489,0 93.13303,-20.109 93.13303,-61.384 0,-27.516 -28.57491,-44.449 -34.92489,-71.966 -21.16659,-95.25 -26.45824,-258.233 -26.45824,-356.657 0,-71.967 6.34998,-158.75 -93.13304,-158.75 -25.39992,0 -50.79984,8.467 -68.79145,27.517 -26.45825,27.516 -15.87495,79.375 -15.87495,114.3 0,110.066 -62.44146,322.79 -124.88293,408.515 -14.81662,21.166 -37.04155,52.916 -58.20815,25.4 -51.85817,-61.383 -43.39153,-250.824 -43.39153,-330.199 0,-74.083 -2.11666,-147.108 -98.42468,-147.108 -35.98322,0 -83.60807,19.05 -83.60807,62.441 0,12.7 3.17499,26.459 4.23332,39.159 2.11666,26.458 2.11666,52.916 2.11666,79.374 2.11666,172.508 0,434.974 236.00758,434.974 135.46623,0 197.9077,-120.65 209.54933,-120.65 z"
     id="path8759" /><path
     d="m 174.77127,19769.533 c 0,-35.983 76.19976,-27.516 101.59968,-35.983 24.34159,-8.467 49.74151,-29.633 49.74151,-57.15 0,-44.45 -51.85817,-56.091 -86.78306,-56.091 -98.42468,0 -231.7742591,31.75 -231.7742591,154.516 0,120.649 121.7079491,267.757 121.7079491,366.182 0,73.025 -103.71634,39.158 -147.107868,69.85 -15.874949,11.641 -28.574909,29.633 -28.574909,49.741 0,42.333 51.858168,53.975 85.724727,53.975 116.41629,0 259.29084,-41.275 259.29084,-182.033 0,-122.766 -123.82461,-288.924 -123.82461,-363.007 z"
     id="path8761" /><path
     d="m 516.61073,19816.1 c 0,123.824 59.26648,249.766 59.26648,368.299 0,9.524 -1.05833,19.049 -11.64163,21.166 -32.80823,6.35 -79.37475,12.7 -79.37475,58.208 0,48.683 59.26648,62.442 97.36636,62.442 107.94965,0 159.80782,-49.742 159.80782,-156.633 0,-121.708 -56.09149,-236.008 -56.09149,-357.716 0,-33.866 7.40831,-86.783 47.62485,-96.308 11.64163,-3.175 22.22493,-2.116 33.86656,-6.35 23.28326,-8.466 44.44986,-28.575 44.44986,-55.033 0,-42.333 -48.68318,-57.15 -82.54974,-57.15 -133.34957,0 -212.72432,89.958 -212.72432,219.075 z"
     id="path8763" /><path
     d="m 1365.3909,20245.782 c 0,-38.1 -50.7999,-57.15 -82.5498,-57.15 -42.3332,0 -77.2581,35.983 -119.5913,35.983 -19.0499,0 -15.8749,-17.992 -15.8749,-31.75 0,-2.116 0,-4.233 0,-6.35 -5.2917,-50.8 -9.525,-101.599 -9.525,-153.458 0,-32.808 43.3915,-24.341 64.5581,-24.341 12.7,0 25.4,0 39.1582,0 41.2749,0 120.6497,-4.234 120.6497,-62.442 0,-42.333 -43.3916,-58.208 -78.3165,-58.208 -22.2249,0 -43.3915,2.117 -64.5581,2.117 -17.9916,0 -37.0415,0 -55.0331,0 -13.7583,0 -22.225,-10.584 -22.225,-23.283 0,-26.459 6.35,-104.775 10.5833,-130.175 2.1167,-13.758 12.7,-22.225 26.4583,-23.283 48.6832,-3.175 202.141,8.466 202.141,-63.5 0,-40.217 -41.2749,-53.975 -74.0831,-53.975 -45.5082,0 -87.8414,-2.117 -130.1746,-2.117 -20.1082,0 -40.2165,-1.058 -59.2665,-1.058 -21.1666,0 -41.2748,1.058 -61.3831,7.408 -37.0415,11.642 -58.20814,40.217 -63.49979,78.317 -13.75829,107.949 -22.22493,219.074 -22.22493,328.082 0,42.333 1.05833,84.666 4.23332,127 5.29165,73.024 -2.11666,209.549 102.658,209.549 h 47.6249 c 66.6747,0 197.9077,-7.408 233.8909,-74.083 4.2333,-7.408 6.35,-14.817 6.35,-23.283 z"
     id="path8765" /></g></g>
</svg>
