<?xml version="1.0" encoding="UTF-8" standalone="no"?>
<svg
   xmlns:dc="http://purl.org/dc/elements/1.1/"
   xmlns:cc="http://creativecommons.org/ns#"
   xmlns:rdf="http://www.w3.org/1999/02/22-rdf-syntax-ns#"
   xmlns:svg="http://www.w3.org/2000/svg"
   xmlns="http://www.w3.org/2000/svg"
   xmlns:sodipodi="http://sodipodi.sourceforge.net/DTD/sodipodi-0.dtd"
   xmlns:inkscape="http://www.inkscape.org/namespaces/inkscape"
   width="64.649994mm"
   height="99.150002mm"
   viewBox="0 0 64.649994 99.150001"
   version="1.1"
   id="svg2777"
   xml:space="preserve"
   inkscape:version="1.0.2-2 (e86c870879, 2021-01-15)"
   sodipodi:docname="&amp;Vinyle dos bon.svg"><metadata
     id="metadata54"><rdf:RDF><cc:Work
         rdf:about=""><dc:format>image/svg+xml</dc:format><dc:type
           rdf:resource="http://purl.org/dc/dcmitype/StillImage" /><dc:title></dc:title></cc:Work></rdf:RDF></metadata><sodipodi:namedview
     id="namedview2779"
     pagecolor="#ffffff"
     bordercolor="#eeeeee"
     borderopacity="1"
     inkscape:showpageshadow="0"
     inkscape:pageopacity="0"
     inkscape:pagecheckerboard="0"
     inkscape:deskcolor="#505050"
     inkscape:document-units="mm"
     showgrid="false"
     inkscape:zoom="1.3670731"
     inkscape:cx="57.982755"
     inkscape:cy="183.14065"
     inkscape:window-width="1600"
     inkscape:window-height="837"
     inkscape:window-x="-8"
     inkscape:window-y="-8"
     inkscape:window-maximized="1"
     inkscape:current-layer="layer1"
     showguides="false"
     inkscape:document-rotation="0"><inkscape:grid
       type="xygrid"
       id="grid16195"
       originx="-66.417908"
       originy="-0.0047686331" /><sodipodi:guide
       position="-36.017223,35.867097"
       orientation="1,0"
       id="guide16917"
       inkscape:locked="false" /><sodipodi:guide
       position="-34.661058,39.59655"
       orientation="1,0"
       id="guide16919"
       inkscape:locked="false" /><sodipodi:guide
       position="31.7256,39.414631"
       orientation="1,0"
       id="guide16977"
       inkscape:locked="false" /><sodipodi:guide
       position="30.369437,41.006634"
       orientation="1,0"
       id="guide16979"
       inkscape:locked="false" /><sodipodi:guide
       position="-36.017223,25.978399"
       orientation="0,-1"
       id="guide16981"
       inkscape:locked="false" /><sodipodi:guide
       position="-31.825675,39.290128"
       orientation="1,0"
       id="guide17466"
       inkscape:locked="false" /><sodipodi:guide
       position="-30.577038,36.263432"
       orientation="1,0"
       id="guide17468"
       inkscape:locked="false" /><sodipodi:guide
       position="34.56098,40.444151"
       orientation="1,0"
       id="guide18382"
       inkscape:locked="false" /><sodipodi:guide
       position="35.80961,34.736963"
       orientation="1,0"
       id="guide19110"
       inkscape:locked="false" /><sodipodi:guide
       position="-28.445305,36.884221"
       orientation="0,-1"
       id="guide19112"
       inkscape:locked="false" /><sodipodi:guide
       position="-36.410669,40.029321"
       orientation="0,-1"
       id="guide19114"
       inkscape:locked="false" /><sodipodi:guide
       position="-34.661058,40.811447"
       orientation="0,-1"
       id="guide19116"
       inkscape:locked="false" /><sodipodi:guide
       position="35.67063,50.008426"
       orientation="0,-1"
       id="guide23572"
       inkscape:locked="false" /></sodipodi:namedview><defs
     id="defs2774"><inkscape:path-effect
       effect="mirror_symmetry"
       start_point="188.1301,9.8028706"
       end_point="188.1301,59.668427"
       center_point="188.1301,34.735649"
       id="path-effect23027"
       is_visible="true"
       lpeversion="1.2"
       lpesatellites=""
       mode="free"
       discard_orig_path="false"
       fuse_paths="false"
       oposite_fuse="false"
       split_items="false"
       split_open="false"
       link_styles="false" /><clipPath
       clipPathUnits="userSpaceOnUse"
       id="clipPath5227"><rect
         style="fill:none;fill-rule:evenodd;stroke:#ff0000;stroke-width:0.499999;stroke-linecap:square;stroke-dasharray:none;stroke-dashoffset:9.60948;paint-order:fill markers stroke"
         id="rect5229"
         width="261.16943"
         height="432.28027"
         x="403.55548"
         y="-205.94421" /></clipPath><clipPath
       clipPathUnits="userSpaceOnUse"
       id="clipPath5258"><rect
         style="fill:none;fill-rule:evenodd;stroke:#ff0000;stroke-width:0.499999;stroke-linecap:square;stroke-dasharray:none;stroke-dashoffset:9.60948;paint-order:fill markers stroke"
         id="rect5260"
         width="261.16943"
         height="432.28027"
         x="-569.71735"
         y="173.04118" /></clipPath><clipPath
       clipPathUnits="userSpaceOnUse"
       id="clipPath5310"><rect
         style="fill:none;fill-rule:evenodd;stroke:#ff0000;stroke-width:0.499999;stroke-linecap:square;stroke-dasharray:none;stroke-dashoffset:9.60948;paint-order:fill markers stroke"
         id="rect5312"
         width="261.16943"
         height="432.28027"
         x="-542.15009"
         y="42.623554" /></clipPath></defs><g
     inkscape:label="Calque 1"
     inkscape:groupmode="layer"
     id="layer1"
     transform="translate(-66.11374,0.4211931)"><rect
       style="fill:none;fill-rule:evenodd;stroke:#ff0000;stroke-width:0.5;stroke-linecap:square;stroke-dasharray:none;stroke-dashoffset:9.60948;paint-order:fill markers stroke"
       id="rect3103"
       width="261.16943"
       height="432.28027"
       x="-880.73102"
       y="173.04117" /><rect
       style="fill:none;fill-rule:evenodd;stroke:#ff0000;stroke-width:0.5;stroke-linecap:square;stroke-dasharray:none;stroke-dashoffset:9.60948;paint-order:fill markers stroke"
       id="rect3103-5"
       width="261.16943"
       height="432.28027"
       x="-1047.656"
       y="-341.33322" /><rect
       style="fill:#fca311;fill-opacity:1;fill-rule:evenodd;stroke:none;stroke-width:0.900185;stroke-linecap:square;stroke-dasharray:0.900185, 5.40112;stroke-dashoffset:0;stroke-opacity:1;paint-order:fill markers stroke"
       id="rect21997"
       width="64.112938"
       height="98.728012"
       x="66.527542"
       y="-0.37119311" /><path
       style="display:inline;fill:#14213d;fill-opacity:1;stroke-width:0.0630808"
       d="m 66.292924,98.689815 c -0.02403,-0.02226 -0.04369,-22.320034 -0.04369,-49.550605 V -0.3709101 h 13.720625 13.72063 l 0.03204,0.77422825 c 0.02563,0.61749275 0.06509,0.86027915 0.195042,1.19929455 0.167298,0.4363733 0.531789,1.1302979 0.768155,1.4624412 l 0.133252,0.1872423 -0.409079,-0.055632 C 93.8594,3.1218002 91.985725,3.1842382 91.21665,3.3030746 90.53625,3.4082106 88.49629,3.8439456 86.499014,4.310759 L 85.222483,4.6091151 84.861276,4.2292538 C 83.657317,2.963112 82.073367,1.7700076 80.829441,1.1922863 79.458582,0.55561391 78.430856,0.32861754 77.12704,0.37452651 76.10216,0.41061304 75.806705,0.47460692 73.850578,1.0841828 71.799914,1.7232186 71.541122,1.7771182 70.541352,1.7734123 69.570465,1.7698082 68.86211,1.657385 68.276849,1.4139968 67.947008,1.2768278 67.857637,1.2617118 67.720021,1.319816 c -0.216903,0.091581 -0.262626,0.2216387 -0.139257,0.396117 0.175652,0.2484192 0.31293,1.0501407 0.31269,1.8261468 -2.62e-4,0.8269158 -0.271531,2.4812533 -0.601211,3.6664054 -0.277558,0.9979612 -0.284031,0.9699767 0.308242,1.3324442 l 0.499366,0.3056095 0.02845,17.7528071 c 0.01565,9.764045 0.04204,17.813875 0.05863,17.888512 0.01965,0.08835 0.09272,0.147586 0.209388,0.169751 0.515663,0.09797 0.742576,0.182774 1.145763,0.428204 0.243277,0.148088 0.442323,0.297929 0.442323,0.33298 0,0.03505 -0.634451,0.924797 -1.409889,1.977215 l -1.409889,1.91349 0.0011,7.449666 c 5.9e-4,4.097319 0.01782,13.024109 0.03833,19.837317 l 0.03728,12.387651 0.389028,0.303619 c 0.539559,0.421101 0.934712,0.886658 1.236989,1.457371 0.354852,0.669978 0.465252,1.094291 0.505584,1.943161 0.02845,0.598773 0.0095,0.841522 -0.106414,1.361579 -0.212847,0.955142 -0.434356,1.437987 -1.218662,2.656435 -0.149346,0.232013 -0.07617,0.525242 0.138247,0.553976 0.07268,0.0097 0.391223,-0.104808 0.707897,-0.254548 4.048782,-1.914432 12.649327,-1.571325 20.603257,0.82194 0.442322,0.133094 0.858511,0.226013 0.924877,0.206497 0.06639,-0.01952 0.243565,-0.170561 0.39379,-0.335658 0.512203,-0.562897 1.814678,-1.022072 2.988397,-1.053539 l 0.589763,-0.01581 0.23132,-0.604153 c 0.64143,-1.675254 1.496046,-2.488054 2.927018,-2.783809 0.914263,-0.18896 1.925762,-0.08618 2.766402,0.281103 0.86365,0.377337 1.53959,1.208585 2.0351,2.502706 l 0.23131,0.604153 0.58976,0.01581 c 1.17373,0.03146 2.4762,0.490642 2.9884,1.053539 0.15023,0.165097 0.32744,0.316141 0.39379,0.335658 0.0664,0.01951 0.48256,-0.0734 0.92489,-0.206497 1.82854,-0.550194 3.67287,-0.996727 5.40502,-1.308622 6.34521,-1.142537 12.14545,-0.956795 15.19823,0.486682 0.31666,0.14974 0.63523,0.264282 0.70789,0.254548 0.21442,-0.02873 0.28759,-0.321963 0.13826,-0.553976 -0.78431,-1.218448 -1.00582,-1.701293 -1.21867,-2.656435 -0.11589,-0.520057 -0.13487,-0.762806 -0.10642,-1.361579 0.0403,-0.84887 0.15075,-1.273183 0.50559,-1.943161 0.30227,-0.570713 0.69743,-1.03627 1.23699,-1.457371 l 0.38902,-0.303619 0.0373,-12.387651 c 0.0205,-6.813208 0.0378,-15.739998 0.0384,-19.837317 l 0.001,-7.449666 -1.40987,-1.91349 c -0.77545,-1.052418 -1.4099,-1.942165 -1.4099,-1.977215 0,-0.03505 0.19906,-0.184892 0.44233,-0.33298 0.40319,-0.24543 0.6301,-0.330233 1.14576,-0.428204 0.11666,-0.02217 0.18973,-0.0814 0.20938,-0.169751 0.0166,-0.07463 0.043,-8.124467 0.0586,-17.888512 l 0.0285,-17.7528071 0.49937,-0.3056095 c 0.59226,-0.3624675 0.58579,-0.334483 0.30819,-1.3324442 -0.32968,-1.1851521 -0.60096,-2.8394896 -0.60123,-3.6664054 0,-0.7760061 0.13705,-1.5777276 0.31269,-1.8261468 0.12338,-0.1744783 0.0777,-0.3045364 -0.13925,-0.396117 -0.13761,-0.058104 -0.22699,-0.042988 -0.55684,0.094181 -0.58525,0.2433882 -1.2936,0.3558164 -2.26449,0.3594155 -0.99977,0.0037 -1.25855,-0.050193 -3.30922,-0.6892295 -1.95613,-0.60957618 -2.25159,-0.67356936 -3.27646,-0.70965629 -1.30382,-0.0459086 -2.33155,0.1810874 -3.7024,0.81775979 -1.24393,0.5777213 -2.82789,1.7708257 -4.03184,3.0369675 L 111.75672,4.6091153 110.4802,4.3107587 C 108.48293,3.8439453 106.44296,3.4082103 105.76256,3.3030743 104.99349,3.1842379 103.1198,3.1217998 102.5693,3.1966637 l -0.40908,0.055632 0.13326,-0.1872423 c 0.23637,-0.3321431 0.60085,-1.0260677 0.76815,-1.462441 0.12998,-0.3390342 0.16946,-0.581797 0.19505,-1.19943611 l 0.032,-0.7743697 13.76977,0.0153222 13.76976,0.0153222 0.0164,49.48627501 c 0.0131,39.549009 -3e-5,49.495959 -0.0655,49.534494 -0.0986,0.058 -64.423681,0.06758 -64.486251,0.0096 z M 89.675936,97.417147 C 88.92144,97.169838 87.318605,96.745451 86.168447,96.488468 82.948539,95.769043 80.097094,95.41223 77.06156,95.348901 c -2.43365,-0.05077 -4.455563,0.113384 -6.122575,0.497067 -0.357987,0.08239 -0.667612,0.134322 -0.688056,0.115393 -0.06217,-0.05756 -0.183097,-32.044102 -0.125203,-33.118816 0.196509,-3.647841 1.083357,-6.7231 2.51412,-8.718015 0.395675,-0.551694 1.221667,-1.313972 1.569892,-1.448804 0.297084,-0.115022 0.295895,-0.168435 -0.02734,-1.228283 -0.65966,-2.162939 -1.802371,-4.263317 -3.076517,-5.654833 l -0.404702,-0.441982 0.452853,-0.620685 0.452854,-0.620684 0.03572,-14.78624 0.03572,-14.786241 -0.288724,-1.34433 c -0.371735,-1.730863 -0.531749,-2.195484 -0.943,-2.738141 C 70.000023,9.8650363 68.927597,8.8947754 68.180276,8.4038856 67.839027,8.179731 67.559823,7.9889478 67.559823,7.9799243 c 0,-0.00902 0.04272,-0.1285948 0.09493,-0.2657127 0.126168,-0.3313745 0.397748,-1.5637181 0.565948,-2.5680901 0.164549,-0.9825671 0.17806,-2.134555 0.03261,-2.7803585 -0.0559,-0.2482284 -0.09348,-0.4588986 -0.08349,-0.4681554 0.01001,-0.00926 0.196832,0.0347 0.415206,0.097682 0.87713,0.2529739 2.261072,0.3184943 3.155055,0.14937 0.277798,-0.052555 1.201115,-0.3093779 2.051815,-0.5707192 2.292483,-0.70426703 2.54481,-0.75728188 3.597318,-0.75581242 0.698841,9.7769e-4 0.995455,0.0289095 1.412239,0.13299608 1.41512,0.35340984 2.646865,0.97211844 3.945558,1.98186384 0.72322,0.5623113 1.747842,1.5016796 2.04701,1.8766944 0.26303,0.3297223 0.20111,0.3259022 1.235398,0.076209 0.373123,-0.090077 0.68744,-0.155196 0.698474,-0.144709 0.01102,0.010488 0.419342,1.4126787 0.907344,3.1159807 0.488002,1.703302 1.185224,4.13529 1.549376,5.404417 0.364161,1.269127 0.865399,3.017972 1.113861,3.886322 1.422271,4.970566 1.765335,6.15073 1.827395,6.286352 0.03785,0.0827 0.617339,2.404739 1.287756,5.16008 0.670429,2.755342 1.555504,6.385129 1.966846,8.066195 l 0.747887,3.056485 -0.222287,4.56435 c -0.140682,2.888825 -0.199528,4.58991 -0.160307,4.63397 0.03715,0.04168 0.06759,1.564731 0.076,3.795237 0.009,2.434623 0.03675,3.725616 0.0795,3.725616 0.04286,0 0.06869,-1.287041 0.0747,-3.722737 0.005,-2.047503 0.01973,-3.73192 0.03274,-3.743148 0.01302,-0.01123 0.43263,-0.03018 0.932527,-0.04214 l 0.908906,-0.02173 -0.01162,5.237426 c -0.006,2.880585 0.01242,5.237427 0.04176,5.237427 0.02934,0 0.84193,-0.731151 1.805777,-1.624775 l 1.752445,-1.624774 v -3.646049 c 0,-2.675582 -0.0201,-3.664717 -0.0757,-3.716174 -0.0517,-0.04788 -0.14481,-1.494897 -0.29361,-4.561986 l -0.21793,-4.491861 0.74772,-3.055812 c 0.41125,-1.680698 1.29625,-5.310184 1.96667,-8.065526 0.67043,-2.755341 1.24992,-5.077377 1.28776,-5.16008 0.0621,-0.135622 0.40512,-1.315786 1.82739,-6.286352 0.24847,-0.86835 0.74972,-2.617195 1.11387,-3.886322 0.36416,-1.269127 1.06137,-3.701115 1.54938,-5.404417 0.48801,-1.703302 0.8963,-3.1054931 0.90734,-3.1159807 0.011,-0.010487 0.32535,0.054632 0.69846,0.144709 1.05172,0.2538977 0.94999,0.2720924 1.39924,-0.250253 0.43322,-0.5037196 1.73484,-1.6284284 2.49526,-2.1561029 1.02869,-0.7138566 2.17213,-1.2386807 3.3262,-1.5266905 0.42459,-0.10595992 0.71726,-0.13373502 1.41952,-0.13471632 1.0525,-0.001472 1.30483,0.0515459 3.5973,0.75581242 0.85072,0.2613413 1.77402,0.5181646 2.05181,0.5707192 0.89399,0.1691243 2.27793,0.1036039 3.15506,-0.1493702 0.21838,-0.062982 0.40522,-0.1069382 0.41521,-0.097682 0.01,0.00926 -0.0275,0.219927 -0.0835,0.4681554 -0.14545,0.6458035 -0.13194,1.7977914 0.0326,2.7803585 0.1682,1.004372 0.43978,2.2367156 0.56594,2.5680901 0.0522,0.1371179 0.0949,0.2566885 0.0949,0.2657127 0,0.00902 -0.2792,0.1998067 -0.62044,0.4239613 -0.74733,0.4908898 -1.81976,1.4611507 -2.26633,2.050421 -0.41125,0.542657 -0.57126,1.007278 -0.943,2.738141 l -0.28873,1.34433 0.0357,14.786241 0.0357,14.78624 0.45404,0.622282 0.45402,0.622282 -0.40924,0.440385 c -1.24542,1.340209 -2.41464,3.490241 -3.07431,5.653235 -0.32324,1.059848 -0.32442,1.113261 -0.0273,1.228283 0.34939,0.135281 1.1753,0.898318 1.56818,1.448804 1.439,2.016241 2.31909,5.06602 2.51583,8.718015 0.0579,1.074714 -0.0631,33.061251 -0.1252,33.118816 -0.0204,0.01893 -0.33007,-0.033 -0.68806,-0.115393 -2.77534,-0.638784 -6.71953,-0.68078 -11.00451,-0.117173 -2.45524,0.322942 -5.1802,0.909795 -7.47931,1.610753 l -0.79532,0.242483 -0.33731,-0.304457 c -0.623,-0.562327 -1.8206,-0.992853 -2.99437,-1.076462 l -0.53894,-0.03838 -0.17663,-0.462023 c -0.49182,-1.286432 -1.21582,-2.132606 -2.21218,-2.585509 -0.49836,-0.226523 -1.509513,-0.455373 -2.012053,-0.455373 -0.50255,0 -1.513709,0.22885 -2.012054,0.455373 -0.99638,0.452903 -1.720366,1.299077 -2.212183,2.585509 l -0.176639,0.462023 -0.538947,0.03838 c -1.171175,0.08342 -2.371519,0.514281 -2.991332,1.073723 -0.183847,0.16594 -0.354418,0.299678 -0.37905,0.297194 -0.02463,-0.0025 -0.251195,-0.07218 -0.503482,-0.154882 z M 80.20627,94.207149 c 0.04449,-0.04968 0.06494,-0.128826 0.04544,-0.175905 -0.0376,-0.0908 -7.464169,-6.711794 -7.625112,-6.798002 -0.05199,-0.02784 -0.140252,-0.03436 -0.196154,-0.01449 -0.118215,0.04204 -0.109482,0.09962 0.148034,0.975965 0.15998,0.544425 0.178981,0.714021 0.183689,1.639542 0.0047,0.929354 -0.01232,1.096733 -0.170947,1.678345 -0.187124,0.686094 -0.722655,2.112107 -0.873085,2.324859 -0.05854,0.08278 -0.06906,0.158489 -0.03014,0.21685 0.0517,0.07752 0.08905,0.07832 0.275716,0.0059 1.049135,-0.40671 1.914923,-0.581813 3.199794,-0.647158 1.433482,-0.0729 2.733224,0.132415 4.012888,0.633914 0.662504,0.259637 0.906737,0.297607 1.029874,0.160117 z m -1.601999,-0.769194 c -0.887266,-0.271733 -1.42514,-0.362436 -2.365324,-0.398865 -1.059409,-0.04105 -2.186531,0.06129 -3.141905,0.285256 -0.396451,0.09295 -0.727359,0.16396 -0.73535,0.157822 -0.008,-0.0061 0.07327,-0.228261 0.18056,-0.493606 0.1073,-0.265351 0.290748,-0.824021 0.407663,-1.241497 0.201141,-0.718229 0.212453,-0.816195 0.21035,-1.821714 -0.0016,-0.777641 -0.03101,-1.168435 -0.109557,-1.457012 -0.05904,-0.216894 -0.102187,-0.399119 -0.0959,-0.404955 0.0063,-0.0058 0.955001,0.825424 2.108242,1.847229 3.541597,3.137969 4.192676,3.719107 4.159853,3.712998 -0.0174,-0.0032 -0.295793,-0.08678 -0.618637,-0.185656 z m 39.239389,0.590077 c 1.37354,-0.506491 2.49895,-0.682517 3.93271,-0.615126 1.30397,0.06129 2.17783,0.235936 3.23915,0.64737 0.18668,0.07236 0.22402,0.07156 0.27572,-0.0059 0.0389,-0.05836 0.0284,-0.134065 -0.0301,-0.21685 -0.15043,-0.212752 -0.68597,-1.638765 -0.87309,-2.324859 -0.15864,-0.581612 -0.17568,-0.748991 -0.17095,-1.678345 0.005,-0.925521 0.0237,-1.095117 0.1837,-1.639541 0.25751,-0.876348 0.26624,-0.933926 0.14801,-0.975966 -0.0559,-0.01987 -0.14416,-0.01335 -0.19614,0.01449 -0.16095,0.08621 -7.58751,6.707202 -7.62511,6.798002 -0.048,0.115788 0.0966,0.266219 0.2559,0.266219 0.0713,0 0.45836,-0.121247 0.86023,-0.269431 z m 0.93153,-1.331873 c 3.1084,-2.761675 5.23911,-4.642157 5.24924,-4.632775 0.006,0.0058 -0.0369,0.188061 -0.0959,0.404955 -0.0786,0.288577 -0.10793,0.679371 -0.10955,1.457012 -0.002,1.005519 0.009,1.103485 0.21035,1.821714 0.11691,0.417476 0.30035,0.976146 0.40766,1.241497 0.10729,0.265345 0.18855,0.487467 0.18056,0.493606 -0.008,0.0061 -0.3389,-0.06487 -0.73536,-0.157822 -0.95537,-0.223967 -2.08248,-0.326299 -3.1419,-0.285256 -0.93545,0.03625 -1.46966,0.125978 -2.3993,0.403006 l -0.60998,0.181777 z m -6.62272,-3.866047 c 4.8295,-0.03399 8.90774,-0.07661 9.06275,-0.0947 0.22914,-0.02676 0.29455,-0.06335 0.34983,-0.195713 0.0467,-0.111829 0.0531,-3.562299 0.0203,-11.019569 -0.0435,-9.897563 -0.057,-10.860575 -0.15324,-10.899918 -0.0581,-0.02374 -4.10962,-0.03603 -9.00348,-0.02733 -7.84377,0.01396 -8.90238,0.02663 -8.93568,0.107043 -0.0207,0.05017 -10e-4,0.13185 0.0431,0.181522 0.0709,0.07911 1.16824,0.09031 8.8473,0.09031 h 8.76641 l -0.001,10.683888 -10e-4,10.683893 -0.33647,0.03133 c -0.18506,0.01724 -5.28312,0.06393 -11.32901,0.103765 -8.51211,0.05608 -13.472937,0.05608 -21.985053,0 -6.045988,-0.03983 -11.150668,-0.08729 -11.343832,-0.105467 l -0.351206,-0.03305 0.04017,-5.292945 c 0.02209,-2.911123 0.058,-7.718108 0.0798,-10.682188 l 0.03962,-5.389235 h 8.700272 c 7.620532,0 8.710323,-0.01121 8.781165,-0.09031 0.04446,-0.04968 0.06398,-0.131079 0.04336,-0.180903 -0.03294,-0.07958 -1.122963,-0.09259 -8.968447,-0.107038 -7.975913,-0.01469 -8.951961,-0.0063 -9.127528,0.07803 -0.259542,0.124733 -0.622912,0.575485 -0.976302,1.211081 -0.617894,1.111324 -0.797696,1.856593 -0.743162,3.080359 0.05438,1.220421 0.278149,1.685389 1.205407,2.504753 l 0.578828,0.511476 3.93e-4,7.350657 3.93e-4,7.350649 0.294881,0.0466 c 0.41566,0.06569 20.314244,0.221653 24.311331,0.19054 1.82008,-0.01417 7.26065,-0.05357 12.09016,-0.08755 z M 75.043533,73.076415 c -0.51632,-0.443193 -0.698973,-0.730203 -0.874841,-1.374659 -0.118794,-0.435323 -0.13361,-0.619686 -0.101944,-1.268562 0.04346,-0.890442 0.185497,-1.414038 0.600938,-2.215198 0.274375,-0.529116 0.736478,-1.182693 0.837555,-1.184587 0.05543,-0.001 0.05134,2.163801 -0.0089,4.701023 l -0.04026,1.696112 z M 87.28412,86.964283 c 0,-0.05888 -0.05607,-0.134023 -0.124721,-0.16699 -0.626321,-0.301014 -0.581633,-0.255975 -0.621104,-0.625965 -0.02023,-0.189658 -0.05557,-1.027975 -0.0786,-1.862927 -0.04716,-1.713631 -0.08531,-1.570742 0.496723,-1.858232 0.162189,-0.08011 0.315058,-0.171673 0.339709,-0.20348 0.141724,-0.182827 -0.292778,-0.20977 -0.536294,-0.03326 -0.09012,0.0653 -0.198226,0.119352 -0.240271,0.120099 -0.04206,7.29e-4 -0.08631,0.02412 -0.09833,0.05194 -0.01202,0.02782 -0.22379,0.157621 -0.470599,0.288438 -0.246819,0.130811 -0.55644,0.296764 -0.68806,0.368777 -0.13161,0.07202 -0.313026,0.170026 -0.403122,0.217797 -0.461368,0.244614 -0.706485,0.377301 -0.884645,0.478886 -0.10812,0.06165 -0.269709,0.141468 -0.359075,0.177368 -0.08932,0.03591 -0.177838,0.08642 -0.196592,0.112248 -0.01875,0.02584 -0.234654,0.150224 -0.479777,0.276427 -0.491518,0.253054 -0.538497,0.368454 -0.208813,0.512927 0.107683,0.04719 0.205617,0.108878 0.21763,0.13709 0.01202,0.02821 0.06231,0.0513 0.111765,0.0513 0.04946,0 0.201815,0.0709 0.338569,0.157566 0.136753,0.08666 0.410828,0.236725 0.609056,0.333483 0.198226,0.09676 0.478369,0.243046 0.622525,0.325084 0.144166,0.08204 0.335844,0.187152 0.425941,0.233581 0.153308,0.079 0.396353,0.205052 1.114002,0.57775 0.162179,0.08423 0.375386,0.19145 0.473783,0.238268 0.09843,0.04681 0.195973,0.110718 0.216831,0.141997 0.02083,0.03128 0.124661,0.05688 0.230658,0.05688 0.140392,0 0.192719,-0.02907 0.192719,-0.107051 z m -1.63823,-0.941364 c -0.27031,-0.136993 -0.530436,-0.285049 -0.578058,-0.32902 -0.04766,-0.04396 -0.125112,-0.07994 -0.172182,-0.07994 -0.04706,0 -0.122299,-0.04099 -0.167167,-0.09108 -0.04486,-0.0501 -0.134484,-0.09108 -0.199158,-0.09108 -0.06468,0 -0.127394,-0.02277 -0.13941,-0.0506 -0.01202,-0.02782 -0.228265,-0.154596 -0.480552,-0.281715 -0.252286,-0.127116 -0.551268,-0.287251 -0.664405,-0.35585 L 83.039257,84.6189 83.1881,84.510411 c 0.08187,-0.05968 0.21866,-0.137539 0.303995,-0.173038 0.08533,-0.03551 0.214125,-0.09788 0.286208,-0.138621 0.0721,-0.04074 0.278501,-0.154383 0.458704,-0.25255 0.180214,-0.09817 0.342393,-0.194013 0.360416,-0.212995 0.01802,-0.01898 0.106488,-0.0692 0.196586,-0.111585 0.09012,-0.04239 0.222978,-0.110154 0.295281,-0.150577 0.477298,-0.266863 1.029703,-0.535827 1.054085,-0.513232 0.01592,0.01473 0.02103,0.766438 0.01141,1.670476 l -0.01742,1.643707 z m 27.55363,0.772947 c 0.54707,-0.132044 1.08537,-0.342494 1.48749,-0.581552 l 0.34593,-0.205647 -2.42317,-0.03036 c -1.33275,-0.0167 -2.46215,-0.01985 -2.50979,-0.007 -0.13193,0.03557 0.36142,0.478242 0.72525,0.650758 0.17105,0.0811 0.4217,0.171636 0.557,0.201184 0.40587,0.08864 1.39858,0.07369 1.81729,-0.02737 z m -11.4093,-0.527453 c 0.05,-0.07344 0.0506,-0.123694 0.002,-0.168733 -0.0464,-0.04293 -1.48679,-0.0768 -4.356221,-0.102399 -3.930766,-0.03507 -4.294418,-0.02994 -4.376243,0.0617 -0.04906,0.05497 -0.0725,0.140411 -0.05197,0.189865 0.04786,0.11563 0.527654,0.127332 5.147092,0.125546 3.300562,-0.0013 3.569452,-0.0091 3.635392,-0.105975 z m 14.13542,-0.815593 c 0.82394,-0.581497 1.23479,-1.647273 1.15413,-2.993931 -0.10421,-1.740119 -1.03908,-3.34616 -2.35295,-4.042255 -0.28687,-0.151985 -0.51018,-0.193696 -0.51018,-0.0953 0,0.03022 0.12531,0.123112 0.2785,0.206412 1.28893,0.700972 2.2723,2.458998 2.30886,4.127724 6.5e-4,0.02604 -1.95992,0.05199 -4.35665,0.05766 l -4.3577,0.01033 0.0193,-0.452374 c 0.0375,-0.877094 0.41087,-1.938066 0.92657,-2.632649 0.11296,-0.152143 0.36973,-0.441122 0.5706,-0.642172 0.46457,-0.464999 0.33646,-0.476171 -0.18787,-0.01639 -0.72291,0.633907 -1.26601,1.578296 -1.49289,2.595941 -0.12319,0.552654 -0.0953,1.555228 0.0587,2.105239 0.21389,0.7643 0.59472,1.359253 1.1131,1.738965 l 0.3102,0.227216 3.0937,0.01956 3.09368,0.01956 z m -14.0285,-1.895511 c 0,-2.332176 -0.10115,-2.949057 -0.64197,-3.915208 -0.38846,-0.693952 -0.94428,-1.116007 -1.550625,-1.177435 -0.202973,-0.02056 -0.348791,0.01412 -0.624898,0.148573 -0.542462,0.264179 -0.889862,0.747692 -1.211659,1.686378 -0.03274,0.09549 -0.07209,0.05011 -0.190186,-0.219061 -0.969966,-2.211535 -3.703443,-1.479704 -4.430574,1.186191 -0.11648,0.42707 -0.131009,0.6812 -0.131009,2.292323 v 1.811998 h 4.390462 4.390459 z m -8.387743,-1.272971 c 0,-1.189063 0.723707,-2.488181 1.644929,-2.952803 0.403452,-0.203486 0.944532,-0.236459 1.27452,-0.07768 0.518741,0.249611 0.976404,0.964524 1.05842,1.653351 0.04296,0.36093 0.243234,0.698985 0.414065,0.698985 0.164874,0 0.174056,-0.02118 0.259447,-0.599119 0.200569,-1.357468 0.750871,-2.133451 1.512957,-2.133451 0.412425,0 0.774065,0.25445 1.120165,0.788128 0.44246,0.682274 0.74777,1.852142 0.69767,2.673237 l -0.0203,0.333872 -3.980901,0.01565 -3.980892,0.01566 z M 82.465338,84.28161 c 0.02097,-0.03144 0.177518,-0.120215 0.347897,-0.197291 0.170378,-0.07709 0.324523,-0.15515 0.342544,-0.173482 0.01802,-0.01833 0.180205,-0.113651 0.36041,-0.211817 0.180209,-0.09817 0.377684,-0.206157 0.438833,-0.239981 0.574353,-0.317658 1.192584,-0.63837 1.230583,-0.63837 0.02573,0 0.100169,-0.05465 0.165404,-0.121448 0.06529,-0.06679 0.173014,-0.121448 0.23951,-0.121448 0.06649,0 0.120897,-0.02225 0.120897,-0.04945 0,-0.0272 0.125332,-0.113086 0.278499,-0.190855 0.153179,-0.07777 0.352227,-0.179809 0.442323,-0.226754 0.09012,-0.04694 0.311263,-0.161817 0.491476,-0.255271 l 0.327644,-0.169905 0.01863,-1.117518 c 0.01021,-0.614628 0.002,-1.178994 -0.01762,-1.254141 -0.03435,-0.129505 -0.256711,-0.195518 -0.306797,-0.09108 -0.02323,0.04838 -0.212013,0.152714 -0.742671,0.410371 -0.180203,0.0875 -0.460345,0.2391 -0.622526,0.336889 -0.162189,0.0978 -0.375976,0.208022 -0.475084,0.244954 -0.09913,0.03693 -0.180203,0.08913 -0.180203,0.115995 0,0.02686 -0.08111,0.07881 -0.180214,0.115435 -0.09913,0.03662 -0.298155,0.135408 -0.442322,0.219523 -0.144157,0.08411 -0.321086,0.179311 -0.393169,0.211556 -0.0721,0.03225 -0.249012,0.12724 -0.393179,0.2111 -0.144165,0.08386 -0.335837,0.186252 -0.42594,0.227532 -0.09011,0.04128 -0.178567,0.09162 -0.196588,0.111871 -0.01802,0.02025 -0.234704,0.143776 -0.48152,0.274496 -0.246815,0.130714 -0.556441,0.296587 -0.688056,0.368599 -0.352889,0.19309 -0.523725,0.284048 -0.963247,0.512873 -0.641083,0.333769 -0.706992,0.389871 -0.660341,0.562121 0.02257,0.08333 0.122108,0.190028 0.221193,0.237102 0.09909,0.04707 0.283364,0.139974 0.409507,0.206442 0.126144,0.06646 0.43559,0.228055 0.687657,0.359084 0.252068,0.131024 0.51746,0.269705 0.589763,0.308179 0.16411,0.08732 0.406224,0.100419 0.456721,0.02471 z m 6.286863,-19.897221 c 0.02223,-0.05373 0.009,-6.126866 -0.02924,-13.49586 L 88.65327,37.490367 88.018589,36.943853 c -2.810358,-2.419949 -4.926657,-5.292534 -6.535434,-8.87095 -1.220575,-2.714937 -1.949692,-5.42307 -2.336457,-8.678222 -0.132692,-1.11678 -0.112728,-4.268044 0.03405,-5.374055 0.143971,-1.0849 0.387235,-2.329259 0.607687,-3.108468 0.189092,-0.66837 0.186482,-0.860604 -0.01205,-0.886907 -0.108753,-0.01441 -0.594217,0.514783 -2.451063,2.671846 -1.273497,1.479397 -2.397736,2.758129 -2.498309,2.841624 l -0.182859,0.151809 -0.01185,7.165407 c -0.01398,8.458952 0.007,8.867316 0.57117,11.13828 0.316453,1.273726 0.655603,2.162225 1.264985,3.313979 0.616268,1.164767 1.093463,1.904081 2.626044,4.068493 2.462181,3.477258 3.767452,5.70313 5.333575,9.095317 2.034924,4.407587 3.521678,9.652118 3.695504,13.035907 0.04466,0.869608 0.04666,0.878304 0.20892,0.919985 0.272172,0.06992 0.377147,0.05904 0.419612,-0.04351 z m -0.510912,-3.4091 c -0.109592,-0.873275 -0.690503,-3.172575 -1.284312,-5.083376 -1.247143,-4.013174 -3.287834,-8.35258 -5.651403,-12.017392 -0.320202,-0.496485 -1.180452,-1.753467 -1.911671,-2.793294 -1.549339,-2.203235 -1.794676,-2.574603 -2.36208,-3.575492 -1.169465,-2.062907 -1.77964,-4.288499 -1.930703,-7.042173 -0.03349,-0.6106 -0.06507,-4.119661 -0.07015,-7.797913 l -0.0092,-6.687733 2.108129,-2.439674 c 1.159471,-1.341821 2.119328,-2.429296 2.133016,-2.416613 0.01369,0.01268 -0.04937,0.36158 -0.140121,0.775325 -0.322196,1.468897 -0.430032,2.468337 -0.468961,4.346425 -0.06001,2.895313 0.185174,4.922813 0.934001,7.723458 1.426867,5.336542 4.313851,10.033857 8.163994,13.283349 l 0.500428,0.422352 0.04816,11.825956 c 0.02653,6.504276 0.03394,11.825957 0.01642,11.825957 -0.01742,0 -0.05147,-0.157123 -0.0756,-0.349162 z m 20.542601,3.412172 c 0.0219,-0.01258 0.057,-0.413152 0.0778,-0.890162 0.14333,-3.285399 1.65249,-8.613394 3.68939,-13.025293 1.56613,-3.392187 2.87139,-5.618059 5.33358,-9.095317 1.53258,-2.164412 2.00977,-2.903726 2.62605,-4.068493 0.60939,-1.151754 0.94854,-2.040253 1.26498,-3.313979 0.56421,-2.270964 0.58516,-2.679328 0.57117,-11.13828 l -0.0118,-7.165407 -0.18286,-0.151809 c -0.10056,-0.08349 -1.2248,-1.362227 -2.49829,-2.841624 -1.85685,-2.157063 -2.34231,-2.686256 -2.45107,-2.671846 -0.19852,0.0263 -0.20113,0.218537 -0.012,0.886907 0.22044,0.779209 0.46371,2.023568 0.60768,3.108468 0.14677,1.106011 0.16674,4.257275 0.034,5.374055 -0.38677,3.255152 -1.11588,5.963285 -2.33646,8.678222 -1.60879,3.57845 -3.72531,6.451322 -6.53547,8.87095 l -0.63472,0.546514 -0.0694,13.398653 c -0.0382,7.369256 -0.0504,13.444719 -0.027,13.501028 0.0336,0.08136 0.0908,0.09396 0.27849,0.06133 0.12984,-0.02257 0.25407,-0.05134 0.27603,-0.06392 z m -0.0961,-14.873785 0.0393,-11.841138 0.50043,-0.422352 c 3.85014,-3.249492 6.73713,-7.946807 8.16399,-13.283349 0.74883,-2.800645 0.99403,-4.828145 0.93402,-7.723458 -0.0389,-1.878088 -0.14678,-2.877528 -0.46897,-4.346425 -0.0907,-0.413745 -0.15381,-0.762641 -0.14012,-0.775325 0.0137,-0.01268 0.97354,1.074792 2.13301,2.416613 l 2.10813,2.439674 -0.009,6.687733 c -0.005,3.678252 -0.0367,7.187313 -0.0702,7.797913 -0.15105,2.753674 -0.76123,4.979266 -1.9307,7.042173 -0.5674,1.000889 -0.81274,1.372257 -2.36208,3.575492 -1.92132,2.732216 -2.76374,4.063979 -3.89186,6.152562 -2.25817,4.180766 -4.06092,9.095244 -4.89033,13.331614 l -0.1546,0.78941 z M 74.918521,12.502531 c 1.230878,-2.123122 2.720135,-4.2871994 3.866555,-5.6185866 0.752302,-0.8736797 2.289835,-2.4346124 2.559243,-2.5981896 0.194597,-0.1181557 0.220091,-0.2336414 0.07604,-0.3444312 -0.07796,-0.059955 -0.250225,-0.043211 -0.870426,0.084609 -1.621865,0.3342564 -2.481868,0.4215111 -4.143658,0.4204107 -1.67452,-0.00111 -2.410443,-0.08525 -3.636513,-0.4157714 -0.658443,-0.1775023 -1.584196,-0.560588 -1.908326,-0.7896848 -0.321912,-0.2275284 -0.614909,-0.1829158 -0.614909,0.093627 0,0.028635 0.119366,0.1798675 0.265259,0.3360722 0.89883,0.9623577 1.935249,2.802202 2.558267,4.5414093 0.583636,1.6292731 0.846111,2.9759704 0.846111,4.3412024 0,0.878039 0.03769,1.003125 0.29189,0.968784 0.09343,-0.01262 0.291728,-0.297164 0.710473,-1.019451 z M 74.411845,11.917667 C 74.20939,9.7869431 73.516453,7.5978114 72.405009,5.5776514 72.190832,5.1883647 71.898335,4.7017359 71.755015,4.4962539 71.611696,4.2907713 71.505505,4.1226495 71.519036,4.1226495 c 0.01353,0 0.376967,0.109173 0.807638,0.2426061 1.351763,0.4188138 2.132135,0.5162487 4.112359,0.5134573 C 78.093497,4.8763829 78.912542,4.8082859 80.1403,4.570992 80.361762,4.528189 80.349608,4.545728 79.729875,5.1633003 78.933556,5.9568436 78.022253,7.0104491 77.301859,7.9704604 76.72217,8.7429647 75.34279,10.855882 74.78446,11.826582 l -0.327217,0.568888 z m 48.572595,1.5443 c 0.0539,-0.04989 0.0786,-0.346889 0.0786,-0.941618 0,-0.974974 0.10903,-1.768691 0.39035,-2.8414735 0.60046,-2.2898215 1.82971,-4.7402598 3.01402,-6.0082895 0.1459,-0.1562047 0.26526,-0.3074373 0.26526,-0.3360722 0,-0.2765427 -0.29299,-0.3211553 -0.6149,-0.093627 -0.32414,0.2290968 -1.24988,0.6121825 -1.90833,0.7896848 -1.22608,0.330522 -1.96199,0.4146621 -3.63652,0.4157714 -1.66179,0.0011 -2.52179,-0.086154 -4.14366,-0.4204107 -0.62019,-0.1278193 -0.79246,-0.1445639 -0.87041,-0.084609 -0.14407,0.1107898 -0.11857,0.2262755 0.076,0.3444312 0.26939,0.1635772 1.80692,1.7245099 2.55922,2.5981896 1.12741,1.3092916 2.61383,3.4613749 3.75492,5.4364169 0.2991,0.517668 0.58431,1.002701 0.63382,1.077846 0.0985,0.149475 0.27825,0.178019 0.40155,0.06376 z m -0.83283,-1.703847 c -0.54354,-0.953565 -1.85838,-2.9661554 -2.47451,-3.7876596 -0.71938,-0.9591381 -1.63073,-2.0129344 -2.42774,-2.8071601 -0.61973,-0.6175729 -0.63188,-0.6351112 -0.41042,-0.5923083 1.22774,0.2372941 2.0468,0.3053891 3.70126,0.3077209 1.98022,0.00279 2.7606,-0.094643 4.11236,-0.5134573 0.43067,-0.1334331 0.79411,-0.2426061 0.80765,-0.2426061 0.0135,0 -0.0926,0.1681218 -0.23599,0.3736044 -0.36538,0.5238701 -0.98616,1.6679723 -1.33127,2.4536026 -0.72385,1.6477731 -1.10648,3.0836325 -1.33796,5.0207965 l -0.049,0.409341 z M 69.043092,96.015806 c 0.159347,-0.29383 0.376166,-0.780161 0.481823,-1.080744 l 0.192102,-0.546513 0.0026,0.886567 0.0026,0.886567 -0.438759,0.176099 c -0.241317,0.09686 -0.459323,0.18423 -0.484457,0.194176 -0.02513,0.0099 0.08468,-0.222328 0.244021,-0.516152 z m 58.656178,0.329281 -0.44232,-0.187527 0.003,-0.884503 0.003,-0.884508 0.1921,0.546513 c 0.10566,0.300583 0.32178,0.785615 0.48025,1.077848 0.1585,0.292233 0.26991,0.528716 0.24759,0.525515 -0.0223,-0.0032 -0.23961,-0.0902 -0.48288,-0.193338 z M 69.507997,90.965404 C 69.267103,90.335188 68.77959,89.664542 68.193942,89.157717 l -0.482399,-0.41747 -0.03744,-19.61177 -0.03744,-19.611777 0.889781,-1.215988 c 0.48938,-0.668793 1.111846,-1.514491 1.383257,-1.87933 l 0.493474,-0.663341 0.318653,0.329361 c 1.252813,1.294919 2.61952,3.92161 3.146525,6.047337 0.02593,0.10462 -0.05217,0.19431 -0.383385,0.440265 -2.18406,1.621853 -3.647071,5.63677 -3.863128,10.601522 -0.02325,0.534369 -0.01047,7.104209 0.0284,14.599636 0.03888,7.495434 0.06317,13.635015 0.05399,13.643522 -0.0092,0.0085 -0.09749,-0.195919 -0.196244,-0.45428 z m 57.781753,-5.16927 c 0.0198,-3.12272 0.0427,-9.680889 0.0508,-14.573707 0.0161,-9.750721 0.0251,-9.475849 -0.38155,-11.658966 -0.60361,-3.240555 -1.87733,-5.809681 -3.46472,-6.988457 -0.33122,-0.245955 -0.40932,-0.335645 -0.38338,-0.440265 0.52708,-2.126055 1.89369,-4.752402 3.14693,-6.047768 l 0.31907,-0.329792 1.11547,1.513906 c 0.6135,0.832645 1.23579,1.679711 1.38283,1.882371 l 0.26737,0.36846 -0.0375,19.609166 -0.0375,19.609165 -0.47921,0.414713 c -0.58719,0.508149 -1.03161,1.115187 -1.31802,1.800296 l -0.2168,0.518552 z M 96.130449,48.405467 c -1.3e-4,-0.41908 0.328015,-7.140339 0.349593,-7.160334 0.04176,-0.03872 1.803614,7.340028 1.771242,7.418191 -0.03144,0.07596 -0.212855,0.0913 -1.079256,0.0913 h -1.041459 l -1.3e-4,-0.349161 z m 2.597502,0.257857 c -0.03234,-0.07817 1.729459,-7.456911 1.771239,-7.418191 0.0216,0.01999 0.34974,6.741254 0.3496,7.160334 v 0.349161 h -1.041462 c -0.866401,0 -1.047806,-0.01535 -1.079257,-0.0913 z M 95.488779,35.438678 92.520697,23.277564 93.474532,20.672503 c 0.524599,-1.432784 0.96564,-2.616014 0.980089,-2.6294 0.01442,-0.01338 0.05998,0.121289 0.101141,0.299277 0.04115,0.177988 0.906623,3.671013 1.923209,7.762279 1.842384,7.414722 1.848853,7.438662 2.010652,7.438662 0.161789,0 0.168258,-0.02394 2.010637,-7.438662 1.01659,-4.091266 1.88204,-7.584291 1.92321,-7.762279 0.0412,-0.177988 0.0867,-0.312663 0.10114,-0.299277 0.0144,0.01339 0.4555,1.196616 0.9801,2.6294 l 0.95382,2.605061 -2.96807,12.161114 c -1.632436,6.688612 -2.982823,12.161112 -3.000837,12.161112 -0.01802,0 -1.368401,-5.4725 -3.000844,-12.161112 z m -25.63378,9.275177 C 69.621643,44.562831 69.253041,44.388723 69.035884,44.326949 L 68.641055,44.21463 68.626797,26.73422 68.612538,9.2538089 69.29119,9.8994454 c 1.049365,0.9983146 1.144583,1.1902856 1.58316,3.1918366 l 0.30343,1.384772 -0.02458,14.725517 -0.02459,14.725516 -0.391895,0.531329 c -0.215544,0.292231 -0.406642,0.531036 -0.424663,0.530678 -0.01802,-3.64e-4 -0.223692,-0.124215 -0.457049,-0.275239 z m 56.387531,-0.255439 -0.3919,-0.531329 -0.0246,-14.725516 -0.0246,-14.725517 0.30343,-1.384772 c 0.43857,-2.001551 0.53379,-2.193522 1.58316,-3.1918366 l 0.67865,-0.6456365 -0.0142,17.4801121 -0.0142,17.480112 -0.38876,0.111464 c -0.21382,0.06131 -0.58521,0.235843 -0.8253,0.387861 -0.24008,0.152017 -0.44849,0.276394 -0.46311,0.276391 -0.0146,-2e-6 -0.20294,-0.239102 -0.41848,-0.531333 z M 98.170069,31.250866 c -0.157734,-0.64284 -0.98964,-3.997011 -1.848692,-7.453711 l -1.561901,-6.284912 1.848692,-6.117591 c 1.016776,-3.3646761 1.863432,-6.1175924 1.881455,-6.1175924 0.01802,0 0.864669,2.7529163 1.881447,6.1175924 l 1.84869,6.117591 -1.5619,6.284912 c -0.859052,3.4567 -1.690959,6.810871 -1.848693,7.453711 -0.157735,0.64284 -0.30153,1.1688 -0.319544,1.1688 -0.01802,0 -0.161819,-0.52596 -0.319554,-1.1688 z M 91.81933,21.019593 C 91.563209,20.125891 91.055773,18.356304 90.691691,17.087177 88.108407,8.0823731 87.153061,4.7314832 87.153061,4.6753325 c 0,-0.035519 0.06639,-0.077546 0.147441,-0.093395 0.08111,-0.015849 0.560275,-0.1228205 1.064849,-0.2377148 0.504572,-0.1148941 0.934949,-0.1912562 0.956386,-0.1696932 0.0762,0.07661 4.908483,12.9797335 4.908483,13.1064735 0,0.110717 -1.863752,5.288006 -1.923559,5.343428 -0.01192,0.01104 -0.231219,-0.711137 -0.487331,-1.604838 z m 11.91619,-0.909299 c -0.51213,-1.39553 -0.94695,-2.623176 -0.96625,-2.728102 -0.0271,-0.147315 0.52126,-1.669003 2.40708,-6.679616 1.3432,-3.5688625 2.45971,-6.5064835 2.48116,-6.5280465 0.0214,-0.021563 0.45181,0.054799 0.95637,0.1696932 0.50458,0.1148943 0.98376,0.2218659 1.06485,0.2377148 0.0811,0.015849 0.14745,0.058143 0.14745,0.093989 0,0.060602 -0.56863,2.0573448 -2.98972,10.4984515 -1.94423,6.778601 -2.13487,7.43905 -2.15213,7.455953 -0.01,0.0095 -0.43669,-1.124508 -0.94881,-2.520037 z M 92.134979,10.438253 C 90.737941,6.7301949 89.778168,4.0961801 89.813054,4.0659281 c 0.05898,-0.051173 0.912831,-0.2368458 1.730469,-0.3763132 0.576176,-0.09828 2.948897,-0.1046373 3.385021,-0.00907 0.225131,0.049335 0.487571,0.1791334 0.786348,0.388911 0.599115,0.4206542 1.276932,0.7071174 1.88544,0.7968362 0.297905,0.043922 0.496112,0.1022194 0.496112,0.1459186 0,0.096043 -3.473735,11.5659513 -3.533734,11.6679863 -0.02603,0.04424 -1.090871,-2.693634 -2.427731,-6.241944 z m 10.229761,6.12166 C 102.20702,16.104139 98.882792,5.0797584 98.882792,5.0124879 c 0,-0.044043 0.196995,-0.1020942 0.496112,-0.1461955 0.608507,-0.089719 1.286336,-0.376182 1.885456,-0.7968362 0.29876,-0.2097776 0.5612,-0.3395765 0.78635,-0.388911 0.437,-0.095768 2.81015,-0.089126 3.38501,0.00947 0.98069,0.1682097 1.71917,0.3384725 1.74567,0.4024808 0.0232,0.056065 -4.65859,12.586947 -4.72614,12.649544 -0.0114,0.01061 -0.0522,-0.07135 -0.0905,-0.182131 z M 97.825804,4.4256801 C 96.905763,4.2911447 96.195645,3.9349007 95.517306,3.267575 94.989703,2.7485409 94.526765,1.9970471 94.294673,1.2828553 94.149807,0.83707165 94.083561,-0.04924589 94.179014,-0.26464343 c 0.04416,-0.09967 0.311744,-0.10626667 4.310609,-0.10626667 3.998857,0 4.266427,0.006597 4.310597,0.10626667 0.0954,0.21539754 0.0292,1.10171508 -0.11565,1.54749873 -0.39571,1.2176539 -1.36137,2.3608792 -2.36013,2.7941057 -0.27032,0.1172491 -0.624921,0.2426583 -0.788033,0.2786869 -0.437866,0.096721 -1.289619,0.1315909 -1.710603,0.070032 z m 1.377743,-0.4471432 c 0.112015,-0.1250691 0.02053,-0.2685243 -0.199789,-0.3133705 -0.111945,-0.022783 -0.181996,-0.069866 -0.163621,-0.1099775 0.01762,-0.038576 0.355049,-0.616653 0.74974,-1.2846146 l 0.717623,-1.2144756 0.28638,-0.030362 c 0.21302,-0.022584 0.29237,-0.059608 0.3098,-0.14453288 0.0372,-0.18088828 -0.10653,-0.21788783 -0.84973,-0.21888005 -0.726513,-9.7159e-4 -0.892288,0.0535321 -0.804864,0.26463054 0.02834,0.0684459 0.121407,0.098782 0.303022,0.098782 0.222588,0 0.25553,0.016026 0.218442,0.1062666 -0.09633,0.2345134 -1.23697,2.1405132 -1.280927,2.1405132 -0.04396,0 -1.184563,-1.9059998 -1.280938,-2.1405132 -0.03705,-0.09024 -0.004,-0.1062666 0.218443,-0.1062666 0.181625,0 0.274675,-0.0303361 0.303022,-0.098782 0.08742,-0.21109891 -0.0783,-0.26560033 -0.804872,-0.26463054 -0.743181,9.8981e-4 -0.886817,0.0379917 -0.849719,0.21888005 0.01742,0.0849244 0.09683,0.12194848 0.309801,0.14453288 l 0.286381,0.030362 0.717618,1.2144756 c 0.394691,0.6679616 0.732067,1.246038 0.74974,1.2846146 0.01832,0.040111 -0.05167,0.087194 -0.163612,0.1099775 -0.220344,0.044846 -0.311813,0.1883014 -0.199798,0.3133705 0.05397,0.060275 0.251876,0.083389 0.713934,0.083389 0.462048,0 0.659944,-0.023115 0.713924,-0.083389 z"
       id="path16201" /><path
       style="fill:#fe0000;fill-opacity:1;stroke:none;stroke-width:0.264728px;stroke-linecap:butt;stroke-linejoin:miter;stroke-opacity:1"
       d="m 100.6737,56.812605 v 3.178549 l 1.2486,1.923393 -5.440014,10.918087 V 58.765912 l 1.356123,-0.783006 v 1.398387 z"
       id="path19126"
       sodipodi:nodetypes="ccccc" /><ellipse
       style="fill:#14213d;fill-opacity:1;fill-rule:evenodd;stroke:none;stroke-width:1.14938;stroke-linecap:square;stroke-dasharray:1.14938, 6.89633;stroke-dashoffset:0;stroke-opacity:1;paint-order:fill markers stroke"
       id="path20632"
       cx="100.79874"
       cy="61.124165"
       rx="1.1235504"
       ry="1.1949542" /><path
       style="fill:none;stroke:#fe0000;stroke-width:0.365;stroke-linecap:butt;stroke-linejoin:miter;stroke-dasharray:4.38, 0.365;stroke-dashoffset:0;stroke-opacity:1"
       d="M 22.231227,4.5685852 27.105905,17.314669"
       id="path23445"
       class="UnoptimicedTransforms"
       transform="matrix(0.99997058,0,0,1.0011245,66.675016,4.1739296e-4)" /><path
       style="fill:none;stroke:#fe0000;stroke-width:0.365;stroke-linecap:butt;stroke-linejoin:miter;stroke-dasharray:4.38, 0.365;stroke-dashoffset:0;stroke-opacity:1"
       d="M 22.231227,4.5685852 27.105905,17.314669"
       id="path23449"
       class="UnoptimicedTransforms"
       transform="matrix(-0.99997058,0,0,1.0011245,130.17107,4.1739296e-4)" /><path
       style="fill:none;stroke:#fe0000;stroke-width:0.365;stroke-linecap:butt;stroke-linejoin:miter;stroke-dasharray:4.38001, 0.365;stroke-dashoffset:0;stroke-opacity:1"
       d="m 27.779735,19.746983 4.011986,15.59589"
       id="path23451"
       class="UnoptimicedTransforms"
       transform="matrix(0.99997058,0,0,1.0011245,66.475244,-0.4795983)" /><path
       style="fill:none;stroke:#fe0000;stroke-width:0.365;stroke-linecap:butt;stroke-linejoin:miter;stroke-dasharray:4.38001, 0.365;stroke-dashoffset:0;stroke-opacity:1"
       d="m 27.779735,19.746983 4.011986,15.59589"
       id="path23455"
       class="UnoptimicedTransforms"
       transform="matrix(-0.99997058,0,0,1.0011245,130.31305,-0.4795983)" /><path
       style="fill:none;stroke:#fe0000;stroke-width:0.3652;stroke-linecap:butt;stroke-linejoin:miter;stroke-dasharray:4.38241, 0.3652;stroke-dashoffset:0;stroke-opacity:1"
       d="m 85.842133,5.3141644 9.809,34.6611326"
       id="path23520" /><path
       style="fill:none;stroke:#fe0000;stroke-width:0.3652;stroke-linecap:butt;stroke-linejoin:miter;stroke-dasharray:4.38241, 0.3652;stroke-dashoffset:0;stroke-opacity:1"
       d="M 110.99658,5.3141644 101.18752,39.975297"
       id="path23522" /><path
       style="fill:none;stroke:#fe0000;stroke-width:0.388212;stroke-linecap:butt;stroke-linejoin:miter;stroke-dasharray:4.65855, 0.388212;stroke-dashoffset:0;stroke-opacity:1"
       d="m 95.710676,40.176895 -0.699212,8.572552"
       id="path23524" /><path
       style="fill:none;stroke:#fe0000;stroke-width:0.386211;stroke-linecap:butt;stroke-linejoin:miter;stroke-dasharray:4.63455, 0.386211;stroke-dashoffset:0;stroke-opacity:1"
       d="m 101.11235,40.128469 0.81556,8.522538"
       id="path23528" /><path
       style="fill:none;stroke:#fe0000;stroke-width:0.265145;stroke-linecap:butt;stroke-linejoin:miter;stroke-dasharray:2.12116, 0.265145;stroke-dashoffset:0;stroke-opacity:1"
       d="m 70.439688,2.7419184 c 0,0 5.367993,2.715379 10.990259,0.7071299 0,0 0.76282,0.5798467 -0.07063,1.3011192 -0.833452,0.7212725 -5.045424,4.9041387 -6.74352,9.0842755 0,0 -0.779126,0.460015 -1.158701,-0.640021 -0.379574,-1.100036 0.740189,-4.4560419 -3.497701,-9.7170883 0,0 -0.04238,-0.7142015 0.480293,-0.7354153 z"
       id="path23574"
       sodipodi:nodetypes="ccscscc" /><path
       style="fill:none;stroke:#fe0000;stroke-width:0.265145;stroke-linecap:butt;stroke-linejoin:miter;stroke-dasharray:2.12116, 0.265145;stroke-dashoffset:0;stroke-opacity:1"
       d="m 126.40745,2.7419184 c 0,0 -5.368,2.715379 -10.99027,0.7071299 0,0 -0.76282,0.5798467 0.0706,1.3011192 0.83345,0.7212725 5.04543,4.9041387 6.74352,9.0842755 0,0 0.77913,0.460015 1.15871,-0.640021 0.37957,-1.100036 -0.74019,-4.4560419 3.49769,-9.7170883 0,0 0.0424,-0.7142015 -0.48029,-0.7354153 z"
       id="path23576"
       sodipodi:nodetypes="ccscscc" /><path
       style="fill:none;stroke:#fe0000;stroke-width:0.265145;stroke-linecap:butt;stroke-linejoin:miter;stroke-dasharray:2.12116, 0.265145;stroke-dashoffset:0;stroke-opacity:1"
       d="m 72.406109,86.550953 8.334515,7.495577 c 0,0 -0.226021,0.87684 -1.29962,0.565704 -1.073598,-0.311138 -3.220795,-1.866822 -7.543442,-0.141425 0,0 -0.960589,0.08485 -0.480294,-1.074837 0.480294,-1.159694 1.836418,-2.573953 0.423789,-6.109603 0,0 0.05651,-0.820272 0.565052,-0.735416 z"
       id="path25287" /><path
       style="fill:none;stroke:#fe0000;stroke-width:0.265145;stroke-linecap:butt;stroke-linejoin:miter;stroke-dasharray:2.12116, 0.265145;stroke-dashoffset:0;stroke-opacity:1"
       d="m 124.44584,86.550953 -8.33452,7.495577 c 0,0 0.22601,0.87684 1.29961,0.565704 1.0736,-0.311138 3.2208,-1.866822 7.54345,-0.141425 0,0 0.96059,0.08485 0.4803,-1.074837 -0.4803,-1.159694 -1.83642,-2.573953 -0.42379,-6.109603 0,0 -0.0565,-0.820272 -0.56505,-0.735416 z"
       id="path25289" /><path
       style="fill:none;stroke:#fe0000;stroke-width:0.264728px;stroke-linecap:butt;stroke-linejoin:miter;stroke-dasharray:2.11782, 0.264728;stroke-dashoffset:0;stroke-opacity:1"
       d="m 78.500508,12.403962 -3.180413,3.628919 0.310873,16.05522 c 0,0 0,4.204984 4.530857,9.436381 v 0 c 0,0 6.663884,9.650382 7.973466,17.423293 L 87.901437,37.923457 c 0,0 -11.756757,-9.113619 -9.400929,-25.519495 z"
       id="path27557" /><path
       style="fill:none;stroke:#fe0000;stroke-width:0.264728px;stroke-linecap:butt;stroke-linejoin:miter;stroke-dasharray:2.11782, 0.264728;stroke-dashoffset:0;stroke-opacity:1"
       d="m 118.35656,12.403962 3.18041,3.628919 -0.31087,16.05522 c 0,0 0,4.204984 -4.53086,9.436381 v 0 c 0,0 -6.66388,9.650382 -7.97346,17.423293 l 0.23385,-21.024318 c 0,0 11.75676,-9.113619 9.40093,-25.519495 z"
       id="path27559" /><path
       style="fill:none;stroke:#fe0000;stroke-width:0.265145;stroke-linecap:butt;stroke-linejoin:miter;stroke-dasharray:1.59087, 0.265145;stroke-dashoffset:0;stroke-opacity:1"
       d="m 108.3068,82.475798 8.07085,-0.0454 c 0,0 0.0234,-2.36465 -2.64257,-3.956693 0,0 -0.16369,-0.70237 0.51449,-0.491659 0,0 3.25865,0.81306 3.15943,5.018045 0,0 0.0508,3.620362 -5.14155,4.249454 0,0 -4.02653,0.09106 -4.95254,-4.445031 0,0 0.0827,-3.324075 2.6551,-4.588344 0,0 0.56125,0.07024 0.18709,0.749197 0,0 -1.47613,1.122371 -1.8503,3.510436 z"
       id="path28097"
       sodipodi:nodetypes="ccccccccccc" /><path
       style="fill:none;stroke:#fe0000;stroke-width:0.264728px;stroke-linecap:butt;stroke-linejoin:miter;stroke-dasharray:2.11782, 0.264728;stroke-dashoffset:0;stroke-opacity:1"
       d="m 92.580382,86.686668 h 9.524728 l 0.0194,-5.831396 c -1.6e-4,-1.77e-4 -1.50138,-4.997578 -4.372354,-1.40365 0,0 -1.682664,-2.10298 -4.014235,0 0,0 -0.871868,1.246256 -1.01218,2.814886 z"
       id="path28153"
       sodipodi:nodetypes="cccc" /><path
       style="fill:none;stroke:#fe0000;stroke-width:0.265145;stroke-linecap:butt;stroke-linejoin:miter;stroke-dasharray:2.12116, 0.265145;stroke-dashoffset:0;stroke-opacity:1"
       d="m 92.646526,85.660255 h 9.491654 z"
       id="path28155" /><path
       style="fill:none;stroke:#fe0000;stroke-width:0.265145;stroke-linecap:butt;stroke-linejoin:miter;stroke-dasharray:0.795435, 0.265145;stroke-dashoffset:0;stroke-opacity:1"
       d="m 98.39668,81.587548 c 0.233853,-2.107114 1.239424,-2.364651 1.239424,-2.364651 1.473286,0.608723 1.473286,3.230908 1.473286,3.230908 h -7.389791 c 0,0 0.327397,-2.832897 1.964374,-2.926546 0,0 0.958801,-0.632135 1.520051,1.990052 0,0 0.444324,0.655547 1.192656,0.07024 z"
       id="path28157" /><path
       style="fill:none;stroke:#fe0000;stroke-width:0.265145;stroke-linecap:butt;stroke-linejoin:miter;stroke-dasharray:2.12116, 0.265145;stroke-dashoffset:0;stroke-opacity:1"
       d="m 87.336176,78.731236 -8.23166,4.401528 8.067962,4.354702 c 0,0 0.795103,0.04682 0.327395,-0.866256 l -0.771717,-0.561897 v -2.926547 l 1.028957,-0.889672 0.04677,-3.511856 z"
       id="path28216" /><path
       style="fill:none;stroke:#fe0000;stroke-width:0.264728px;stroke-linecap:butt;stroke-linejoin:miter;stroke-dasharray:1.05891, 0.264728;stroke-dashoffset:0;stroke-opacity:1"
       d="M 85.866735,83.425322 V 85.94169 L 83.539992,84.596794 Z"
       id="path28218" /><rect
       style="fill:none;fill-rule:evenodd;stroke:#ff0000;stroke-width:0.1;stroke-linecap:square;stroke-dasharray:none;stroke-dashoffset:0;paint-order:fill markers stroke;stroke-opacity:1;stroke-miterlimit:4"
       id="rect33593"
       width="64.500069"
       height="99.000076"
       x="66.233864"
       y="-0.3244575" /></g></svg>
