0
SECTION
2
HEADER
9
$INSUNITS
70
4
9
$ACADVER
1
AC1014
9
$HANDSEED
5
FFFF
0
ENDSEC
0
SECTION
2
TABLES
0
TABLE
2
VPORT
5
8
100
AcDbSymbolTable
0
ENDTAB
0
TABLE
2
LTYPE
5
5
100
AcDbSymbolTable
0
LTYPE
5
14
100
AcDbSymbolTableRecord
100
AcDbLinetypeTableRecord
2
BYBLOCK
70
0
0
LTYPE
5
15
100
AcDbSymbolTableRecord
100
AcDbLinetypeTableRecord
2
BYLAYER
70
0
0
ENDTAB
0
TABLE
2
LAYER
5
2
100
AcDbSymbolTable
70
2
0
LAYER
5
50
100
AcDbSymbolTableRecord
100
AcDbLayerTableRecord
2
0
70
0
6
CONTINUOUS
0
ENDTAB
0
TABLE
2
STYLE
5
3
100
AcDbSymbolTable
70
1
0
STYLE
5
11
100
AcDbSymbolTableRecord
100
AcDbTextStyleTableRecord
2
STANDARD
70
0
0
ENDTAB
0
TABLE
2
VIEW
5
6
100
AcDbSymbolTable
70
0
0
ENDTAB
0
TABLE
2
UCS
5
7
100
AcDbSymbolTable
70
0
0
ENDTAB
0
TABLE
2
APPID
5
9
100
AcDbSymbolTable
70
2
0
APPID
5
12
100
AcDbSymbolTableRecord
100
AcDbRegAppTableRecord
2
ACAD
70
0
0
ENDTAB
0
TABLE
2
DIMSTYLE
5
A
100
AcDbSymbolTable
70
1
0
ENDTAB
0
TABLE
2
BLOCK_RECORD
5
1
100
AcDbSymbolTable
70
1
0
BLOCK_RECORD
5
1F
100
AcDbSymbolTableRecord
100
AcDbBlockTableRecord
2
*MODEL_SPACE
0
BLOCK_RECORD
5
1B
100
AcDbSymbolTableRecord
100
AcDbBlockTableRecord
2
*PAPER_SPACE
0
ENDTAB
0
ENDSEC
0
SECTION
2
BLOCKS
0
BLOCK
5
20
100
AcDbEntity
100
AcDbBlockBegin
2
*MODEL_SPACE
0
ENDBLK
5
21
100
AcDbEntity
100
AcDbBlockEnd
0
BLOCK
5
1C
100
AcDbEntity
100
AcDbBlockBegin
2
*PAPER_SPACE
0
ENDBLK
5
1D
100
AcDbEntity
100
AcDbBlockEnd
0
ENDSEC
0
SECTION
2
ENTITIES
0
LWPOLYLINE
5
100
100
AcDbEntity
8
0
100
AcDbPolyline
90
4
70
1
43
0.0
10
296.2486572265625
20
261.56245422363276
10
228.2486572265625
20
261.56245422363276
10
228.2486572265625
20
193.56245422363276
10
296.2486572265625
20
193.56245422363281
0
LWPOLYLINE
5
101
100
AcDbEntity
8
0
100
AcDbPolyline
90
4
70
1
43
0.0
10
280.28735358162118
20
69.059386845191781
10
282.21571641068078
20
71.357520174548711
10
289.87616084187056
20
64.929644077683321
10
287.94779801281095
20
62.631510748326384
0
LWPOLYLINE
5
102
100
AcDbEntity
8
0
100
AcDbPolyline
90
4
70
1
43
0.0
10
312.34679784002725
20
46.074540860211499
10
310.41843501096764
20
43.77640753085457
10
302.75799057977787
20
50.20428362771996
10
304.68635340883748
20
52.502416957076889
0
LWPOLYLINE
5
103
100
AcDbEntity
8
0
100
AcDbPolyline
90
4
70
1
43
0.0
10
257.81671658346448
20
87.914490062663603
10
259.74507941252409
20
90.212623392020532
10
267.40552384371387
20
83.784747295155142
10
265.47716101465426
20
81.486613965798199
0
LWPOLYLINE
5
104
100
AcDbEntity
8
0
100
AcDbPolyline
90
4
70
1
43
0.0
10
235.34607958530779
20
106.76959328013541
10
237.2744424143674
20
109.06772660949233
10
244.93488684555717
20
102.63985051262694
10
243.00652401649754
20
100.34171718327001
0
LWPOLYLINE
5
105
100
AcDbEntity
8
0
100
AcDbPolyline
90
48
70
1
43
0.0
10
314.2486572265625
20
190.56246948242188
10
228.2486572265625
20
190.56246948242188
10
228.24865722656253
20
175.56246948242188
10
231.24865722656253
20
175.56246948242188
10
231.24865722656253
20
165.56246948242188
10
228.24865722656253
20
165.56246948242188
10
228.24865722656253
20
145.56246948242188
10
231.24865722656253
20
145.56246948242188
10
231.24865722656253
20
135.56246948242188
10
228.24865722656253
20
135.56246948242188
10
228.24865722656253
20
115.56246948242188
10
231.24865722656253
20
115.56246948242188
10
231.24865722656253
20
105.56246948242188
10
228.24865722656253
20
105.56246948242188
10
228.24865722656253
20
85.562469482421875
10
231.24865722656253
20
85.562469482421875
10
231.24865722656253
20
75.562469482421875
10
228.24865722656253
20
75.562469482421875
10
228.24865722656253
20
55.562469482421868
10
231.24865722656253
20
55.562469482421868
10
231.24865722656253
20
45.562469482421868
10
228.24865722656253
20
45.562469482421868
10
228.24865722656253
20
40.562469482421868
10
233.24865722656253
20
40.562469482421868
10
233.24865722656253
20
37.562469482421868
10
243.24865722656253
20
37.562469482421868
10
243.24865722656253
20
40.562469482421868
10
266.2486572265625
20
40.562469482421868
10
266.2486572265625
20
37.562469482421868
10
276.2486572265625
20
37.562469482421868
10
276.2486572265625
20
40.562469482421868
10
299.24865722656256
20
40.562469482421868
10
299.24865722656256
20
37.562469482421868
10
309.24865722656256
20
37.562469482421868
10
309.24865722656256
20
40.562469482421868
10
314.24865722656256
20
40.562469482421868
10
314.2486572265625
20
95.562469482421875
10
311.2486572265625
20
95.562469482421875
10
311.2486572265625
20
105.56246948242188
10
314.2486572265625
20
105.56246948242188
10
314.2486572265625
20
128.06246948242188
10
311.2486572265625
20
128.06246948242188
10
311.2486572265625
20
138.06246948242188
10
314.2486572265625
20
138.06246948242188
10
314.2486572265625
20
160.56246948242188
10
311.2486572265625
20
160.56246948242188
10
311.2486572265625
20
170.56246948242188
10
314.2486572265625
20
170.56246948242188
0
LWPOLYLINE
5
106
100
AcDbEntity
8
0
100
AcDbPolyline
90
4
70
1
43
0.0
10
347.80257060183567
20
204.95827171647502
10
347.80257060183567
20
211.958271716475
42
-0.99999999999999989
10
351.80257060183573
20
211.958271716475
10
351.80257060183573
20
204.95827171647508
42
-0.99999999999999989
0
LWPOLYLINE
5
107
100
AcDbEntity
8
0
100
AcDbPolyline
90
56
70
1
43
0.0
10
400.2486572265625
20
221.56105041503906
10
320.2486572265625
20
221.56105041503906
10
320.2486572265625
20
206.56105041503906
10
317.2486572265625
20
206.56105041503906
10
317.24865722656256
20
196.56105041503906
10
320.2486572265625
20
196.56105041503906
10
320.2486572265625
20
176.56105041503906
10
317.2486572265625
20
176.56105041503906
10
317.24865722656256
20
166.56105041503906
10
320.2486572265625
20
166.56105041503906
10
320.2486572265625
20
146.56105041503906
10
317.2486572265625
20
146.56105041503906
10
317.24865722656256
20
136.56105041503906
10
320.2486572265625
20
136.56105041503906
10
320.2486572265625
20
116.56105041503906
10
317.2486572265625
20
116.56105041503906
10
317.24865722656256
20
106.56105041503906
10
320.2486572265625
20
106.56105041503906
10
320.2486572265625
20
86.561050415039062
10
317.2486572265625
20
86.561050415039062
10
317.24865722656256
20
76.561050415039062
10
320.2486572265625
20
76.561050415039062
10
320.2486572265625
20
71.561050415039062
10
325.2486572265625
20
71.561050415039062
10
325.2486572265625
20
68.561050415039062
10
335.2486572265625
20
68.561050415039062
10
335.2486572265625
20
71.561050415039062
10
355.2486572265625
20
71.561050415039062
10
355.2486572265625
20
68.561050415039062
10
365.2486572265625
20
68.561050415039062
10
365.2486572265625
20
71.561050415039062
10
385.2486572265625
20
71.561050415039062
10
385.2486572265625
20
68.561050415039062
10
395.2486572265625
20
68.561050415039062
10
395.2486572265625
20
71.561050415039062
10
400.2486572265625
20
71.561050415039062
10
400.2486572265625
20
76.561050415039062
10
403.2486572265625
20
76.561050415039062
10
403.2486572265625
20
86.561050415039062
10
400.2486572265625
20
86.561050415039062
10
400.2486572265625
20
106.56105041503906
10
403.2486572265625
20
106.56105041503906
10
403.2486572265625
20
116.56105041503906
10
400.2486572265625
20
116.56105041503906
10
400.2486572265625
20
136.56105041503906
10
403.2486572265625
20
136.56105041503906
10
403.2486572265625
20
146.56105041503906
10
400.2486572265625
20
146.56105041503906
10
400.2486572265625
20
166.56105041503906
10
403.2486572265625
20
166.56105041503906
10
403.2486572265625
20
176.56105041503906
10
400.2486572265625
20
176.56105041503906
10
400.2486572265625
20
196.56105041503906
10
403.2486572265625
20
196.56105041503906
10
403.2486572265625
20
206.56105041503906
10
400.2486572265625
20
206.56105041503906
0
LWPOLYLINE
5
108
100
AcDbEntity
8
0
100
AcDbPolyline
90
26
70
1
43
0.0
10
479.24865354750136
20
242.56105041503901
42
0.41421356237310336
10
474.24865354750136
20
247.56105041503901
10
304.24865354750136
20
247.56105041503901
42
0.41421356237309509
10
299.24865354750136
20
242.56105041503901
10
299.24865354750136
20
227.56105041503901
10
304.24865354750136
20
227.56105041503901
10
304.24865354750136
20
224.56105041503901
10
314.24865354750136
20
224.56105041503901
10
314.24865354750136
20
227.56105041503901
10
344.24865354750136
20
227.56105041503901
10
344.24865354750136
20
224.56105041503901
10
354.24865354750136
20
224.56105041503901
10
354.24865354750136
20
227.56105041503901
10
384.24865354750136
20
227.56105041503901
10
384.24865354750136
20
224.56105041503901
10
394.24865354750136
20
224.56105041503901
10
394.24865354750136
20
227.56105041503901
10
424.24865354750136
20
227.56105041503901
10
424.24865354750136
20
224.56105041503901
10
434.24865354750136
20
224.56105041503901
10
434.24865354750136
20
227.56105041503901
10
464.24865354750136
20
227.56105041503901
10
464.24865354750136
20
224.56105041503901
10
474.24865354750136
20
224.56105041503901
10
474.24865354750136
20
227.56105041503901
10
479.24865354750136
20
227.56105041503901
0
LWPOLYLINE
5
109
100
AcDbEntity
8
0
100
AcDbPolyline
90
28
70
1
43
0.0
10
409.2486572265625
20
121.1313018798829
10
489.2486572265625
20
121.13130187988288
10
489.2486572265625
20
141.1313018798829
10
492.2486572265625
20
141.1313018798829
10
492.2486572265625
20
151.1313018798829
10
489.2486572265625
20
151.1313018798829
10
489.2486572265625
20
173.6313018798829
10
492.2486572265625
20
173.6313018798829
10
492.2486572265625
20
183.6313018798829
10
489.2486572265625
20
183.6313018798829
10
489.2486572265625
20
206.1313018798829
10
492.2486572265625
20
206.1313018798829
10
492.2486572265625
20
216.1313018798829
10
489.2486572265625
20
216.1313018798829
10
489.2486572265625
20
221.1313018798829
10
409.2486572265625
20
221.1313018798829
10
409.2486572265625
20
216.1313018798829
10
406.2486572265625
20
216.1313018798829
10
406.24865722656244
20
206.1313018798829
10
409.24865722656244
20
206.1313018798829
10
409.2486572265625
20
183.6313018798829
10
406.2486572265625
20
183.6313018798829
10
406.24865722656244
20
173.6313018798829
10
409.24865722656244
20
173.6313018798829
10
409.2486572265625
20
151.1313018798829
10
406.2486572265625
20
151.1313018798829
10
406.24865722656244
20
141.1313018798829
10
409.24865722656244
20
141.1313018798829
0
LWPOLYLINE
5
110
100
AcDbEntity
8
0
100
AcDbPolyline
90
36
70
1
43
0.0
10
522.16387939453125
20
113.13130357459431
10
522.16387939453125
20
118.13130357459431
10
442.16387939453125
20
118.13130357459434
10
442.16387939453125
20
113.13130357459436
10
439.16387939453131
20
113.13130357459436
10
439.16387939453131
20
103.13130357459436
10
442.16387939453125
20
103.13130357459436
10
442.16387939453125
20
83.797970241261027
10
439.16387939453131
20
83.797970241261027
10
439.16387939453131
20
73.797970241261027
10
442.16387939453125
20
73.797970241261027
10
442.16387939453125
20
54.464636907927684
10
439.16387939453131
20
54.464636907927684
10
439.16387939453125
20
44.464636907927691
10
442.16387939453119
20
44.464636907927691
10
442.16387939453125
20
25.131303574594355
10
439.16387939453131
20
25.131303574594355
10
439.16387939453125
20
15.131303574594364
10
442.16387939453119
20
15.131303574594366
10
442.16387939453125
20
9.5541420718178909
10
522.16387939453125
20
9.5541420718178696
10
522.16387939453125
20
15.131303574594334
10
525.16387939453125
20
15.131303574594339
10
525.16387939453125
20
25.13130357459433
10
522.16387939453125
20
25.13130357459433
10
522.16387939453125
20
44.46463690792767
10
525.16387939453125
20
44.464636907927677
10
525.16387939453125
20
54.46463690792767
10
522.16387939453125
20
54.46463690792767
10
522.16387939453125
20
73.797970241260998
10
525.16387939453125
20
73.797970241260998
10
525.16387939453125
20
83.797970241260998
10
522.16387939453125
20
83.797970241260998
10
522.16387939453125
20
103.13130357459434
10
525.16387939453125
20
103.13130357459434
10
525.16387939453125
20
113.13130357459434
0
LWPOLYLINE
5
111
100
AcDbEntity
8
0
100
AcDbPolyline
90
48
70
1
43
0.0
10
525.16387939453125
20
6.5541381835937429
10
439.16387939453125
20
6.5541381835937429
10
439.16387939453131
20
-8.4458618164062571
10
442.16387939453125
20
-8.4458618164062571
10
442.16387939453125
20
-18.445861816406257
10
439.16387939453131
20
-18.445861816406257
10
439.16387939453131
20
-38.445861816406257
10
442.16387939453125
20
-38.445861816406257
10
442.16387939453125
20
-48.445861816406257
10
439.16387939453131
20
-48.445861816406257
10
439.16387939453131
20
-68.44586181640625
10
442.16387939453125
20
-68.44586181640625
10
442.16387939453125
20
-78.44586181640625
10
439.16387939453131
20
-78.44586181640625
10
439.16387939453131
20
-98.44586181640625
10
442.16387939453125
20
-98.44586181640625
10
442.16387939453125
20
-108.44586181640625
10
439.16387939453131
20
-108.44586181640625
10
439.16387939453131
20
-128.44586181640625
10
442.16387939453125
20
-128.44586181640625
10
442.16387939453125
20
-138.44586181640625
10
439.16387939453131
20
-138.44586181640625
10
439.16387939453131
20
-143.44586181640625
10
444.16387939453131
20
-143.44586181640625
10
444.16387939453131
20
-146.44586181640625
10
454.16387939453131
20
-146.44586181640625
10
454.16387939453131
20
-143.44586181640625
10
477.16387939453125
20
-143.44586181640625
10
477.16387939453125
20
-146.44586181640625
10
487.16387939453125
20
-146.44586181640625
10
487.16387939453125
20
-143.44586181640625
10
510.16387939453125
20
-143.44586181640625
10
510.16387939453131
20
-146.44586181640625
10
520.16387939453136
20
-146.44586181640625
10
520.16387939453136
20
-143.44586181640625
10
525.16387939453136
20
-143.44586181640625
10
525.16387939453125
20
-88.44586181640625
10
522.16387939453125
20
-88.44586181640625
10
522.16387939453125
20
-78.44586181640625
10
525.16387939453125
20
-78.44586181640625
10
525.16387939453125
20
-55.945861816406257
10
522.16387939453125
20
-55.945861816406257
10
522.16387939453125
20
-45.945861816406257
10
525.16387939453125
20
-45.945861816406257
10
525.16387939453125
20
-23.445861816406257
10
522.16387939453125
20
-23.445861816406257
10
522.16387939453125
20
-13.445861816406257
10
525.16387939453125
20
-13.445861816406257
0
LWPOLYLINE
5
112
100
AcDbEntity
8
0
100
AcDbPolyline
90
4
70
1
43
0.0
10
455.85010901352587
20
-81.368480786201189
10
453.92174618446631
20
-83.666614115558119
10
446.26130175327654
20
-77.238738018692715
10
448.18966458233615
20
-74.9406046893358
0
LWPOLYLINE
5
113
100
AcDbEntity
8
0
100
AcDbPolyline
90
4
70
1
43
0.0
10
523.26202000799594
20
-137.93379043861663
10
521.33365717893639
20
-140.23192376797357
10
513.67321274774656
20
-133.80404767110815
10
515.60157557680623
20
-131.50591434175124
0
LWPOLYLINE
5
114
100
AcDbEntity
8
0
100
AcDbPolyline
90
4
70
1
43
0.0
10
478.32074601168256
20
-100.22358400367298
10
476.39238318262301
20
-102.52171733302993
10
468.73193875143323
20
-96.093841236164522
10
470.66030158049284
20
-93.795707906807593
0
LWPOLYLINE
5
115
100
AcDbEntity
8
0
100
AcDbPolyline
90
4
70
1
43
0.0
10
500.79138300983925
20
-119.0786872211448
10
498.8630201807797
20
-121.37682055050175
10
491.20257574958993
20
-114.94894445363634
10
493.13093857864953
20
-112.65081112427943
0
LWPOLYLINE
5
116
100
AcDbEntity
8
0
100
AcDbPolyline
90
4
70
1
43
0.0
10
329.2486572265625
20
-69.355438232421889
10
329.2486572265625
20
-72.355438232421889
10
319.2486572265625
20
-72.355438232421889
10
319.24865722656256
20
-69.355438232421875
0
LWPOLYLINE
5
117
100
AcDbEntity
8
0
100
AcDbPolyline
90
4
70
1
43
0.0
10
296.2486572265625
20
-69.355438232421875
10
296.2486572265625
20
-72.355438232421875
10
286.2486572265625
20
-72.355438232421875
10
286.2486572265625
20
-69.355438232421875
0
LWPOLYLINE
5
118
100
AcDbEntity
8
0
100
AcDbPolyline
90
4
70
1
43
0.0
10
263.2486572265625
20
-69.355438232421875
10
263.2486572265625
20
-72.355438232421875
10
253.24865722656253
20
-72.355438232421875
10
253.24865722656253
20
-69.355438232421875
0
LWPOLYLINE
5
119
100
AcDbEntity
8
0
100
AcDbPolyline
90
4
70
1
43
0.0
10
251.24865722656253
20
-64.355438232421875
10
248.24865722656253
20
-64.355438232421875
10
248.24865722656253
20
-54.355438232421882
10
251.24865722656253
20
-54.355438232421882
0
LWPOLYLINE
5
120
100
AcDbEntity
8
0
100
AcDbPolyline
90
4
70
1
43
0.0
10
251.24865722656253
20
-34.355438232421875
10
248.24865722656253
20
-34.355438232421875
10
248.24865722656253
20
-24.355438232421879
10
251.24865722656253
20
-24.355438232421879
0
LWPOLYLINE
5
121
100
AcDbEntity
8
0
100
AcDbPolyline
90
4
70
1
43
0.0
10
251.24865722656253
20
-4.3554382324218777
10
248.24865722656253
20
-4.3554382324218768
10
248.24865722656253
20
5.6445617675781223
10
251.24865722656253
20
5.6445617675781223
0
LWPOLYLINE
5
122
100
AcDbEntity
8
0
100
AcDbPolyline
90
4
70
1
43
0.0
10
329.24865722656256
20
13.644561767578107
10
329.24865722656256
20
10.6445617675781
10
319.24865722656256
20
10.644561767578107
10
319.24865722656256
20
13.644561767578111
0
LWPOLYLINE
5
123
100
AcDbEntity
8
0
100
AcDbPolyline
90
4
70
1
43
0.0
10
296.2486572265625
20
13.644561767578116
10
296.2486572265625
20
10.644561767578118
10
286.2486572265625
20
10.64456176757812
10
286.2486572265625
20
13.644561767578116
0
LWPOLYLINE
5
124
100
AcDbEntity
8
0
100
AcDbPolyline
90
4
70
1
43
0.0
10
263.24865722656256
20
13.644561767578116
10
263.24865722656256
20
10.644561767578118
10
253.24865722656256
20
10.64456176757812
10
253.24865722656256
20
13.644561767578125
0
LWPOLYLINE
5
125
100
AcDbEntity
8
0
100
AcDbPolyline
90
4
70
1
43
0.0
10
424.16386229621162
20
-114.3554382324219
10
421.16386229621156
20
-114.3554382324219
10
421.16386229621162
20
-104.3554382324219
10
424.16386229621168
20
-104.3554382324219
0
LWPOLYLINE
5
126
100
AcDbEntity
8
0
100
AcDbPolyline
90
4
70
1
43
0.0
10
421.16386229621162
20
55.644561767578097
10
424.16386229621168
20
55.644561767578097
10
424.16386229621168
20
45.644561767578097
10
421.16386229621173
20
45.644561767578097
0
LWPOLYLINE
5
127
100
AcDbEntity
8
0
100
AcDbPolyline
90
4
70
1
43
0.0
10
424.16386229621168
20
-74.355438232421903
10
421.16386229621173
20
-74.355438232421903
10
421.16386229621162
20
-64.355438232421903
10
424.16386229621168
20
-64.355438232421903
0
LWPOLYLINE
5
128
100
AcDbEntity
8
0
100
AcDbPolyline
90
4
70
1
43
0.0
10
421.16386229621162
20
15.6445617675781
10
424.16386229621168
20
15.6445617675781
10
424.16386229621168
20
5.6445617675781001
10
421.16386229621173
20
5.6445617675781001
0
LWPOLYLINE
5
129
100
AcDbEntity
8
0
100
AcDbPolyline
90
4
70
1
43
0.0
10
424.16386229621168
20
-34.355438232421903
10
421.16386229621173
20
-34.355438232421903
10
421.16386229621162
20
-24.3554382324219
10
424.16386229621168
20
-24.3554382324219
0
LWPOLYLINE
5
130
100
AcDbEntity
8
0
100
AcDbPolyline
90
12
70
1
43
0.0
10
436.16386229621173
20
81.397295408576866
42
0.60681489631459595
10
428.29598011445648
20
85.493055630021786
10
361.99698729147434
20
39.070001079658297
42
-0.15391472105982912
10
344.78969420094296
20
33.644562408328056
10
233.24865658581263
20
33.644562408328056
42
0.41421356237309637
10
228.24865658581257
20
28.644562408328049
10
228.2486565858126
20
-87.355438873171806
42
0.41421356237309404
10
233.2486565858126
20
-92.355438873171792
10
344.78969420094296
20
-92.355438873171835
42
-0.15391472105982945
10
361.99698729147434
20
-97.780877544502047
10
428.29598011445637
20
-144.20393209486559
42
0.60681489631459906
10
436.16386229621162
20
-140.10817187342064
0
ENDSEC
0
SECTION
2
OBJECTS
0
DICTIONARY
5
C
100
AcDbDictionary
3
ACAD_GROUP
350
D
3
ACAD_MLINESTYLE
350
17
0
DICTIONARY
5
D
100
AcDbDictionary
0
DICTIONARY
5
1A
330
C
100
AcDbDictionary
0
DICTIONARY
5
17
100
AcDbDictionary
0
ENDSEC
0
EOF
