<?xml version="1.0" encoding="UTF-8" standalone="no"?>
<svg
   viewBox="0 0 1543.0787 1123.1994"
   width="1543.0787"
   height="1123.1993"
   version="1.1"
   id="svg269"
   sodipodi:docname="Tour-de-des-laser.svg"
   inkscape:version="1.2 (dc2aeda, 2022-05-15)"
   xmlns:inkscape="http://www.inkscape.org/namespaces/inkscape"
   xmlns:sodipodi="http://sodipodi.sourceforge.net/DTD/sodipodi-0.dtd"
   xmlns="http://www.w3.org/2000/svg"
   xmlns:svg="http://www.w3.org/2000/svg">
  <sodipodi:namedview
     id="namedview271"
     pagecolor="#ffffff"
     bordercolor="#666666"
     borderopacity="1.0"
     inkscape:showpageshadow="2"
     inkscape:pageopacity="0.0"
     inkscape:pagecheckerboard="0"
     inkscape:deskcolor="#d1d1d1"
     showgrid="false"
     inkscape:zoom="0.29732611"
     inkscape:cx="943.40857"
     inkscape:cy="731.52002"
     inkscape:current-layer="g267" />
  <desc
     id="desc189">Tour-de-des-laser.dxf - scale = 1.000000, origin = (0.000000, 0.000000), method = manual</desc>
  <defs
     id="defs203">
    <marker
       id="DistanceX"
       orient="auto"
       refX="0"
       refY="0"
       style="overflow:visible">
      <path
         d="M 3,-3 -3,3 M 0,-5 V 5"
         style="stroke:#000000;stroke-width:0.5"
         id="path191" />
    </marker>
    <pattern
       id="Hatch"
       patternUnits="userSpaceOnUse"
       width="8"
       height="8"
       x="0"
       y="0">
      <path
         d="M8 4 l-4,4"
         stroke="#000000"
         stroke-width="0.25"
         linecap="square"
         id="path194" />
      <path
         d="M6 2 l-4,4"
         stroke="#000000"
         stroke-width="0.25"
         linecap="square"
         id="path196" />
      <path
         d="M4 0 l-4,4"
         stroke="#000000"
         stroke-width="0.25"
         linecap="square"
         id="path198" />
    </pattern>
    <symbol
       id="*MODEL_SPACE" />
    <symbol
       id="*PAPER_SPACE" />
  </defs>
  <g
     inkscape:groupmode="layer"
     inkscape:label="0"
     id="g267"
     transform="translate(-652.23238,-343.37688)">
    <path
       d="m 652.73238,1209.0683 v 257.0079 h 257.00788 v -257.0079 z"
       style="fill:none;stroke:#0000ff"
       id="path205" />
    <path
       d="m 1380.303,1269.3945 -8.6858,-7.2883 24.2943,-28.9528 8.6859,7.2883 z"
       style="fill:none;stroke:#0000ff"
       id="path207" />
    <path
       d="m 1467.1749,1148.225 8.6859,7.2883 -24.2944,28.9528 -8.6858,-7.2883 z"
       style="fill:none;stroke:#0000ff"
       id="path209" />
    <path
       d="m 1309.0397,1354.3229 -8.6859,-7.2883 24.2943,-28.9528 8.6859,7.2883 z"
       style="fill:none;stroke:#0000ff"
       id="path211" />
    <path
       d="m 1237.7763,1439.2513 -8.6859,-7.2883 24.2943,-28.9529 8.6859,7.2883 z"
       style="fill:none;stroke:#0000ff"
       id="path213" />
    <path
       d="m 921.07878,1141.0368 v 325.0394 h 56.69291 v -11.3386 h 37.79531 v 11.3386 h 75.5905 v -11.3386 h 37.7953 v 11.3386 h 75.5906 v -11.3386 h 37.7952 v 11.3386 h 75.5906 v -11.3386 h 37.7953 v 11.3386 h 75.5905 v -11.3386 h 37.7953 v 11.3386 h 18.8976 v -18.8976 h 11.3386 v -37.7953 h -11.3386 v -86.9291 h 11.3386 v -37.7953 h -11.3386 v -86.9291 h 11.3386 v -37.7953 h -11.3386 v -18.8977 h -207.874 v 11.3386 h -37.7953 v -11.3386 h -85.0393 v 11.3386 h -37.7953 v -11.3386 h -85.0394 v 11.3386 h -37.79527 v -11.3386 z"
       style="fill:none;stroke:#0000ff"
       id="path215" />
    <path
       d="m 866.66945,1014.2189 h -26.45669 a 7.55906,7.55906 0 0 1 0,-15.11812 h 26.45669 a 7.55906,7.55906 0 0 1 0,15.11812 z"
       style="fill:none;stroke:#0000ff"
       id="path217" />
    <path
       d="m 803.91879,815.99748 v 302.36222 h 56.69291 v 11.3386 h 37.79528 v -11.3386 h 75.59055 v 11.3386 h 37.79527 v -11.3386 h 75.5906 v 11.3386 h 37.7952 v -11.3386 h 75.5906 v 11.3386 h 37.7953 v -11.3386 h 75.5905 v 11.3386 h 37.7953 v -11.3386 h 18.8976 v -18.8977 h 11.3386 v -37.7952 h -11.3386 v -75.59062 h 11.3386 v -37.7953 h -11.3386 v -75.5905 h 11.3386 v -37.7953 h -11.3386 v -18.8976 h -18.8976 v -11.3386 h -37.7953 v 11.3386 h -75.5905 v -11.3386 h -37.7953 v 11.3386 h -75.5906 v -11.3386 h -37.7952 v 11.3386 h -75.5906 v -11.3386 h -37.79527 v 11.3386 h -75.59055 v -11.3386 H 860.6117 v 11.3386 z"
       style="fill:none;stroke:#0000ff"
       id="path219" />
    <path
       d="m 724.54871,517.41478 a 18.897638,18.897638 0 0 0 -18.89764,18.8976 v 642.51972 a 18.897638,18.897638 0 0 0 18.89764,18.8977 h 56.69291 v -18.8977 h 11.33859 v -37.7952 H 781.24162 V 1027.651 h 11.33859 v -37.79522 h -11.33859 v -113.3859 h 11.33859 v -37.7953 h -11.33859 v -113.3858 h 11.33859 v -37.7953 h -11.33859 v -113.3858 h 11.33859 v -37.7953 h -11.33859 v -18.8976 z"
       style="fill:none;stroke:#0000ff"
       id="path221" />
    <path
       d="m 1183.4958,781.98168 v -302.3622 h -75.5906 v -11.3386 H 1070.11 v 11.3386 h -85.03941 v -11.3386 h -37.79527 v 11.3386 h -85.03937 v -11.3386 h -37.79528 v 11.3386 h -18.89764 v 302.3622 h 18.89764 v 11.3386 h 37.79528 v -11.3386 h 85.03937 v 11.3386 h 37.79527 v -11.3386 H 1070.11 v 11.3386 h 37.7952 v -11.3386 z"
       style="fill:none;stroke:#0000ff"
       id="path223" />
    <path
       d="m 1213.732,355.21548 h -18.8976 v 302.3622 h 18.8976 v 11.3386 h 37.7953 v -11.3386 h 73.0709 v 11.3386 h 37.7952 v -11.3386 h 73.0709 v 11.3386 h 37.7953 v -11.3386 h 73.0708 v 11.3386 h 37.7953 v -11.3386 h 21.079 v -302.3622 h -21.079 v -11.3386 h -37.7953 v 11.3386 h -73.0708 v -11.3386 h -37.7953 v 11.3386 h -73.0709 v -11.3386 h -37.7952 v 11.3386 h -73.0709 v -11.3386 h -37.7953 z"
       style="fill:none;stroke:#0000ff"
       id="path225" />
    <path
       d="m 1616.5433,343.87688 v 325.0394 h 56.693 v -11.3386 h 37.7952 v 11.3386 h 75.5906 v -11.3386 h 37.7953 v 11.3386 h 75.5905 v -11.3386 h 37.7953 v 11.3386 h 75.5905 v -11.3386 h 37.7953 v 11.3386 h 75.5906 v -11.3386 h 37.7952 v 11.3386 h 18.8977 v -18.8976 h 11.3386 v -37.7953 h -11.3386 v -86.9291 h 11.3386 v -37.7953 h -11.3386 v -86.9291 h 11.3386 v -37.7953 h -11.3386 v -18.8977 h -207.874 v 11.3386 h -37.7953 v -11.3386 h -85.0394 v 11.3386 h -37.7953 v -11.3386 h -85.0393 v 11.3386 h -37.7953 v -11.3386 z"
       style="fill:none;stroke:#0000ff"
       id="path227" />
    <path
       d="m 1948.8493,605.85018 8.6859,7.2884 -24.2944,28.9528 -8.6858,-7.2883 z"
       style="fill:none;stroke:#0000ff"
       id="path229" />
    <path
       d="m 2162.6394,351.06508 8.6859,7.2883 -24.2943,28.9528 -8.6859,-7.2883 z"
       style="fill:none;stroke:#0000ff"
       id="path231" />
    <path
       d="m 2020.1127,520.92188 8.6858,7.2883 -24.2943,28.9528 -8.6859,-7.2883 z"
       style="fill:none;stroke:#0000ff"
       id="path233" />
    <path
       d="m 2091.3761,435.99348 8.6858,7.2883 -24.2943,28.9528 -8.6859,-7.2883 z"
       style="fill:none;stroke:#0000ff"
       id="path235" />
    <path
       d="m 1903.4457,1084.3439 h 11.3386 v 37.7953 h -11.3386 z"
       style="fill:none;stroke:#0000ff"
       id="path237" />
    <path
       d="m 1903.4457,1209.0683 h 11.3386 v 37.7953 h -11.3386 z"
       style="fill:none;stroke:#0000ff"
       id="path239" />
    <path
       d="m 1903.4457,1333.7927 h 11.3386 v 37.7953 h -11.3386 z"
       style="fill:none;stroke:#0000ff"
       id="path241" />
    <path
       d="m 1884.548,1379.1471 v 11.3385 h -37.7952 v -11.3385 z"
       style="fill:none;stroke:#0000ff"
       id="path243" />
    <path
       d="m 1771.1622,1379.1471 v 11.3385 h -37.7953 v -11.3385 z"
       style="fill:none;stroke:#0000ff"
       id="path245" />
    <path
       d="m 1657.7764,1379.1471 v 11.3385 h -37.7953 v -11.3385 z"
       style="fill:none;stroke:#0000ff"
       id="path247" />
    <path
       d="m 1589.7449,1084.3439 h 11.3386 v 37.7953 h -11.3386 z"
       style="fill:none;stroke:#0000ff"
       id="path249" />
    <path
       d="m 1589.7449,1209.0683 h 11.3386 v 37.7953 h -11.3386 z"
       style="fill:none;stroke:#0000ff"
       id="path251" />
    <path
       d="m 1589.7449,1333.7927 h 11.3386 v 37.7953 h -11.3386 z"
       style="fill:none;stroke:#0000ff"
       id="path253" />
    <path
       d="m 2073.5244,725.60928 v 11.3386 h -37.7953 v -11.3386 z"
       style="fill:none;stroke:#0000ff"
       id="path255" />
    <path
       d="m 1431.0047,736.94788 v -11.3386 H 1468.8 v 11.3386 z"
       style="fill:none;stroke:#0000ff"
       id="path257" />
    <path
       d="m 1922.3433,725.60928 v 11.3386 h -37.7953 v -11.3386 z"
       style="fill:none;stroke:#0000ff"
       id="path259" />
    <path
       d="m 1582.1858,736.94788 v -11.3386 h 37.7953 v 11.3386 z"
       style="fill:none;stroke:#0000ff"
       id="path261" />
    <path
       d="m 1771.1622,725.60928 v 11.3386 h -37.7953 v -11.3386 z"
       style="fill:none;stroke:#0000ff"
       id="path263" />
    <path
       d="m 1333.6716,680.25498 a 18.897638,18.897638 0 0 0 -15.4801,29.7368 l 175.4572,250.5789 a 113.38583,113.38583 0 0 1 20.5056,65.03542 v 421.5725 a 18.897638,18.897638 0 0 0 18.8977,18.8976 h 438.4252 a 18.897638,18.897638 0 0 0 18.8976,-18.8976 v -421.5725 a 113.38583,113.38583 0 0 1 20.5056,-65.03542 l 175.4572,-250.5789 a 18.897638,18.897638 0 0 0 -15.48,-29.7368 z"
       style="fill:none;stroke:#0000ff"
       id="path265" />
  </g>
</svg>
